<svg width="100.000000" height="100.000000" viewBox="0 0 100 100" fill="none" xmlns="http://www.w3.org/2000/svg" xmlns:xlink="http://www.w3.org/1999/xlink">
	<desc>
			Created with Pixso.
	</desc>
	<path d="M0 18.0555C0 13.0697 1.76276 8.81396 5.28833 5.28833C8.8139 1.76282 13.0696 0 18.0555 0L81.9445 0C86.9304 0 91.1861 1.76282 94.7117 5.28833C98.2372 8.81396 100 13.0697 100 18.0555L100 81.9445C100 86.9303 98.2372 91.186 94.7117 94.7117C91.1861 98.2372 86.9304 100 81.9445 100L18.0555 100C13.0696 100 8.8139 98.2372 5.28833 94.7117C1.76276 91.186 0 86.9303 0 81.9445L0 18.0555ZM54.1667 26.3889C54.1667 23.6111 52.7778 22.2222 50 22.2222C47.2222 22.2222 45.8333 23.6111 45.8333 26.3889L45.8333 45.8334L26.3889 45.8334C23.6111 45.8334 22.2222 47.2222 22.2222 50C22.2222 52.7778 23.6111 54.1666 26.3889 54.1666L45.8333 54.1666L45.8333 73.6111C45.8333 76.3889 47.2222 77.7778 50 77.7778C52.7778 77.7778 54.1667 76.3889 54.1667 73.6111L54.1667 54.1666L73.6111 54.1666C76.3889 54.1666 77.7778 52.7778 77.7778 50C77.7778 47.2222 76.3889 45.8334 73.6111 45.8334L54.1667 45.8334L54.1667 26.3889Z" fill-rule="evenodd" fill="#2F2C2C"/>
	<defs/>
</svg>
