<svg width="20.000000" height="20.012665" viewBox="0 0 20 20.0127" fill="none" xmlns="http://www.w3.org/2000/svg" xmlns:xlink="http://www.w3.org/1999/xlink">
	<desc>
			Created with Pixso.
	</desc>
	<path d="M3.25 15.7887C2.35254 15.7887 1.58649 15.4547 0.951904 14.7867C0.317322 14.1187 0 13.3124 0 12.3678L0 3.42087C0 2.47623 0.317322 1.66992 0.951904 1.00195C1.58649 0.333984 2.35254 0 3.25 0L16.75 0C17.6475 0 18.4135 0.333984 19.0481 1.00195C19.6827 1.66992 20 2.47623 20 3.42087L20 12.3678C20 13.3124 19.6827 14.1187 19.0481 14.7867C18.4135 15.4547 17.6475 15.7887 16.75 15.7887L10.965 15.7887L5.578 19.8064C5.24707 20.0531 4.90143 20.0785 4.54114 19.8826C4.18079 19.6867 4.00043 19.3754 4 18.9485L4 15.7887L3.25 15.7887Z" fill-rule="evenodd" fill="#212121"/>
	<defs/>
</svg>
