<svg width="30.000000" height="30.000000" viewBox="0 0 30 30" fill="none" xmlns="http://www.w3.org/2000/svg" xmlns:xlink="http://www.w3.org/1999/xlink">
	<desc>
			Created with Pixso.
	</desc>
	<g clip-path="url(#clip27_92)">
		<path d="M26.875 7.5C26.8749 8.24072 26.507 8.65454 25.7712 8.74121L25.625 8.75L24.5687 8.75L23.03 24.3999C22.9433 25.2795 22.5724 26.0161 21.9174 26.6096C21.2623 27.2031 20.4928 27.5 19.6088 27.5L10.3912 27.5C9.50732 27.5 8.73779 27.2034 8.08276 26.6099C7.42773 26.0164 7.05676 25.2798 6.96997 24.3999L5.43127 8.75L4.375 8.75C3.54169 8.75 3.125 8.33325 3.125 7.5C3.125 6.66675 3.54169 6.25 4.375 6.25L10.625 6.25C10.625 5.04199 11.0521 4.01074 11.9064 3.15649C12.7607 2.30225 13.7919 1.875 15 1.875C16.2081 1.875 17.2393 2.30225 18.0936 3.15649C18.9479 4.01074 19.375 5.04199 19.375 6.25L25.625 6.25C26.4583 6.25 26.875 6.66675 26.875 7.5ZM17.8125 11.5625C17.2675 11.5625 16.9579 11.8325 16.8837 12.3726L16.875 12.5L16.875 21.25L16.8837 21.3774C16.958 21.9172 17.2676 22.1873 17.8125 22.1873C18.3574 22.1873 18.667 21.9172 18.7413 21.3774L18.75 21.25L18.75 12.5L18.7413 12.3726C18.6671 11.8325 18.3575 11.5625 17.8125 11.5625ZM12.1875 11.5625C11.6425 11.5625 11.3329 11.8325 11.2587 12.3726L11.25 12.5L11.25 21.25L11.2587 21.3774C11.333 21.9172 11.6426 22.1873 12.1875 22.1873C12.7324 22.1873 13.042 21.9172 13.1163 21.3774L13.125 21.25L13.125 12.5L13.1163 12.3726C13.0421 11.8325 12.7325 11.5625 12.1875 11.5625ZM15 4.375C14.4822 4.375 14.0403 4.55811 13.6742 4.92407C13.308 5.29028 13.125 5.73218 13.125 6.25L16.875 6.25C16.875 5.73218 16.692 5.29028 16.3258 4.92407C15.9597 4.55811 15.5178 4.375 15 4.375Z" fill-rule="evenodd" fill="#212121"/>
	</g>
	<defs>
		<clipPath id="clip27_92">
			<rect width="30.000000" height="30.000000" fill="white"/>
		</clipPath>
	</defs>
</svg>
