<svg width="24.000000" height="24.000000" viewBox="0 0 24 24" fill="none" xmlns="http://www.w3.org/2000/svg" xmlns:xlink="http://www.w3.org/1999/xlink">
	<desc>
			Created with Pixso.
	</desc>
	<g clip-path="url(#clip27_100)">
		<path d="M21.5 6C21.5 6.59265 21.2056 6.92366 20.6169 6.993L20.5 7L19.655 7L18.4241 19.52C18.3547 20.2237 18.0579 20.8129 17.5339 21.2878C17.0098 21.7626 16.3943 22 15.687 22L8.31299 22C7.60596 22.0001 6.99023 21.7627 6.46631 21.2879C5.94214 20.813 5.64551 20.2237 5.57593 19.52L4.34497 7L3.5 7C2.83325 7 2.5 6.66667 2.5 6C2.5 5.33333 2.83325 5 3.5 5L8.5 5C8.5 4.03351 8.8418 3.20854 9.52515 2.52513C10.2085 1.84171 11.0334 1.5 12 1.5C12.9666 1.5 13.7915 1.84171 14.4749 2.52513C15.1582 3.20854 15.5 4.03351 15.5 5L20.5 5C21.1667 5 21.5 5.33333 21.5 6ZM14.25 9.25C13.814 9.25002 13.5664 9.46602 13.5071 9.89799L13.5 10L13.5 17L13.5071 17.102C13.5664 17.5338 13.814 17.7498 14.25 17.7498C14.686 17.7498 14.9336 17.5338 14.9929 17.102L15 17L15 10L14.9929 9.89799C14.9336 9.466 14.686 9.25 14.25 9.25ZM9.75 9.25C9.31396 9.25002 9.06641 9.46602 9.00708 9.89799L9 10L9 17L9.00708 17.102C9.06641 17.5338 9.31396 17.7498 9.75 17.7498C10.186 17.7498 10.4336 17.5338 10.4929 17.102L10.5 17L10.5 10L10.4929 9.89799C10.4336 9.466 10.186 9.25 9.75 9.25ZM12 3.5C11.5857 3.5 11.2322 3.64645 10.9395 3.93935C10.6465 4.23224 10.5 4.58578 10.5 5L13.5 5C13.5 4.58578 13.3535 4.23224 13.0605 3.93935C12.7678 3.64645 12.4143 3.5 12 3.5Z" fill-rule="evenodd" fill="#212121"/>
	</g>
	<defs>
		<clipPath id="clip27_100">
			<rect width="24.000000" height="24.000000" fill="white"/>
		</clipPath>
	</defs>
</svg>
