<svg width="45.000000" height="45.000000" viewBox="0 0 45 45" fill="none" xmlns="http://www.w3.org/2000/svg" xmlns:xlink="http://www.w3.org/1999/xlink">
	<desc>
			Created with Pixso.
	</desc>
	<path d="M2.78674 20.246L0.083374 20.246C0.34375 17.6609 1.0307 15.1947 2.14423 12.8472C3.25769 10.4997 4.73303 8.40741 6.57019 6.57019C8.40741 4.73303 10.4997 3.25769 12.8472 2.14423C15.1947 1.0307 17.6609 0.34375 20.246 0.083374L20.246 2.78674C20.246 3.91315 20.8093 4.47632 21.9357 4.47632C23.0621 4.47632 23.6253 3.91315 23.6253 2.78674L23.6253 0C34.7925 0.549683 43.8218 9.2298 44.9166 20.246L42.2133 20.246C41.0869 20.246 40.5237 20.8093 40.5237 21.9357C40.5237 23.0621 41.0869 23.6253 42.2133 23.6253L45 23.6253C44.8605 26.4146 44.2243 29.0857 43.0914 31.6384C41.9585 34.1912 40.4046 36.455 38.4297 38.4297C36.455 40.4046 34.1912 41.9585 31.6384 43.0914C29.0857 44.2243 26.4146 44.8605 23.6253 45L23.6253 42.211C23.6253 41.0846 23.0621 40.5214 21.9357 40.5214C20.8093 40.5214 20.246 41.0846 20.246 42.211L20.246 44.9166C9.2298 43.8218 0.549683 34.7925 0 23.6276L2.78674 23.6276C3.91315 23.6276 4.47632 23.0643 4.47632 21.9379C4.47632 20.8115 3.91315 20.246 2.78674 20.246ZM28.4778 21.431C27.4957 19.1397 25.8466 17.5327 23.5306 16.61L14.4563 12.9943C13.9965 12.8102 13.5915 12.8932 13.2413 13.2435C12.8911 13.5938 12.8079 13.9988 12.992 14.4586L16.61 23.5329C17.5332 25.8479 19.1402 27.4962 21.431 28.4778L31.1745 32.6545C31.6416 32.8551 32.055 32.7758 32.4147 32.4166C32.7745 32.0574 32.8544 31.6442 32.6545 31.1767L28.4778 21.431Z" fill-rule="evenodd" fill="#4605AD"/>
	<defs/>
</svg>
