<svg width="40.000000" height="40.000000" viewBox="0 0 40 40" fill="none" xmlns="http://www.w3.org/2000/svg" xmlns:xlink="http://www.w3.org/1999/xlink">
	<desc>
			Created with Pixso.
	</desc>
	<path d="M2.47705 17.9965L0.0739746 17.9965C0.305664 15.6986 0.91626 13.5063 1.90601 11.4197C2.89575 9.33313 4.20703 7.47327 5.84009 5.84021C7.47314 4.20715 9.33301 2.89575 11.4197 1.90601C13.5063 0.91626 15.6987 0.305542 17.9966 0.0740967L17.9966 2.47705C17.9966 3.47839 18.4971 3.979 19.4983 3.979C20.4995 3.979 21.0002 3.47839 21.0002 2.47705L21.0002 0C30.9268 0.488647 38.9526 8.20422 39.926 17.9965L37.5229 17.9965C36.5217 17.9965 36.021 18.4971 36.021 19.4984C36.021 20.4996 36.5217 21.0002 37.5229 21.0002L40 21.0002C39.876 23.4796 39.3105 25.8539 38.3035 28.123C37.2964 30.3921 35.9153 32.4044 34.1599 34.1598C32.4043 35.9152 30.3921 37.2964 28.123 38.3035C25.854 39.3104 23.4797 39.876 21.0002 40L21.0002 37.5209C21.0002 36.5197 20.4995 36.019 19.4983 36.019C18.4971 36.019 17.9966 36.5197 17.9966 37.5209L17.9966 39.9259C8.20435 38.9526 0.488525 30.9266 0 21.0022L2.47705 21.0022C3.47827 21.0022 3.979 20.5016 3.979 19.5004C3.979 18.4991 3.47827 17.9965 2.47705 17.9965ZM25.3137 19.0498C24.4407 17.0131 22.9749 15.5846 20.9163 14.7644L12.8501 11.5504C12.4414 11.3868 12.0813 11.4607 11.77 11.772C11.4587 12.0833 11.3848 12.4434 11.5483 12.8521L14.7644 20.9181C15.585 22.976 17.0134 24.441 19.0498 25.3136L27.7107 29.0262C28.126 29.2046 28.4934 29.134 28.813 28.8148C29.1328 28.4955 29.2039 28.1282 29.0264 27.7126L25.3137 19.0498Z" fill-rule="evenodd" fill="#000000"/>
	<defs/>
</svg>
