<svg width="30.000000" height="30.000000" viewBox="0 0 30 30" fill="none" xmlns="http://www.w3.org/2000/svg" xmlns:xlink="http://www.w3.org/1999/xlink">
	<desc>
			Created with Pixso.
	</desc>
	<g clip-path="url(#clip4_272)">
		<path d="M17.425 6.25L23.7512 12.575L22.5488 13.7773C21.3582 13.6785 20.202 13.8345 19.0803 14.2456C17.9586 14.6565 16.9753 15.2844 16.1306 16.1292C15.2858 16.9741 14.658 17.9573 14.2469 19.0789C13.8359 20.2007 13.6798 21.3569 13.7787 22.5474L11.3287 24.9973C10.9763 25.3499 10.5596 25.5916 10.0787 25.7224L3.685 27.4661C3.33557 27.5608 3.0329 27.4802 2.77698 27.2241C2.521 26.9683 2.44037 26.6655 2.53497 26.3162L4.27747 19.9211C4.40839 19.4402 4.65009 19.0237 5.0025 18.6711L17.425 6.25ZM26.2888 3.7124C27.1617 4.58594 27.5981 5.64014 27.5981 6.875C27.5981 8.10986 27.1617 9.16406 26.2888 10.0374L25.0762 11.25L18.75 4.9248L19.9625 3.7124C20.8359 2.83862 21.8903 2.40186 23.1256 2.40186C24.361 2.40186 25.4153 2.83862 26.2888 3.7124ZM17.85 17.4675C18.0471 18.1489 17.9683 18.7969 17.6136 19.4114C17.2591 20.0259 16.7374 20.4182 16.0488 20.5886L15.3187 20.7686C15.201 21.522 15.2035 22.2749 15.3262 23.0273L16.0012 23.1899C16.6964 23.3574 17.2228 23.7507 17.5806 24.3699C17.9382 24.989 18.016 25.6416 17.8137 26.3274L17.58 27.1174C18.13 27.5999 18.755 27.9912 19.435 28.2686L20.0525 27.6211C20.5452 27.1028 21.1492 26.8438 21.8644 26.8438C22.5795 26.8438 23.1835 27.1028 23.6763 27.6211L24.2988 28.2773C24.9803 28.0002 25.5982 27.6199 26.1525 27.1362L25.905 26.2786C25.7084 25.5972 25.7875 24.9492 26.1423 24.3352C26.4971 23.7209 27.0189 23.3289 27.7075 23.1587L28.4362 22.9788C28.5541 22.2249 28.5516 21.4717 28.4287 20.7188L27.7537 20.5562C27.0585 20.3887 26.5321 19.9954 26.1744 19.3762C25.8168 18.7571 25.739 18.1045 25.9412 17.4187L26.175 16.6311C25.6212 16.1428 25.0029 15.7583 24.32 15.4773L23.7037 16.1262C23.2109 16.645 22.6068 16.9043 21.8912 16.9043C21.1757 16.9043 20.5715 16.645 20.0787 16.1262L19.4562 15.47C18.7762 15.7449 18.1512 16.1323 17.6025 16.6099L17.85 17.4675ZM21.8762 23.75C20.8762 23.75 20.0637 22.9099 20.0637 21.875C20.0637 20.8386 20.8762 20 21.8762 20C22.8762 20 23.6887 20.8386 23.6887 21.875C23.6887 22.9099 22.8762 23.75 21.8762 23.75Z" fill-rule="evenodd" fill="#212121"/>
	</g>
	<defs>
		<clipPath id="clip4_272">
			<rect width="30.000000" height="30.000000" fill="white"/>
		</clipPath>
	</defs>
</svg>
