<svg width="379.988495" height="310.482178" viewBox="0 0 379.988 310.482" fill="none" xmlns="http://www.w3.org/2000/svg" xmlns:xlink="http://www.w3.org/1999/xlink">
	<desc>
			Created with Pixso.
	</desc>
	<g clip-path="url(#clip9_479)">
		<path d="M320.419 106.387C320.419 106.287 320.38 106.191 320.309 106.121C320.239 106.05 320.143 106.01 320.043 106.01C319.944 106.01 319.848 106.05 319.777 106.121C319.707 106.191 319.667 106.287 319.667 106.387L319.667 163.828C319.665 165.391 319.043 166.888 317.938 167.993C316.833 169.097 315.336 169.718 313.773 169.721L197.009 169.721C196.91 169.721 196.814 169.76 196.743 169.831C196.673 169.901 196.633 169.997 196.633 170.096C196.633 170.196 196.673 170.292 196.743 170.362C196.814 170.433 196.91 170.473 197.009 170.473L313.773 170.473C315.535 170.471 317.224 169.77 318.47 168.525C319.716 167.279 320.417 165.59 320.419 163.828L320.419 106.387Z" fill-rule="evenodd" fill="#4605AD"/>
		<path d="M231.147 68.6946L197.009 68.6946C195.247 68.6968 193.558 69.3975 192.312 70.6436C191.066 71.8894 190.365 73.5786 190.363 75.3406L190.363 91.3706C190.363 91.4702 190.403 91.5659 190.473 91.6365C190.544 91.707 190.64 91.7466 190.739 91.7466C190.839 91.7466 190.935 91.707 191.005 91.6365C191.076 91.5659 191.115 91.4702 191.115 91.3706L191.115 75.3406C191.117 73.7778 191.738 72.2798 192.843 71.1746C193.948 70.0696 195.447 69.4482 197.009 69.4465L231.147 69.4465C231.247 69.4465 231.343 69.407 231.413 69.3364C231.484 69.2659 231.523 69.1702 231.523 69.0706C231.523 68.9709 231.484 68.8752 231.413 68.8047C231.343 68.7341 231.247 68.6946 231.147 68.6946Z" fill-rule="evenodd" fill="#4605AD"/>
		<path d="M320.419 75.3386C320.417 73.5769 319.716 71.8879 318.47 70.6423C317.224 69.3967 315.535 68.6963 313.773 68.6948L280.011 68.6948L280.011 60.3787C280.011 60.2791 279.972 60.1833 279.901 60.1128C279.831 60.0422 279.735 60.0027 279.635 60.0027L231.147 60.0027C231.048 60.0027 230.952 60.0422 230.881 60.1128C230.811 60.1833 230.771 60.2791 230.771 60.3787L230.771 73.6106C230.771 73.6602 230.781 73.709 230.8 73.7546C230.819 73.8003 230.847 73.8418 230.881 73.8767C230.916 73.9116 230.958 73.9392 231.003 73.958C231.049 73.9771 231.098 73.9868 231.147 73.9868L279.635 73.9868C279.685 73.9868 279.734 73.9771 279.779 73.958C279.825 73.9392 279.866 73.9116 279.901 73.8767C279.936 73.8418 279.964 73.8003 279.983 73.7546C280.002 73.709 280.011 73.6602 280.011 73.6106L280.011 69.4468L313.773 69.4468C315.336 69.4487 316.833 70.0703 317.938 71.1746C319.043 72.2791 319.665 73.7766 319.667 75.3386L319.667 78.7927C319.667 78.8923 319.707 78.988 319.777 79.0586C319.848 79.1292 319.944 79.1687 320.043 79.1687C320.143 79.1687 320.239 79.1292 320.309 79.0586C320.38 78.988 320.419 78.8923 320.419 78.7927L320.419 75.3386ZM279.259 73.2288L231.523 73.2288L231.523 60.7488L279.259 60.7488L279.259 73.2288Z" fill-rule="evenodd" fill="#4605AD"/>
		<path d="M255.389 60.3787C254.517 60.3792 253.663 60.1206 252.938 59.636C252.212 59.1516 251.646 58.4626 251.312 57.6565C250.978 56.8503 250.89 55.9631 251.06 55.1072C251.23 54.2512 251.65 53.4648 252.267 52.8477C252.884 52.2305 253.67 51.8101 254.526 51.6396C255.382 51.4692 256.269 51.5564 257.075 51.8904C257.882 52.2241 258.571 52.7898 259.056 53.5154C259.541 54.241 259.799 55.094 259.799 55.9668C259.798 57.1362 259.333 58.2576 258.507 59.0847C257.68 59.9116 256.559 60.3772 255.389 60.3787ZM255.389 52.3108C254.666 52.3108 253.958 52.5254 253.357 52.9272C252.755 53.3293 252.286 53.9009 252.01 54.5693C251.733 55.2378 251.66 55.9734 251.802 56.6831C251.943 57.3928 252.292 58.0444 252.803 58.5559C253.315 59.0674 253.967 59.4158 254.677 59.5566C255.387 59.6975 256.122 59.625 256.791 59.3477C257.459 59.0706 258.03 58.6013 258.432 57.9995C258.834 57.3977 259.048 56.6902 259.047 55.9668C259.046 54.9973 258.66 54.0679 257.974 53.3826C257.288 52.6973 256.359 52.3118 255.389 52.3108Z" fill-rule="evenodd" fill="#4605AD"/>
		<path d="M235.207 95.0847L203.389 95.0847C203.29 95.0847 203.194 95.0452 203.123 94.9746C203.053 94.9041 203.013 94.8083 203.013 94.7087L203.013 82.0647C203.013 81.9651 203.053 81.8694 203.123 81.7988C203.194 81.7283 203.29 81.6887 203.389 81.6887L235.213 81.6887C235.263 81.6887 235.312 81.6985 235.357 81.7173C235.403 81.7363 235.444 81.7639 235.479 81.7988C235.514 81.8337 235.542 81.8752 235.561 81.9209C235.58 81.9663 235.589 82.0154 235.589 82.0647L235.589 94.7087C235.589 94.7585 235.579 94.8081 235.56 94.854C235.541 94.9001 235.513 94.9417 235.477 94.9768C235.442 95.0117 235.399 95.0393 235.353 95.0579C235.307 95.0764 235.257 95.0854 235.207 95.0847ZM203.759 94.3328L234.831 94.3328L234.831 82.4407L203.759 82.4407L203.759 94.3328Z" fill-rule="evenodd" fill="#4605AD"/>
		<path d="M235.207 118.463L219.453 118.463C219.354 118.463 219.258 118.423 219.187 118.352C219.117 118.282 219.077 118.186 219.077 118.087C219.077 117.987 219.117 117.891 219.187 117.821C219.258 117.75 219.354 117.711 219.453 117.711L234.831 117.711L234.831 107.872L211.293 107.872C211.194 107.872 211.098 107.833 211.027 107.762C210.957 107.692 210.917 107.596 210.917 107.497C210.917 107.397 210.957 107.301 211.027 107.231C211.098 107.16 211.194 107.121 211.293 107.121L235.207 107.121C235.307 107.121 235.403 107.16 235.473 107.231C235.544 107.301 235.583 107.397 235.583 107.497L235.583 118.096C235.581 118.194 235.54 118.288 235.47 118.356C235.4 118.424 235.305 118.463 235.207 118.463Z" fill-rule="evenodd" fill="#4605AD"/>
		<path d="M213.741 141.907L203.389 141.907C203.29 141.907 203.194 141.867 203.123 141.796C203.053 141.726 203.013 141.63 203.013 141.531L203.013 130.931C203.013 130.831 203.053 130.735 203.123 130.665C203.194 130.594 203.29 130.555 203.389 130.555L205.589 130.555C205.689 130.555 205.785 130.594 205.855 130.665C205.926 130.735 205.965 130.831 205.965 130.931C205.965 131.03 205.926 131.126 205.855 131.196C205.785 131.267 205.689 131.307 205.589 131.307L203.769 131.307L203.769 141.145L213.751 141.145C213.852 141.146 213.949 141.187 214.019 141.26C214.09 141.332 214.129 141.429 214.127 141.531C214.126 141.632 214.085 141.728 214.012 141.798C213.94 141.869 213.842 141.908 213.741 141.907Z" fill-rule="evenodd" fill="#4605AD"/>
		<path d="M234.831 136.943L234.831 131.317L229.815 131.317C229.716 131.317 229.62 131.277 229.549 131.206C229.479 131.136 229.439 131.04 229.439 130.941C229.439 130.841 229.479 130.745 229.549 130.675C229.62 130.604 229.716 130.565 229.815 130.565L235.215 130.565C235.315 130.565 235.411 130.604 235.481 130.675C235.552 130.745 235.591 130.841 235.591 130.941L235.591 136.941C235.592 137.041 235.552 137.138 235.481 137.21C235.41 137.281 235.313 137.321 235.212 137.322C235.112 137.322 235.015 137.282 234.943 137.211C234.872 137.14 234.832 137.043 234.831 136.943Z" fill-rule="evenodd" fill="#4605AD"/>
		<path d="M228.589 157.829L202.925 157.829C202.825 157.829 202.73 157.789 202.659 157.719C202.588 157.648 202.548 157.552 202.547 157.453L202.547 153.405C202.548 153.305 202.588 153.209 202.659 153.139C202.73 153.068 202.825 153.029 202.925 153.029L224.545 153.029C224.645 153.029 224.741 153.068 224.811 153.139C224.882 153.209 224.921 153.305 224.921 153.405C224.921 153.504 224.882 153.6 224.811 153.67C224.741 153.741 224.645 153.781 224.545 153.781L203.301 153.781L203.301 157.081L228.589 157.081C228.682 157.09 228.768 157.134 228.83 157.203C228.892 157.272 228.927 157.362 228.927 157.455C228.927 157.548 228.892 157.637 228.83 157.706C228.768 157.775 228.682 157.819 228.589 157.829Z" fill-rule="evenodd" fill="#4605AD"/>
		<path d="M307.317 157.829L242.663 157.829C242.564 157.829 242.468 157.789 242.397 157.718C242.327 157.648 242.287 157.552 242.287 157.453C242.287 157.353 242.327 157.257 242.397 157.187C242.468 157.116 242.564 157.077 242.663 157.077L306.939 157.077L306.939 153.777L245.961 153.777C245.862 153.777 245.766 153.737 245.695 153.666C245.625 153.596 245.585 153.5 245.585 153.401C245.585 153.301 245.625 153.205 245.695 153.135C245.766 153.064 245.862 153.025 245.961 153.025L307.317 153.025C307.367 153.025 307.416 153.034 307.461 153.053C307.507 153.072 307.548 153.1 307.583 153.135C307.618 153.17 307.646 153.211 307.665 153.257C307.684 153.302 307.693 153.351 307.693 153.401L307.693 157.453C307.693 157.502 307.684 157.551 307.665 157.596C307.646 157.642 307.618 157.683 307.583 157.718C307.548 157.753 307.507 157.781 307.461 157.8C307.416 157.819 307.367 157.829 307.317 157.829Z" fill-rule="evenodd" fill="#4605AD"/>
		<path d="M169.675 68.6926L135.913 68.6926L135.913 60.3787C135.913 60.2791 135.874 60.1833 135.803 60.1128C135.733 60.0422 135.637 60.0027 135.537 60.0027L87.0495 60.0027C86.9498 60.0027 86.8542 60.0422 86.7837 60.1128C86.7132 60.1833 86.6735 60.2791 86.6735 60.3787L86.6735 68.6948L52.9135 68.6948C51.1511 68.6963 49.4614 69.397 48.2151 70.6428C46.9688 71.8889 46.2676 73.5784 46.2655 75.3408L46.2655 97.4526C46.2655 97.5525 46.3051 97.6482 46.3756 97.7185C46.4461 97.7891 46.5417 97.8286 46.6415 97.8286C46.7412 97.8286 46.8368 97.7891 46.9073 97.7185C46.9778 97.6482 47.0175 97.5525 47.0175 97.4526L47.0175 75.3408C47.0196 73.7778 47.6415 72.2795 48.7468 71.1746C49.8521 70.0698 51.3506 69.4482 52.9135 69.4468L86.6735 69.4468L86.6735 73.6106C86.6735 73.7104 86.7132 73.8059 86.7837 73.8767C86.8542 73.947 86.9498 73.9868 87.0495 73.9868L135.537 73.9868C135.637 73.9868 135.733 73.947 135.803 73.8767C135.874 73.8059 135.913 73.7104 135.913 73.6106L135.913 69.4448L169.675 69.4448C169.775 69.4448 169.871 69.405 169.941 69.3345C170.012 69.2642 170.051 69.1685 170.051 69.0686C170.051 68.969 170.012 68.8733 169.941 68.8027C169.871 68.7324 169.775 68.6926 169.675 68.6926ZM135.161 73.2288L87.4256 73.2288L87.4256 60.7488L135.161 60.7488L135.161 73.2288Z" fill-rule="evenodd" fill="#4605AD"/>
		<path d="M111.293 60.3787C110.42 60.3811 109.566 60.1243 108.839 59.6409C108.112 59.1575 107.544 58.4692 107.209 57.6633C106.873 56.8574 106.784 55.97 106.953 55.1133C107.122 54.2566 107.541 53.4695 108.157 52.8511C108.774 52.2329 109.56 51.8115 110.416 51.6404C111.272 51.4692 112.16 51.5557 112.967 51.8894C113.774 52.2229 114.464 52.7886 114.949 53.5142C115.434 54.24 115.693 55.0935 115.693 55.9666C115.692 57.1343 115.229 58.2542 114.404 59.0811C113.58 59.908 112.461 60.3745 111.293 60.3787ZM111.293 52.3105C110.57 52.3105 109.862 52.5251 109.261 52.9272C108.659 53.3293 108.19 53.9006 107.914 54.5693C107.637 55.2378 107.564 55.9734 107.706 56.6831C107.847 57.3926 108.196 58.0444 108.707 58.5559C109.219 59.0674 109.871 59.4158 110.581 59.5566C111.291 59.6975 112.026 59.6248 112.695 59.3477C113.363 59.0706 113.934 58.6013 114.336 57.9995C114.738 57.3977 114.952 56.6902 114.951 55.9666C114.95 54.9971 114.564 54.0679 113.878 53.3826C113.192 52.6973 112.263 52.3118 111.293 52.3105Z" fill-rule="evenodd" fill="#4605AD"/>
		<path d="M163.301 94.0928L131.467 94.0928C131.418 94.0928 131.369 94.083 131.323 94.0642C131.278 94.0452 131.236 94.0176 131.201 93.9827C131.167 93.9478 131.139 93.9062 131.12 93.8606C131.101 93.8149 131.091 93.7661 131.091 93.7168L131.091 81.6287C131.091 81.5288 131.131 81.4331 131.201 81.3621C131.272 81.2913 131.367 81.2512 131.467 81.2507L163.301 81.2507C163.401 81.2512 163.497 81.2913 163.567 81.3621C163.638 81.4331 163.677 81.5288 163.677 81.6287L163.677 93.7148C163.678 93.7642 163.668 93.8135 163.649 93.8591C163.631 93.905 163.603 93.9468 163.568 93.9819C163.533 94.0171 163.491 94.0449 163.446 94.064C163.4 94.083 163.351 94.0928 163.301 94.0928ZM131.843 93.3408L162.925 93.3408L162.925 82.0068L131.843 82.0068L131.843 93.3408Z" fill-rule="evenodd" fill="#4605AD"/>
		<path d="M163.301 157.829L59.2854 157.829C59.1857 157.829 59.0901 157.789 59.0196 157.718C58.949 157.648 58.9094 157.552 58.9094 157.453L58.9094 153.405C58.9094 153.305 58.949 153.209 59.0196 153.139C59.0901 153.068 59.1857 153.029 59.2854 153.029L163.301 153.029C163.401 153.029 163.497 153.068 163.567 153.139C163.638 153.209 163.677 153.305 163.677 153.405L163.677 157.457C163.676 157.556 163.636 157.65 163.566 157.72C163.495 157.789 163.4 157.829 163.301 157.829ZM59.6614 157.077L162.925 157.077L162.925 153.777L59.6614 153.777L59.6614 157.077Z" fill-rule="evenodd" fill="#4605AD"/>
		<path d="M163.301 141.473L131.467 141.473C131.367 141.473 131.272 141.433 131.201 141.362C131.13 141.292 131.09 141.196 131.089 141.096L131.089 136.195C131.096 136.099 131.139 136.01 131.209 135.945C131.279 135.88 131.371 135.844 131.466 135.844C131.562 135.844 131.654 135.88 131.724 135.945C131.794 136.01 131.836 136.099 131.843 136.195L131.843 140.721L162.925 140.721L162.925 122.229C162.925 122.129 162.965 122.033 163.035 121.963C163.106 121.892 163.202 121.853 163.301 121.853C163.401 121.853 163.497 121.892 163.567 121.963C163.638 122.033 163.677 122.129 163.677 122.229L163.677 141.095C163.678 141.144 163.668 141.193 163.649 141.239C163.631 141.285 163.603 141.327 163.568 141.362C163.533 141.397 163.491 141.425 163.446 141.444C163.4 141.463 163.351 141.473 163.301 141.473Z" fill-rule="evenodd" fill="#4605AD"/>
		<path d="M152.089 104.075L135.373 104.075C135.274 104.075 135.178 104.035 135.107 103.964C135.037 103.894 134.997 103.798 134.997 103.699C134.997 103.599 135.037 103.503 135.107 103.433C135.178 103.362 135.274 103.323 135.373 103.323L152.089 103.323C152.189 103.323 152.285 103.362 152.355 103.433C152.426 103.503 152.465 103.599 152.465 103.699C152.465 103.798 152.426 103.894 152.355 103.964C152.285 104.035 152.189 104.075 152.089 104.075Z" fill-rule="evenodd" fill="#4605AD"/>
		<path d="M338.519 141.039L362.633 120.487L338.519 99.9326C338.443 99.8674 338.397 99.7751 338.389 99.6755C338.381 99.5759 338.413 99.4775 338.478 99.4016C338.543 99.3257 338.636 99.2788 338.735 99.2712C338.835 99.2634 338.933 99.2957 339.009 99.3606C365.225 121.689 363.589 120.217 363.589 120.487C363.589 120.757 365.249 119.247 339.009 141.613C338.932 141.671 338.836 141.697 338.74 141.687C338.645 141.677 338.556 141.63 338.494 141.557C338.431 141.483 338.399 141.389 338.404 141.292C338.408 141.196 338.45 141.105 338.519 141.039Z" fill-rule="evenodd" fill="#4605AD"/>
		<path d="M27.3074 141.007C27.0935 141.007 28.7575 142.347 2.61343 120.077C2.57208 120.041 2.53888 119.997 2.51611 119.948C2.49332 119.899 2.48154 119.845 2.48154 119.79C2.48154 119.736 2.49332 119.682 2.51611 119.633C2.53888 119.584 2.57208 119.54 2.61343 119.505L25.4315 100.055C25.5076 99.9897 25.6063 99.958 25.7058 99.9661C25.8054 99.9741 25.8977 100.021 25.9624 100.098C26.0272 100.174 26.059 100.272 26.0509 100.372C26.0429 100.471 25.9956 100.564 25.9194 100.629L3.43744 119.79L27.5515 140.345C27.6099 140.394 27.6517 140.461 27.6712 140.535C27.6906 140.61 27.6867 140.688 27.6602 140.761C27.6336 140.833 27.5855 140.895 27.5224 140.939C27.4594 140.983 27.3843 141.007 27.3074 141.007Z" fill-rule="evenodd" fill="#4605AD"/>
		<path d="M169.675 169.725L62.2755 169.725C62.2188 165.701 60.5909 161.858 57.7397 159.018C54.8884 156.178 51.0397 154.565 47.0155 154.525L47.0155 127.711C47.0155 127.611 46.9758 127.515 46.9053 127.445C46.8348 127.374 46.7392 127.335 46.6394 127.335C46.5397 127.335 46.4441 127.374 46.3736 127.445C46.303 127.515 46.2634 127.611 46.2634 127.711L46.2634 154.545C43.2991 154.664 40.4319 155.635 38.0044 157.34C35.5768 159.046 33.6915 161.414 32.5737 164.162C31.4559 166.91 31.1529 169.922 31.7008 172.838C32.2486 175.753 33.6243 178.45 35.6634 180.605L28.5294 187.749C28.2149 187.526 27.8301 187.426 27.4471 187.468C27.0642 187.509 26.7095 187.688 26.4494 187.973L11.7034 202.717C11.4017 203.036 11.2363 203.461 11.2426 203.901C11.2488 204.34 11.4261 204.76 11.7369 205.071C12.0476 205.382 12.4674 205.56 12.907 205.566C13.3466 205.573 13.7715 205.408 14.0914 205.107L28.8374 190.363C29.1225 190.103 29.3026 189.747 29.3439 189.364C29.3851 188.98 29.2847 188.595 29.0614 188.281L36.2055 181.137C38.3627 183.183 41.0649 184.564 43.9876 185.112C46.9103 185.66 49.9291 185.353 52.6815 184.227C55.4338 183.102 57.8026 181.205 59.5034 178.766C61.2043 176.327 62.1647 173.448 62.2694 170.477L169.669 170.477C169.769 170.477 169.865 170.438 169.936 170.369C170.007 170.299 170.048 170.203 170.048 170.104C170.049 170.004 170.01 169.908 169.94 169.837C169.87 169.766 169.775 169.725 169.675 169.725ZM36.4754 180.343C34.469 178.32 33.0934 175.758 32.5156 172.969C31.9378 170.179 32.1828 167.282 33.2209 164.629C34.259 161.976 36.0453 159.682 38.3629 158.025C40.6804 156.368 43.4293 155.42 46.2754 155.297C46.2754 164.647 46.1115 164.747 46.7994 166.415C47.3087 167.618 48.161 168.645 49.25 169.367C50.3391 170.09 51.6166 170.475 52.9234 170.477L61.5234 170.477C61.4197 173.333 60.4847 176.098 58.8331 178.431C57.1815 180.764 54.885 182.565 52.2253 183.612C49.5654 184.659 46.6578 184.908 43.8588 184.327C41.0598 183.746 38.4991 182.362 36.4754 180.343Z" fill-rule="evenodd" fill="#4605AD"/>
		<path d="M155.589 8.91064L139.225 8.91064C139.126 8.91064 139.03 8.87109 138.959 8.80054C138.889 8.72998 138.849 8.63452 138.849 8.53467C138.849 8.43506 138.889 8.33936 138.959 8.2688C139.03 8.19824 139.126 8.15869 139.225 8.15869L155.589 8.15869C155.689 8.15869 155.785 8.19824 155.855 8.2688C155.926 8.33936 155.965 8.43506 155.965 8.53467C155.965 8.63452 155.926 8.72998 155.855 8.80054C155.785 8.87109 155.689 8.91064 155.589 8.91064Z" fill-rule="evenodd" fill="#4605AD"/>
		<path d="M147.031 16.7146L147.031 0.350586C147.038 0.255371 147.081 0.16626 147.151 0.101074C147.221 0.0361328 147.313 0 147.408 0C147.504 0 147.596 0.0361328 147.666 0.101074C147.736 0.16626 147.778 0.255371 147.785 0.350586L147.785 16.7124C147.779 16.8079 147.736 16.897 147.666 16.9622C147.597 17.0273 147.505 17.0637 147.409 17.0642C147.314 17.0642 147.222 17.0283 147.152 16.9636C147.081 16.8987 147.039 16.8098 147.031 16.7146Z" fill-rule="evenodd" fill="#4605AD"/>
		<path d="M231.139 248.245C230.142 248.243 229.167 247.952 228.333 247.406C227.498 246.86 226.841 246.083 226.44 245.169C226.039 244.256 225.913 243.246 226.076 242.263C226.24 241.279 226.686 240.364 227.36 239.629C228.034 238.895 228.907 238.372 229.874 238.125C230.84 237.878 231.857 237.917 232.801 238.238C233.745 238.559 234.575 239.147 235.191 239.932C235.806 240.716 236.18 241.663 236.267 242.657C236.33 243.367 236.244 244.083 236.015 244.759C235.785 245.435 235.418 246.055 234.935 246.581C234.453 247.107 233.866 247.526 233.213 247.813C232.559 248.099 231.853 248.246 231.139 248.245ZM231.155 238.719C230.271 238.717 229.406 238.982 228.675 239.481C227.944 239.979 227.38 240.687 227.059 241.511C226.737 242.336 226.672 243.238 226.872 244.1C227.073 244.961 227.529 245.743 228.181 246.341C228.833 246.939 229.651 247.326 230.527 247.451C231.402 247.576 232.296 247.433 233.089 247.041C233.882 246.649 234.539 246.027 234.972 245.256C235.406 244.484 235.596 243.6 235.517 242.719C235.418 241.629 234.916 240.615 234.109 239.876C233.303 239.136 232.25 238.723 231.155 238.719Z" fill-rule="evenodd" fill="#4605AD"/>
		<path d="M289.513 131.647C289.529 131.83 289.509 132.016 289.454 132.192C289.398 132.368 289.309 132.531 289.19 132.672C289.072 132.814 288.926 132.931 288.763 133.016C288.599 133.101 288.42 133.153 288.236 133.17C288.052 133.186 287.867 133.165 287.691 133.11C287.515 133.055 287.352 132.965 287.21 132.846C287.069 132.728 286.952 132.583 286.867 132.419C286.782 132.255 286.729 132.076 286.713 131.893C286.681 131.521 286.797 131.152 287.036 130.867C287.276 130.581 287.619 130.402 287.99 130.37C288.362 130.337 288.731 130.453 289.016 130.693C289.302 130.932 289.481 131.275 289.513 131.647Z" fill-rule="evenodd" fill="#4605AD"/>
		<path d="M274.989 121.965C275.022 122.336 274.906 122.705 274.666 122.991C274.427 123.276 274.084 123.455 273.712 123.488C273.341 123.52 272.972 123.404 272.686 123.164C272.401 122.925 272.222 122.582 272.189 122.211C272.157 121.839 272.273 121.47 272.512 121.185C272.752 120.899 273.095 120.72 273.466 120.688C273.838 120.655 274.207 120.771 274.492 121.011C274.778 121.25 274.957 121.593 274.989 121.965Z" fill-rule="evenodd" fill="#4605AD"/>
		<path d="M288.103 110.729C288.136 111.1 288.02 111.469 287.78 111.754C287.541 112.04 287.198 112.219 286.826 112.252C286.455 112.284 286.086 112.168 285.8 111.928C285.515 111.689 285.336 111.346 285.303 110.975C285.287 110.791 285.307 110.605 285.363 110.429C285.418 110.253 285.508 110.09 285.626 109.949C285.745 109.807 285.89 109.69 286.054 109.605C286.218 109.52 286.396 109.468 286.58 109.452C286.764 109.435 286.949 109.456 287.125 109.511C287.301 109.566 287.465 109.656 287.606 109.775C287.748 109.893 287.864 110.038 287.95 110.202C288.035 110.366 288.087 110.545 288.103 110.729Z" fill-rule="evenodd" fill="#4605AD"/>
		<path d="M118.375 113.483L118.375 127.533L108.007 121.103C108.287 116.741 108.053 112.543 106.559 109.903C106.51 109.816 106.429 109.752 106.332 109.725C106.236 109.698 106.133 109.71 106.046 109.76C105.959 109.809 105.895 109.89 105.869 109.986C105.842 110.083 105.854 110.186 105.903 110.273C109.245 116.187 105.903 130.593 105.139 136.191C105.591 137.786 106.26 139.313 107.127 140.727L75.8575 140.727C77.0128 139.368 78.0601 137.921 78.9894 136.399C79.016 136.343 79.0284 136.283 79.0259 136.222C79.0236 136.161 79.0063 136.101 78.9755 136.049C76.3239 131.441 74.1556 126.572 72.5054 121.519C70.7795 115.999 71.5615 115.553 70.7994 115.543C70.4855 115.601 70.9395 114.981 65.8114 123.881C61.9295 125.249 57.9691 126.385 53.9515 127.281C50.4891 128.066 46.8632 127.665 43.6563 126.141C40.4495 124.618 37.8478 122.061 36.2694 118.881L20.7835 87.7808C22.8467 85.3628 25.4006 83.4111 28.2757 82.0557C31.1508 80.7002 34.2813 79.9717 37.4595 79.9187C51.7894 108.829 51.0595 107.747 51.5234 107.629C60.7589 104.974 69.7423 101.511 78.3696 97.2788C84.7316 100.407 92.2096 101.795 98.7836 98.9946C102.931 101.027 109.021 101.965 115.919 107.413C115.959 107.443 116.004 107.466 116.052 107.479C116.1 107.492 116.15 107.496 116.2 107.489C116.249 107.483 116.297 107.467 116.34 107.443C116.384 107.418 116.422 107.385 116.452 107.346C116.483 107.306 116.505 107.261 116.519 107.213C116.532 107.165 116.535 107.115 116.529 107.065C116.523 107.016 116.507 106.968 116.482 106.925C116.458 106.881 116.425 106.843 116.385 106.813C104.901 97.7427 95.7096 100.971 94.3055 91.8127C97.8885 91.5286 101.329 90.2852 104.265 88.2126C106.395 86.5759 108.092 84.4424 109.207 81.9988L112.465 81.9988C112.565 81.9988 112.661 81.959 112.731 81.8887C112.802 81.8181 112.841 81.7224 112.841 81.6226C112.841 81.5229 112.802 81.4272 112.731 81.3569C112.661 81.2864 112.565 81.2466 112.465 81.2466L109.525 81.2466C110.667 78.3738 110.981 75.2383 110.43 72.1963C109.88 69.1541 108.488 66.3271 106.412 64.0364C104.337 61.7454 101.66 60.0823 98.6871 59.2356C95.7137 58.3892 92.5627 58.3928 89.5915 59.2466C89.8725 57.4915 89.6197 55.6924 88.8658 54.0828C88.1119 52.4729 86.8917 51.1267 85.3635 50.2188C83.8353 49.311 82.0695 48.8831 80.2953 48.991C78.5209 49.0986 76.82 49.7371 75.413 50.8232C74.0059 51.9094 72.9576 53.3933 72.4041 55.0825C71.8506 56.7715 71.8173 58.5881 72.3085 60.2964C72.7999 62.0046 73.7932 63.5259 75.1595 64.6628C76.5259 65.7998 78.2024 66.5 79.9714 66.6726C78.6811 68.8518 77.9063 71.2974 77.7066 73.8223C77.507 76.3469 77.8876 78.8838 78.8195 81.2388L59.2854 81.2388C59.1857 81.2388 59.0901 81.2783 59.0196 81.3489C58.9491 81.4194 58.9094 81.5149 58.9094 81.6147L58.9094 104.473C56.6155 105.251 54.1935 106.029 51.6174 106.817C37.1174 77.5386 38.0555 79.2166 37.7514 79.1506C36.591 79.1548 35.4325 79.2451 34.2854 79.4207C32.0976 75.8508 30.2821 72.0657 28.8674 68.1248C27.6675 64.4985 26.9414 64.1006 26.3995 64.2046C25.4874 64.3687 25.4494 66.2527 25.4754 67.0547C25.5214 68.4026 26.4574 72.3328 25.8514 72.7466C25.7814 72.7947 25.5855 72.7747 25.2514 72.5828C19.7594 68.6907 13.7474 64.6667 12.7374 64.1147C9.28345 62.2207 8.48544 62.5447 8.18744 62.9546C8.05344 63.1367 7.71344 63.6006 8.94144 65.1445C2.85745 61.3447 1.89944 62.9966 2.76944 64.3748C0.879425 64.0107 0.239441 64.3748 0.0534363 64.8027C-0.012146 64.9612 -0.0174255 65.1382 0.0385742 65.3003C0.094574 65.4624 0.208008 65.5984 0.357452 65.6826C2.38144 66.9746 5.66345 68.5208 7.58344 69.6267C8.64343 70.2388 12.8194 72.8625 13.8194 73.6025C19.9274 78.8848 19.7095 78.9207 22.3615 85.1106C21.53 85.864 20.7433 86.6655 20.0054 87.5107C19.9574 87.7107 19.8915 87.6768 20.0054 87.8787L35.6054 119.193C37.2558 122.526 39.9797 125.208 43.339 126.807C46.6982 128.405 50.4974 128.827 54.1254 128.005C55.7495 127.639 57.3594 127.241 58.9255 126.815L58.9255 141.097C58.9255 141.196 58.9651 141.292 59.0356 141.362C59.1061 141.433 59.2017 141.473 59.3015 141.473L118.751 141.473C118.851 141.473 118.947 141.433 119.017 141.362C119.088 141.292 119.127 141.196 119.127 141.097L119.127 113.483C119.127 113.383 119.088 113.287 119.017 113.217C118.947 113.146 118.851 113.107 118.751 113.107C118.652 113.107 118.556 113.146 118.485 113.217C118.415 113.287 118.375 113.383 118.375 113.483ZM89.6376 79.5166C87.5755 77.1726 89.3696 74.8328 90.7595 77.6426C91.0755 78.2808 91.4575 78.3787 91.7175 78.3447C92.6435 78.2366 93.3315 76.1448 93.7175 74.6448C96.0152 75.6038 98.441 76.2209 100.917 76.4766C100.703 83.4766 98.9516 92.1086 94.0575 87.1367C92.3456 85.3906 92.3536 84.5227 91.8176 84.6248C91.744 84.6399 91.6767 84.6768 91.6243 84.7307C91.5719 84.7844 91.5367 84.8528 91.5235 84.9268C91.3396 86.1196 91.4236 87.3389 91.7697 88.4951C92.1156 89.6516 92.7147 90.7168 93.5235 91.6128C93.6059 93.0459 94.0533 94.4343 94.8235 95.6458C95.5936 96.8574 96.6608 97.8518 97.9235 98.5347C92.5116 100.613 85.9235 100.023 79.2155 96.8486C82.6489 95.5232 85.4634 92.9634 87.1075 89.6707C89.3895 85.4067 90.2115 80.1787 89.6376 79.5166ZM59.6614 82.0046L79.1395 82.0046C80.6576 85.2314 83.1454 87.9038 86.2555 89.6487C83.9395 93.8027 81.8935 94.6248 78.1755 96.5347C72.1992 99.542 66.0114 102.109 59.6614 104.217L59.6614 82.0046ZM26.5054 64.9468C26.5274 64.9468 27.0794 65.1326 28.1535 68.3606C29.341 71.7288 30.8423 74.9775 32.6375 78.0647C31.0635 76.7947 28.7795 75.1067 26.3114 73.3406C27.4395 72.4907 26.2875 68.7947 26.2275 67.0308C26.1518 66.3237 26.2471 65.6091 26.5054 64.9468ZM0.727448 65.1206C0.827454 65.0027 1.58145 64.7927 3.67343 65.3606C4.53543 66.0828 7.95944 68.4426 9.95145 70.1946C5.98944 67.7188 4.80743 67.4087 0.727448 65.1206ZM13.5155 72.3547C10.6628 69.6675 7.61221 67.1985 4.38943 64.9688C3.47543 64.2808 3.19943 63.6965 3.23343 63.5686C3.98343 63.1248 8.15744 65.2288 11.4775 67.7847C13.7343 70.0356 15.7505 72.5159 17.4934 75.1846C17.7988 75.698 18.1054 76.2354 18.4135 76.7966C16.9515 75.3086 15.1254 73.7388 13.5155 72.3547ZM18.1415 74.8008C16.1571 71.7891 13.8435 69.0081 11.2434 66.5085C9.10144 64.4626 8.75143 63.5566 8.77344 63.4126C8.77344 63.4126 9.33743 63.1106 12.3735 64.7747C14.0035 65.6667 29.3554 76.0967 33.2935 79.5928C29.4741 80.3406 25.913 82.063 22.9555 84.5928C21.5388 81.2395 19.9315 77.9702 18.1415 74.8008ZM74.8235 140.721L59.6614 140.721L59.6614 126.609C63.8661 125.484 67.9649 123.996 71.9114 122.161C73.5433 127.051 75.6528 131.768 78.2095 136.245C77.2133 137.832 76.0804 139.33 74.8235 140.721ZM118.375 140.721L108.005 140.721C107.132 139.301 106.424 137.785 105.895 136.205C106.319 133.165 107.495 127.547 107.945 121.951L118.375 128.429L118.375 140.721Z" fill-rule="evenodd" fill="#4605AD"/>
		<path d="M379.821 51.0088C379.633 50.7888 379.055 50.1128 375.601 52.5347C374.435 53.3516 373.207 54.0769 371.929 54.7048C372.685 53.7966 373.875 52.3286 375.759 49.9707C376.559 48.9707 378.293 46.5708 377.397 45.7368C376.759 45.1367 375.349 45.8267 373.207 47.7766C372.18 48.7178 371.106 49.6062 369.989 50.4387C371.069 48.7126 372.683 46.0566 373.921 43.6826C374.569 42.4368 375.521 40.2527 374.543 39.6228C373.525 38.9626 371.743 40.9067 370.777 42.1267C370.539 42.4248 368.125 45.2766 365.667 48.1707C366.047 46.5852 366.567 45.0366 367.219 43.5427C368.135 41.4187 368.219 39.9106 367.453 39.5107C366.687 39.1106 365.453 40.0986 364.089 42.3347C363.849 42.7346 359.967 48.9646 359.257 49.7927C358.221 51.0088 357.555 51.3428 357.363 51.2747C355.051 50.4268 352.363 44.6367 349.951 45.7747C348.151 46.6187 350.775 50.7747 351.887 53.1428C352.06 54.0349 351.979 54.9578 351.653 55.8062C351.327 56.6548 350.77 57.395 350.045 57.9426C350.013 57.9648 349.805 58.1428 349.483 58.4167C348.974 58.0352 348.365 57.8105 347.73 57.7708C347.095 57.731 346.462 57.8777 345.909 58.1926C345.581 58.4507 322.309 76.8806 307.709 88.0789L307.709 82.0647C307.709 81.9651 307.67 81.8694 307.599 81.7988C307.529 81.7283 307.433 81.6887 307.333 81.6887L301.655 81.6887C301.709 81.1589 301.638 80.624 301.449 80.1262C301.26 79.6284 300.957 79.1814 300.565 78.8208C301.07 78.5471 301.499 78.1528 301.815 77.6733C302.131 77.1938 302.324 76.6438 302.376 76.072C302.428 75.5002 302.338 74.9243 302.115 74.3958C301.891 73.8669 301.54 73.4014 301.093 73.0408C301.418 72.6399 301.62 72.1538 301.675 71.6406C302.19 72.0476 302.835 72.2527 303.491 72.2178C304.146 72.1829 304.766 71.9102 305.234 71.4509C305.703 70.9919 305.988 70.3774 306.036 69.7231C306.084 69.0688 305.892 68.4194 305.495 67.8967C306.152 67.8274 306.76 67.519 307.205 67.0305C307.649 66.542 307.898 65.9072 307.905 65.2468C307.911 64.5864 307.675 63.9468 307.241 63.4492C306.806 62.9519 306.205 62.6313 305.549 62.5488C305.966 62.0383 306.181 61.3933 306.154 60.7354C306.127 60.0774 305.861 59.4517 305.405 58.9768C304.948 58.5017 304.334 58.2102 303.678 58.1572C303.021 58.1042 302.368 58.2932 301.841 58.6887C301.742 58.0278 301.41 57.4238 300.905 56.9863C300.4 56.5488 299.755 56.3066 299.086 56.3032C298.418 56.2998 297.77 56.5356 297.261 56.968C296.751 57.4004 296.413 58.0007 296.307 58.6606C295.786 58.2671 295.14 58.0762 294.488 58.123C293.837 58.1702 293.225 58.4519 292.766 58.9163C292.306 59.3806 292.031 59.9961 291.992 60.6479C291.952 61.2998 292.15 61.9441 292.549 62.4607C292.148 62.4968 291.761 62.6267 291.42 62.8401C291.078 63.0535 290.792 63.3442 290.583 63.6887C290.214 63.1667 289.713 62.7515 289.131 62.4849C288.55 62.2185 287.908 62.1101 287.272 62.1711C286.635 62.2319 286.025 62.4597 285.505 62.8315C284.984 63.2034 284.571 63.7061 284.307 64.2888C283.79 63.8684 283.161 63.6067 282.499 63.5347C281.836 63.4624 281.166 63.5835 280.57 63.8826C279.974 64.1819 279.477 64.6467 279.139 65.2214C278.801 65.7964 278.636 66.4565 278.663 67.1228C278.012 67.0168 277.344 67.0999 276.739 67.3621C276.134 67.6243 275.616 68.0544 275.248 68.6016C274.879 69.1489 274.676 69.7903 274.661 70.45C274.646 71.1094 274.82 71.7593 275.163 72.3228C274.512 72.521 273.934 72.9067 273.501 73.4314C273.068 73.9561 272.798 74.5967 272.727 75.2734C272.655 75.95 272.784 76.6328 273.098 77.2366C273.412 77.8403 273.896 78.3386 274.491 78.6687C274.077 79.0439 273.761 79.5142 273.569 80.0388C273.377 80.5635 273.315 81.127 273.389 81.6807L247.849 81.6807C247.75 81.6807 247.654 81.7205 247.583 81.7908C247.513 81.8613 247.473 81.957 247.473 82.0566L247.473 141.531C247.473 141.63 247.513 141.726 247.583 141.796C247.654 141.867 247.75 141.907 247.849 141.907L307.317 141.907C307.417 141.907 307.513 141.867 307.583 141.796C307.654 141.726 307.693 141.63 307.693 141.531L307.693 116.571L359.041 76.2288C360.413 75.2288 360.121 73.1748 359.615 71.5588C367.379 65.0308 369.395 62.7307 375.415 57.1787C376.171 56.4827 376.973 55.6948 377.799 54.8386C379.657 52.8967 380.337 51.6106 379.821 51.0088ZM293.675 88.8867C294.276 89.1572 294.942 89.2495 295.594 89.1533C296.246 89.0569 296.857 88.7756 297.354 88.343C297.851 87.9104 298.213 87.3442 298.399 86.7119C298.584 86.0796 298.584 85.4072 298.399 84.7747C299.088 84.7422 299.751 84.5017 300.301 84.0852C300.851 83.6685 301.262 83.0952 301.479 82.4407L306.939 82.4407L306.939 88.6528C301.497 92.8188 297.387 95.8728 296.361 96.4128C290.427 99.5247 286.961 97.4749 286.121 91.3308C286.649 91.0769 287.104 90.6938 287.443 90.2168C287.834 90.7727 288.379 91.2017 289.011 91.45C289.644 91.6982 290.335 91.7549 290.999 91.613C291.664 91.4714 292.272 91.1375 292.747 90.6526C293.223 90.1677 293.546 89.5537 293.675 88.8867ZM274.543 82.9229C275.019 80.7468 276.061 76.5828 278.165 75.8247C280.021 75.1548 281.827 77.6448 282.617 79.4526C282.912 80.1284 283.125 80.8367 283.251 81.5627C283.519 82.3887 284.089 82.5408 284.651 82.2026C285.009 81.9583 285.329 81.6616 285.599 81.3228C287.399 79.2227 289.599 82.6667 285.809 85.5667C285.265 85.9788 285.221 88.3147 285.221 89.0007C285.221 92.2947 286.087 96.4907 289.021 98.0168C284.555 106.583 280.559 109.895 277.555 100.793C278.444 99.9387 279.142 98.9072 279.606 97.7651C280.069 96.623 280.286 95.3962 280.243 94.1648L281.793 92.0828C281.829 92.0239 281.847 91.9568 281.846 91.8884C281.846 91.8198 281.826 91.7529 281.79 91.6948C281.754 91.6367 281.702 91.5898 281.641 91.5591C281.58 91.5283 281.512 91.5151 281.443 91.5208C281.243 91.5527 281.043 91.7207 280.291 91.9827C273.989 94.2668 273.117 89.4287 274.543 82.9229ZM248.227 82.4407L273.567 82.4407C273.627 82.5977 273.698 82.7498 273.779 82.8967C272.475 89.1208 273.197 94.6208 279.379 93.0469C279.603 94.3855 279.489 95.759 279.048 97.0425C278.606 98.3259 277.851 99.479 276.851 100.397C273.263 104.283 264.997 100.731 248.221 126.317L248.227 82.4407ZM259.009 141.155C262.053 138.171 264.747 134.851 267.039 131.259C267.783 133.775 269.079 137.699 270.393 141.155L259.009 141.155ZM267.539 130.277C264.473 119.531 266.119 117.541 268.221 113.111C268.264 113.02 268.269 112.917 268.235 112.823C268.201 112.729 268.131 112.652 268.04 112.61C267.95 112.567 267.846 112.562 267.752 112.596C267.658 112.63 267.582 112.7 267.539 112.791C265.397 117.357 263.669 119.369 266.763 130.301C264.286 134.279 261.312 137.927 257.913 141.155L248.227 141.155L248.227 127.697C264.427 102.615 272.299 104.995 276.925 101.327C277.975 104.397 279.201 106.193 280.649 106.771C278.545 116.235 278.941 127.697 281.745 141.155L271.189 141.155C269.725 137.285 268.329 133.049 267.539 130.277ZM306.939 141.155L300.073 141.155C300.069 134.434 300.683 127.727 301.905 121.119L306.939 117.163L306.939 141.155ZM358.589 75.6167L308.317 115.123C301.945 116.229 302.273 116.113 302.129 116.313C301.975 116.579 301.241 120.571 301.191 120.841C299.94 127.538 299.314 134.337 299.321 141.151L282.521 141.151C279.741 127.803 279.303 116.313 281.377 106.951C284.749 107.393 288.123 101.333 289.699 98.3047C290.892 98.5703 292.125 98.5979 293.328 98.3862C294.531 98.1746 295.681 97.7275 296.711 97.0708C300.545 95.0566 344.511 60.2527 346.363 58.7766C349.977 56.0288 362.403 72.8467 358.589 75.6167ZM377.253 54.3108C375.317 56.3108 375.411 56.0786 370.171 61.0608C367.153 63.9307 364.537 66.4207 359.347 70.7908C357.406 66.0508 354.229 61.918 350.147 58.8228C350.319 58.6748 350.431 58.5786 350.473 58.5466C351.344 57.9026 352.005 57.0164 352.374 55.9988C352.744 54.9812 352.805 53.8772 352.551 52.8247C352.021 51.6948 349.333 46.8928 350.257 46.4546C351.875 45.6907 354.721 51.1147 357.089 51.9807C357.331 52.0686 358.061 52.3367 359.813 50.2808C360.595 49.3687 364.677 42.7866 364.715 42.7246C366.167 40.3567 366.989 40.1248 367.091 40.1787C367.247 40.2607 367.407 41.1787 366.511 43.2466C365.638 45.1863 365.018 47.2305 364.667 49.3286L363.749 50.4148C363.251 50.0667 362.715 49.7268 362.131 49.3928C362.045 49.3467 361.944 49.3359 361.85 49.363C361.756 49.3901 361.677 49.4526 361.628 49.5374C361.579 49.6221 361.566 49.7224 361.59 49.8171C361.614 49.9119 361.674 49.9934 361.757 50.0447C364.941 51.7429 367.424 54.509 368.769 57.8567C368.811 57.9478 368.887 58.0186 368.98 58.0537C369.074 58.0886 369.177 58.0852 369.268 58.0437C369.359 58.0024 369.43 57.9265 369.465 57.833C369.5 57.7395 369.497 57.6357 369.455 57.5447C368.373 54.9089 366.616 52.6042 364.361 50.8628C364.887 50.2627 371.171 42.8208 371.349 42.5928C373.149 40.3386 374.017 40.1926 374.117 40.2527C374.217 40.3127 374.413 41.0808 373.237 43.3367C371.479 46.7087 368.869 50.7847 368.349 51.5908C368.302 51.6628 368.281 51.7488 368.29 51.8345C368.299 51.9202 368.337 52 368.397 52.0613C368.458 52.1223 368.538 52.1609 368.623 52.1702C368.709 52.1794 368.795 52.1594 368.867 52.1128C370.582 50.9897 372.2 49.7253 373.703 48.3328C375.811 46.4148 376.725 46.2126 376.869 46.2808C376.945 46.3987 376.869 47.3428 375.161 49.5027C374.039 50.9028 370.631 55.1868 370.241 55.4746C370.164 55.5276 370.11 55.6069 370.088 55.6978C370.067 55.7883 370.08 55.884 370.124 55.9658C370.169 56.0474 370.243 56.1096 370.331 56.1401C370.419 56.1707 370.516 56.1672 370.601 56.1306C372.51 55.335 374.328 54.3359 376.023 53.1506C378.223 51.6128 379.109 51.4526 379.223 51.4746C379.277 51.6287 379.001 52.4888 377.253 54.3108Z" fill-rule="evenodd" fill="#4605AD"/>
		<path d="M360.735 53.0127C362.879 56.7927 362.689 60.0027 360.171 62.5586C360.107 62.6306 360.073 62.7244 360.076 62.8206C360.08 62.9167 360.119 63.0083 360.188 63.0759C360.256 63.1436 360.348 63.1826 360.444 63.1846C360.541 63.1865 360.634 63.1514 360.705 63.0867C363.489 60.2627 363.719 56.7485 361.389 52.6406C361.34 52.554 361.258 52.4902 361.162 52.4639C361.066 52.4375 360.963 52.4504 360.876 52.4995C360.79 52.5491 360.726 52.6306 360.7 52.7268C360.673 52.8232 360.686 52.926 360.735 53.0127Z" fill-rule="evenodd" fill="#4605AD"/>
		<path d="M189.151 90.9885C185.459 94.4604 179.977 94.0347 173.469 91.3706C175.649 90.8167 175.069 85.1584 175.337 82.7346C172.453 85.3645 169.449 87.4365 168.465 85.7805C167.465 84.0886 167.441 80.3425 168.941 70.3005C169.89 70.812 170.886 71.2305 171.915 71.5505C171.535 75.4285 172.869 75.6484 173.645 74.2866C175.087 71.7524 177.967 73.8167 175.163 77.7085C176.591 79.2004 182.545 85.5085 183.511 86.5505C185.019 88.4497 186.951 89.9695 189.151 90.9885Z" fill-rule="evenodd" fill="#FFD0C7"/>
		<path d="M280.097 187.333C275.601 187.079 271.877 194.783 270.485 199.733C269.443 203.18 269.117 206.804 269.527 210.383C269.943 213.115 271.019 215.019 272.663 215.485L231.617 204.131C228.593 203.296 225.787 201.814 223.393 199.786L195.353 176.035C193.593 195.759 182.387 282.115 182.387 282.115C173.332 284.503 163.737 283.799 155.127 280.115C156.659 265.294 164.611 180.807 171.061 139.031C169.577 136.751 166.947 125.742 165.439 119.044C173.163 123.375 165.151 93.6567 165.093 93.4448C166.493 93.0447 168.067 92.6729 169.945 92.2207C171.321 96.1213 172.343 100.137 172.999 104.221L194.337 103.639C193.61 99.5498 192.568 95.5229 191.219 91.5947C193.104 92.1084 194.911 92.874 196.591 93.8706C196.709 93.9607 198.857 96.3328 200.089 103.733C200.636 107.103 200.8 110.525 200.577 113.932C200.035 121.071 200.116 128.244 200.819 135.369C209.207 139.155 213.865 147.835 217.419 155.153C222.203 165.039 234.167 176.013 234.167 176.013C284.507 188.413 279.897 187.323 280.097 187.333Z" fill-rule="evenodd" fill="#FFD0C7"/>
		<path d="M130.589 97.4446C125.514 98.1355 120.692 100.087 116.565 103.123C116.318 100.064 115.544 97.0718 114.277 94.2766C110.241 93.7808 108.463 88.7446 109.497 86.9006C109.735 86.5037 110.119 86.2161 110.567 86.1006C110.278 85.3354 110.248 84.4963 110.483 83.7126C110.667 83.4189 110.927 83.1804 111.236 83.0225C111.544 82.8647 111.89 82.7937 112.235 82.8167C112.233 82.4124 112.311 82.0117 112.467 81.6387C113.067 80.3486 115.885 80.3767 118.607 82.1946C114.675 74.7466 115.535 69.5586 116.269 71.1086C118.744 75.7102 121.465 80.1748 124.421 84.4827C124.533 83.3367 124.847 81.3887 125.675 81.2366C126.611 81.0647 129.427 92.4526 130.589 97.4446Z" fill-rule="evenodd" fill="#FFD0C7"/>
		<path d="M260.483 167.855C258.895 167.249 257.351 166.534 255.861 165.717C257.553 167.457 259.337 169.104 261.205 170.653C263.677 172.319 262.445 173.853 259.377 172.463C257.468 171.521 255.62 170.459 253.845 169.283C255.279 170.971 256.565 172.611 257.177 173.163C259.387 175.147 257.977 176.539 255.157 174.763C253.508 173.673 251.931 172.479 250.433 171.189C250.879 172.086 251.398 172.945 251.983 173.759C253.899 175.923 252.685 176.773 250.043 174.875C244.933 170.992 240.089 166.772 235.541 162.243C240.774 160.005 244.994 155.912 247.391 150.751C249.517 152.418 251.96 153.635 254.571 154.329C262.503 156.349 261.625 158.597 252.099 158.087C255.063 161.07 258.38 163.681 261.975 165.863C264.483 167.479 263.677 169.029 260.483 167.855Z" fill-rule="evenodd" fill="#FFD0C7"/>
		<path d="M360.131 309.659L179.389 309.659C179.48 305.196 178.79 300.751 177.349 296.527C176.981 295.424 177.135 296.365 178.483 283.273C179.773 283.073 181.115 282.809 182.483 282.489C182.558 282.471 182.625 282.431 182.677 282.374C182.728 282.318 182.761 282.246 182.771 282.171C182.881 281.316 193.735 197.604 195.673 176.797L223.163 200.081C225.599 202.14 228.452 203.648 231.525 204.501L272.525 215.839C273.451 215.981 274.398 215.876 275.27 215.535C276.142 215.193 276.907 214.626 277.489 213.893C279.013 216.025 280.054 218.465 280.539 221.041C282.193 226.779 282.701 233.907 285.739 237.001C288.243 239.559 290.683 238.923 292.755 236.109C296.483 231.045 298.937 219.231 299.439 210.009C300.025 199.208 298.099 192.731 294.307 192.409C292.707 192.273 288.285 191.427 283.575 190.375C283.391 189.547 282.976 188.789 282.378 188.187C281.781 187.585 281.025 187.165 280.199 186.974L234.367 175.712C233.381 174.794 222.285 164.346 217.767 155.033C214.079 147.417 209.451 138.987 201.179 135.156C200.755 131.547 200.569 127.913 200.621 124.279C210.661 139.801 220.487 150.341 233.917 163.13C233.987 163.197 234.081 163.235 234.177 163.234C234.623 163.087 235.058 162.908 235.479 162.701C239.984 167.176 244.781 171.346 249.839 175.185C250.693 175.798 252.399 176.803 253.105 176.027C253.369 175.733 253.611 175.026 252.279 173.514C252.08 173.275 251.902 173.018 251.749 172.747C252.783 173.582 253.859 174.363 254.973 175.087C258.349 177.221 259.871 175.073 257.445 172.887C256.815 172.242 256.218 171.564 255.659 170.857C256.816 171.572 258.01 172.224 259.237 172.811C260.951 173.592 262.347 173.583 262.793 172.786C263.181 172.095 262.671 171.186 261.431 170.346C260.195 169.365 259.021 168.306 257.917 167.177C259.455 167.897 262.985 169.551 263.749 168.031C264.099 167.331 263.519 166.401 262.195 165.547C258.9 163.544 255.836 161.183 253.059 158.507C256.459 158.63 260.113 158.439 260.325 157.055C260.487 155.999 258.587 154.961 254.681 153.965C252.217 153.312 249.906 152.179 247.881 150.63C248.039 150.271 248.191 149.905 248.331 149.531C248.359 149.46 248.364 149.382 248.346 149.308C248.328 149.234 248.288 149.167 248.231 149.117C236.813 138.773 226.497 127.275 217.447 114.807C210.189 105.279 202.189 94.2485 190.941 91.1545C188.593 90.5085 187.013 89.9165 183.789 86.2947C179.389 81.3606 185.825 70.6946 189.247 65.1406C191.341 61.7405 188.505 60.0286 186.277 61.8567C185.863 60.6565 183.819 60.1265 182.117 61.6565C181.603 60.5066 179.439 60.0945 177.895 61.8687C177.251 60.7646 175.169 60.4685 173.589 62.5706C172.807 61.3906 170.315 61.9087 169.637 64.7705C169.211 66.5706 168.851 68.5125 168.569 70.2485C166.817 81.0486 167.197 84.3066 168.133 85.9666C168.239 86.1565 168.363 86.3362 168.503 86.5027C169.441 87.6086 173.331 87.3225 174.787 87.1826C174.669 89.0286 174.351 90.7666 173.387 91.0127C158.023 94.9087 158.893 92.9265 142.833 116.047C138.758 110.254 135.525 103.912 133.233 97.2107C133.208 97.1313 133.157 97.063 133.089 97.0159C133.02 96.9688 132.938 96.9458 132.855 96.9507L130.885 97.0586C127.061 80.6086 126.009 80.8005 125.607 80.8726C124.923 80.9985 124.443 81.8726 124.179 83.4446C121.349 79.4441 118.81 75.2461 116.579 70.8826C116.277 70.2825 115.767 70.4065 115.551 70.7405C115.031 71.5405 114.999 75.6045 117.707 81.2405C116.409 80.5 114.891 80.2375 113.419 80.4985C112.974 80.6008 112.578 80.8538 112.298 81.2146C112.017 81.5752 111.87 82.022 111.881 82.4785C110.045 82.7285 109.653 84.0686 110.113 85.8787C107.295 87.1807 109.399 93.8787 114.021 94.6287C115.198 97.2649 115.927 100.079 116.179 102.954C115.743 103.276 115.321 103.605 114.917 103.939C114.86 103.986 114.818 104.049 114.797 104.12C114.776 104.192 114.776 104.267 114.797 104.339C118.562 115.12 123.656 125.39 129.959 134.913C134.517 141.533 144.729 143.513 150.713 137.887C156.291 132.558 161.184 126.556 165.279 120.018C166.789 126.669 169.215 136.659 170.679 139.126C164.223 181.01 156.293 265.281 154.767 280.093C154.759 280.172 154.776 280.252 154.816 280.321C154.856 280.39 154.916 280.444 154.989 280.477C156.295 281.051 157.63 281.555 158.989 281.987L158.425 286.817C158.149 289.227 157.25 291.523 155.816 293.48C154.382 295.436 152.462 296.986 150.247 297.975C144.271 300.648 138.632 304.02 133.447 308.019C133.206 308.208 133.039 308.475 132.972 308.775C132.906 309.074 132.945 309.387 133.083 309.661L19.8494 309.661C19.5094 309.661 19.1274 310.26 19.9314 310.323C24.3814 310.618 62.2915 310.413 360.131 310.413C360.231 310.413 360.327 310.373 360.398 310.302C360.469 310.231 360.508 310.135 360.508 310.036C360.508 309.936 360.469 309.84 360.398 309.769C360.327 309.698 360.231 309.659 360.131 309.659ZM277.743 213.083C276.906 212.267 275.873 211.68 274.743 211.379C273.155 210.817 271.526 210.38 269.869 210.073C268.947 203.431 272.069 193.523 276.453 189.375C281.095 190.613 286.789 191.975 292.563 192.919C286.147 197.119 281.819 225.853 285.345 235.263C282.271 230.267 282.047 217.407 277.743 213.083ZM259.565 156.936C259.529 157.178 258.165 158.01 252.265 157.712C251.733 157.163 251.189 156.562 250.647 155.928C250.582 155.855 250.49 155.809 250.392 155.802C250.294 155.796 250.197 155.828 250.122 155.892C250.047 155.955 250 156.046 249.991 156.145C249.982 156.243 250.013 156.34 250.075 156.417C256.803 164.286 263.675 166.457 263.059 167.689C262.961 167.889 262.233 168.101 260.615 167.503C257.759 166.379 255.029 164.956 252.471 163.259C252.388 163.204 252.286 163.184 252.189 163.204C252.091 163.224 252.005 163.282 251.95 163.366C251.895 163.449 251.876 163.55 251.896 163.648C251.916 163.746 251.974 163.832 252.057 163.887C252.681 164.297 253.971 165.121 255.635 166.023C257.333 167.764 259.122 169.414 260.995 170.965C262.019 171.655 262.229 172.219 262.119 172.415C261.961 172.699 261.029 172.801 259.533 172.121C256.049 170.3 252.706 168.22 249.533 165.898C249.453 165.852 249.359 165.836 249.268 165.854C249.177 165.873 249.096 165.924 249.041 165.998C248.986 166.073 248.96 166.165 248.969 166.257C248.977 166.35 249.019 166.436 249.087 166.499C249.961 167.141 251.743 168.371 253.601 169.562C255.087 171.315 256.299 172.867 256.931 173.435C257.857 174.267 257.983 174.867 257.845 175.049C257.645 175.307 256.725 175.29 255.365 174.432C252.527 172.496 249.858 170.321 247.387 167.932C247.316 167.863 247.22 167.824 247.12 167.825C247.02 167.826 246.925 167.867 246.855 167.939C246.786 168.01 246.747 168.106 246.748 168.206C246.749 168.306 246.79 168.401 246.861 168.471C247.495 169.093 248.685 170.189 250.139 171.413C250.589 172.316 251.114 173.18 251.707 173.997C252.593 174.997 252.575 175.458 252.537 175.503C252.453 175.596 251.709 175.591 250.267 174.557C245.314 170.797 240.612 166.716 236.193 162.341C241.138 160.092 245.149 156.196 247.541 151.319C249.617 152.879 251.975 154.021 254.485 154.682C258.745 155.775 259.601 156.698 259.565 156.936ZM247.511 149.499C246.301 152.443 244.499 155.108 242.217 157.329C239.934 159.549 237.221 161.276 234.243 162.405C220.669 149.466 210.791 138.816 200.617 122.895C200.735 113.695 201.595 110.535 200.459 103.695C200.066 100.705 199.188 97.8008 197.859 95.0945C212.609 104.507 219.451 124.359 247.511 149.499ZM190.925 91.9307C192.184 95.647 193.186 99.4453 193.925 103.299L173.343 103.861C172.688 100 171.715 96.2007 170.433 92.5005C171.469 92.2527 172.493 92.0066 173.447 91.7646C178.751 93.9207 184.957 95.2627 189.247 91.4226C189.895 91.6606 190.643 91.8506 190.925 91.9307ZM175.711 82.7766C175.72 82.7007 175.705 82.6243 175.669 82.5569C175.632 82.49 175.577 82.4353 175.509 82.4006C175.441 82.366 175.364 82.3528 175.288 82.3628C175.213 82.3728 175.142 82.4053 175.085 82.4565C173.723 83.6965 169.817 87.1326 168.791 85.5945C167.815 83.8525 167.935 79.7085 169.235 70.8787C169.972 71.2427 170.733 71.5554 171.513 71.8147C171.451 72.4729 171.458 73.1357 171.533 73.7925C171.819 75.8025 173.175 75.8726 173.971 74.4727C175.207 72.3047 177.247 74.1765 174.857 77.4885C174.806 77.5598 174.781 77.647 174.787 77.7346C174.801 77.9346 174.913 77.9966 175.561 78.6646C176.949 80.0925 178.383 81.5127 179.813 82.8645C182.089 85.6086 185.521 89.7207 188.455 91.0925C185.299 93.6926 180.655 93.7585 174.329 91.2925C175.921 89.7986 175.473 85.1626 175.711 82.7766ZM110.257 90.8125C109.507 89.3325 109.035 86.9465 110.657 86.4607C111.989 86.0605 114.375 86.7627 116.703 89.2107C116.773 89.2773 116.866 89.3147 116.963 89.3147C117.059 89.3149 117.152 89.2778 117.222 89.2112C117.292 89.1445 117.334 89.0535 117.339 88.9568C117.343 88.8604 117.311 88.7656 117.247 88.6926C116.483 87.7241 115.504 86.946 114.388 86.4192C113.272 85.8926 112.049 85.6313 110.815 85.6565C110.641 85.074 110.641 84.4531 110.815 83.8706C110.973 83.6418 111.187 83.4585 111.438 83.3391C111.689 83.2197 111.967 83.1685 112.243 83.1907C113.444 83.2561 114.618 83.573 115.689 84.1211C116.759 84.6694 117.702 85.4363 118.457 86.3726C118.49 86.4094 118.53 86.4397 118.575 86.4609C118.619 86.4824 118.668 86.4949 118.717 86.4978C118.767 86.5005 118.816 86.4937 118.863 86.4773C118.909 86.4609 118.952 86.4355 118.989 86.4026C119.026 86.3696 119.056 86.3296 119.078 86.2852C119.099 86.2405 119.112 86.1921 119.115 86.1428C119.117 86.0935 119.11 86.0439 119.094 85.9973C119.078 85.9504 119.052 85.9075 119.019 85.8706C117.419 83.9319 115.12 82.6997 112.619 82.4407C112.608 82.1528 112.701 81.8708 112.88 81.6458C113.06 81.4207 113.314 81.2676 113.597 81.2146C115.299 81.0137 117.014 81.4766 118.383 82.5066C119.139 83.0176 119.827 83.6226 120.431 84.3066C120.498 84.3811 120.591 84.4263 120.69 84.4321C120.79 84.438 120.888 84.4038 120.962 84.3376C121.037 84.2712 121.082 84.178 121.088 84.0784C121.094 83.979 121.06 83.8811 120.993 83.8066C120.368 83.1025 119.659 82.4778 118.881 81.9465C116.998 78.8103 116.017 75.2148 116.047 71.5566C118.499 76.0664 121.18 80.4482 124.079 84.6846C124.819 86.0845 125.426 87.551 125.891 89.0647C125.922 89.1562 125.986 89.2329 126.071 89.2786C126.156 89.324 126.256 89.3352 126.349 89.3096C126.442 89.2837 126.521 89.2231 126.571 89.1404C126.621 89.0576 126.637 88.9587 126.615 88.8645C126.147 87.3301 125.536 85.8428 124.789 84.4226C124.965 82.7405 125.323 81.8525 125.633 81.6587C126.337 82.4866 128.181 88.8586 130.109 97.1367C125.347 97.843 120.815 99.6555 116.879 102.428C116.574 99.5544 115.809 96.748 114.613 94.1167C113.939 92.4961 113.057 90.97 111.989 89.5767C111.561 89.2585 111.127 89.8706 111.501 90.1426C112.32 91.2778 113.027 92.4895 113.613 93.7605C112.88 93.5291 112.203 93.1472 111.625 92.6396C111.047 92.1321 110.582 91.51 110.257 90.8125ZM150.189 137.337C144.561 142.633 134.885 140.737 130.569 134.483C124.357 125.091 119.326 114.97 115.589 104.349C120.363 100.299 126.354 97.9624 132.609 97.7107C134.334 102.68 136.563 107.461 139.261 111.977C139.261 121.807 139.163 121.402 139.427 121.615L139.559 121.671C139.632 121.687 139.708 121.68 139.777 121.653C139.847 121.625 139.906 121.577 139.947 121.514C155.189 99.9727 157.311 96.1487 164.829 93.9307C166.465 100.078 169.739 114.731 167.873 118.331C167.839 118.37 167.813 118.416 167.797 118.467C167.397 119.115 166.845 119.361 165.769 118.811C165.111 115.883 164.675 113.811 164.661 113.753C164.641 113.655 164.582 113.57 164.498 113.515C164.415 113.461 164.313 113.442 164.215 113.462C164.118 113.483 164.032 113.542 163.978 113.625C163.924 113.709 163.905 113.811 163.925 113.909C163.979 114.172 164.407 116.19 165.035 118.991C160.881 125.708 155.892 131.872 150.189 137.337ZM171.435 139.103C171.441 139.061 171.441 139.02 171.435 138.979C171.307 138.268 170.343 138.932 165.979 119.715C166.314 119.863 166.684 119.911 167.045 119.854C167.407 119.796 167.744 119.635 168.015 119.391L169.515 124.353C169.544 124.448 169.61 124.528 169.698 124.575C169.786 124.622 169.889 124.632 169.984 124.604C170.08 124.575 170.16 124.509 170.207 124.421C170.254 124.333 170.264 124.23 170.235 124.135L168.561 118.595C170.745 113.867 166.445 97.0566 165.561 93.7227C166.819 93.3767 168.265 93.0227 169.705 92.6765C171.08 96.5195 172.098 100.481 172.745 104.51C172.78 104.546 172.821 104.574 172.866 104.593C172.911 104.612 172.96 104.622 173.009 104.622C173.209 104.622 194.245 104.067 194.445 104.023C194.54 103.998 194.621 103.937 194.671 103.853C195.141 102.935 192.121 93.1726 191.805 92.1765C193.399 92.6685 194.93 93.3452 196.367 94.1926C196.637 94.4985 198.567 96.8987 199.727 103.816C200.269 107.161 200.432 110.556 200.213 113.936C200.077 116.174 199.813 122.785 199.873 123.065C199.873 123.823 199.873 135.197 200.619 135.708C208.785 139.393 213.425 147.79 217.083 155.345C221.847 165.177 233.805 176.211 233.925 176.323C234.125 176.474 233.201 176.189 278.239 187.255C277.45 187.599 276.726 188.079 276.101 188.673C272.229 192.195 269.243 200.111 268.977 206.673L266.357 205.923C266.263 205.901 266.164 205.917 266.082 205.967C265.999 206.017 265.938 206.096 265.912 206.189C265.887 206.282 265.898 206.382 265.943 206.467C265.989 206.552 266.066 206.616 266.157 206.647L268.957 207.447C268.794 209.939 269.411 212.42 270.721 214.547L231.721 203.759C228.752 202.935 225.996 201.479 223.643 199.491L200.643 180.017L200.903 171.513C203.063 173.383 202.977 173.361 203.177 173.361C203.254 173.36 203.328 173.336 203.391 173.292C203.454 173.248 203.502 173.186 203.528 173.114C203.555 173.042 203.559 172.964 203.54 172.89C203.522 172.816 203.481 172.749 203.423 172.699L200.931 170.543C201.095 165.197 201.219 163.301 201.155 162.613C201.101 162.013 200.497 162.126 200.423 162.539C200.119 166.271 195.341 175.242 195.033 175.819C194.899 176.018 186.477 247.619 182.033 281.799C173.22 284.04 163.918 283.366 155.519 279.879C157.989 255.871 165.231 179.292 171.435 139.103ZM133.895 308.607C139.029 304.646 144.614 301.307 150.533 298.661C152.868 297.619 154.892 295.986 156.404 293.925C157.916 291.863 158.865 289.443 159.157 286.903L159.705 282.211C165.549 283.904 171.691 284.306 177.705 283.389C176.399 296.069 176.189 295.453 176.625 296.765C178.004 300.856 178.687 305.149 178.643 309.467C172.555 309.467 143.443 309.649 134.265 309.657C134.146 309.651 134.03 309.61 133.934 309.539C133.838 309.468 133.765 309.369 133.726 309.257C133.686 309.144 133.681 309.021 133.711 308.906C133.741 308.79 133.805 308.686 133.895 308.607Z" fill-rule="evenodd" fill="#4605AD"/>
		<path d="M166.451 217.921L167.069 212.033C167.08 211.933 167.05 211.834 166.987 211.757C166.925 211.679 166.834 211.63 166.734 211.62C166.635 211.609 166.536 211.639 166.458 211.701C166.381 211.764 166.332 211.855 166.321 211.955L165.703 217.844C165.693 217.942 165.722 218.042 165.785 218.118C165.848 218.196 165.939 218.245 166.038 218.256C166.138 218.266 166.237 218.236 166.314 218.174C166.392 218.111 166.441 218.021 166.451 217.921Z" fill-rule="evenodd" fill="#4605AD"/>
		<path d="M161.511 265.029L162.129 259.141C162.14 259.041 162.11 258.942 162.047 258.865C162.016 258.826 161.978 258.794 161.935 258.771C161.891 258.747 161.843 258.733 161.794 258.728C161.695 258.717 161.596 258.747 161.518 258.81C161.441 258.872 161.392 258.963 161.381 259.063L160.763 264.951C160.753 265.05 160.783 265.149 160.845 265.226C160.908 265.304 160.999 265.353 161.098 265.364C161.198 265.374 161.297 265.344 161.374 265.282C161.452 265.219 161.501 265.128 161.511 265.029Z" fill-rule="evenodd" fill="#4605AD"/>
		<path d="M163.159 249.325L163.775 243.437C163.786 243.337 163.756 243.238 163.693 243.161C163.631 243.083 163.54 243.034 163.44 243.024C163.341 243.013 163.242 243.043 163.164 243.105C163.087 243.168 163.038 243.259 163.027 243.359L162.409 249.247C162.406 249.342 162.44 249.435 162.502 249.507C162.565 249.579 162.653 249.625 162.748 249.634C162.843 249.644 162.938 249.618 163.015 249.56C163.091 249.503 163.143 249.419 163.159 249.325Z" fill-rule="evenodd" fill="#4605AD"/>
		<path d="M159.919 280.045L160.483 274.845C160.494 274.745 160.464 274.646 160.401 274.569C160.339 274.491 160.248 274.442 160.148 274.432C160.049 274.421 159.95 274.451 159.872 274.513C159.795 274.576 159.746 274.667 159.735 274.767L159.169 279.967C159.166 280.062 159.2 280.155 159.262 280.227C159.325 280.299 159.413 280.345 159.508 280.354C159.603 280.365 159.698 280.338 159.775 280.28C159.851 280.223 159.903 280.139 159.919 280.045Z" fill-rule="evenodd" fill="#4605AD"/>
		<path d="M164.805 233.629L165.423 227.741C165.434 227.641 165.404 227.542 165.341 227.465C165.279 227.387 165.188 227.338 165.088 227.328C164.989 227.317 164.89 227.347 164.812 227.409C164.735 227.472 164.686 227.563 164.675 227.663L164.055 233.552C164.052 233.646 164.086 233.74 164.148 233.812C164.211 233.883 164.299 233.929 164.394 233.938C164.489 233.948 164.584 233.922 164.661 233.865C164.737 233.807 164.789 233.723 164.805 233.629Z" fill-rule="evenodd" fill="#4605AD"/>
		<path d="M173.037 155.111L173.655 149.229C173.666 149.129 173.636 149.03 173.573 148.953C173.542 148.914 173.504 148.882 173.461 148.859C173.417 148.835 173.369 148.821 173.32 148.816C173.221 148.805 173.122 148.835 173.044 148.897C172.967 148.96 172.918 149.051 172.907 149.151L172.289 155.029C172.278 155.128 172.307 155.227 172.37 155.305C172.432 155.383 172.523 155.433 172.622 155.444C172.722 155.454 172.821 155.425 172.899 155.363C172.977 155.301 173.026 155.21 173.037 155.111Z" fill-rule="evenodd" fill="#4605AD"/>
		<path d="M173.935 139.331C173.925 139.43 173.954 139.529 174.017 139.606C174.08 139.684 174.171 139.733 174.27 139.744C174.37 139.754 174.469 139.724 174.546 139.662C174.624 139.599 174.673 139.508 174.683 139.409C174.749 138.769 174.895 139.587 173.083 133.581C173.054 133.485 172.989 133.405 172.901 133.358C172.813 133.311 172.71 133.301 172.614 133.33C172.519 133.358 172.439 133.424 172.392 133.512C172.345 133.6 172.334 133.703 172.363 133.799C174.147 139.665 173.973 138.973 173.935 139.331Z" fill-rule="evenodd" fill="#4605AD"/>
		<path d="M169.745 186.514L170.361 180.629C170.367 180.579 170.362 180.53 170.348 180.482C170.334 180.435 170.311 180.391 170.28 180.352C170.249 180.314 170.211 180.282 170.167 180.258C170.124 180.235 170.076 180.22 170.027 180.215C169.978 180.209 169.929 180.214 169.881 180.228C169.834 180.242 169.79 180.265 169.751 180.296C169.713 180.327 169.681 180.365 169.657 180.408C169.633 180.452 169.619 180.499 169.613 180.549L168.989 186.428C168.984 186.478 168.988 186.528 169.002 186.576C169.015 186.624 169.039 186.669 169.07 186.708C169.101 186.747 169.139 186.78 169.183 186.804C169.227 186.828 169.275 186.844 169.324 186.85C169.374 186.855 169.424 186.851 169.472 186.837C169.52 186.823 169.565 186.8 169.604 186.769C169.643 186.738 169.676 186.7 169.7 186.656C169.724 186.612 169.74 186.564 169.745 186.514Z" fill-rule="evenodd" fill="#4605AD"/>
		<path d="M168.097 202.229L168.715 196.341C168.726 196.241 168.696 196.142 168.633 196.065C168.571 195.987 168.48 195.938 168.38 195.928C168.281 195.917 168.182 195.947 168.104 196.009C168.027 196.072 167.978 196.163 167.967 196.263L167.349 202.151C167.339 202.25 167.368 202.349 167.431 202.426C167.494 202.504 167.585 202.553 167.684 202.564C167.784 202.574 167.883 202.544 167.96 202.482C168.038 202.419 168.087 202.328 168.097 202.229Z" fill-rule="evenodd" fill="#4605AD"/>
		<path d="M171.389 170.813L172.007 164.925C172.01 164.829 171.977 164.736 171.914 164.664C171.851 164.592 171.764 164.546 171.669 164.537C171.574 164.527 171.478 164.553 171.402 164.611C171.326 164.668 171.274 164.752 171.257 164.847L170.641 170.735C170.631 170.834 170.66 170.933 170.723 171.01C170.786 171.088 170.877 171.137 170.976 171.148C171.076 171.158 171.175 171.128 171.252 171.066C171.33 171.003 171.379 170.912 171.389 170.813Z" fill-rule="evenodd" fill="#4605AD"/>
		<path d="M214.877 183.613C214.953 183.678 215.051 183.71 215.151 183.703C215.251 183.696 215.343 183.649 215.408 183.574C215.474 183.498 215.506 183.4 215.499 183.3C215.492 183.2 215.445 183.108 215.369 183.043L210.891 179.171C210.815 179.11 210.719 179.081 210.622 179.089C210.525 179.098 210.436 179.144 210.372 179.218C210.308 179.291 210.276 179.387 210.281 179.484C210.286 179.581 210.328 179.672 210.399 179.739L214.877 183.613Z" fill-rule="evenodd" fill="#4605AD"/>
		<path d="M226.819 193.941C226.895 194.001 226.992 194.03 227.089 194.022C227.185 194.013 227.275 193.967 227.339 193.893C227.402 193.82 227.435 193.725 227.43 193.627C227.425 193.53 227.382 193.439 227.311 193.373L222.833 189.499C222.758 189.433 222.659 189.401 222.56 189.408C222.46 189.415 222.368 189.462 222.302 189.538C222.237 189.613 222.205 189.712 222.212 189.811C222.219 189.911 222.266 190.003 222.341 190.069L226.819 193.941Z" fill-rule="evenodd" fill="#4605AD"/>
		<path d="M250.963 202.307C255.803 203.697 256.563 203.955 256.763 203.955C256.854 203.953 256.941 203.92 257.008 203.86C257.076 203.801 257.12 203.719 257.133 203.629C257.146 203.54 257.126 203.449 257.077 203.373C257.028 203.297 256.954 203.24 256.867 203.215L251.175 201.585C251.128 201.571 251.078 201.566 251.029 201.571C250.98 201.577 250.932 201.592 250.889 201.615C250.846 201.639 250.807 201.671 250.776 201.709C250.745 201.748 250.722 201.792 250.708 201.84C250.694 201.887 250.69 201.937 250.695 201.986C250.701 202.035 250.715 202.082 250.739 202.126C250.763 202.169 250.795 202.207 250.833 202.238C250.872 202.269 250.916 202.293 250.963 202.307Z" fill-rule="evenodd" fill="#4605AD"/>
		<path d="M235.789 197.959C240.627 199.359 241.389 199.605 241.589 199.605C241.68 199.605 241.769 199.573 241.837 199.513C241.906 199.454 241.951 199.371 241.964 199.281C241.977 199.191 241.956 199.099 241.907 199.023C241.857 198.947 241.781 198.891 241.693 198.867L235.989 197.229C235.941 197.215 235.891 197.212 235.842 197.218C235.793 197.224 235.745 197.24 235.702 197.265C235.615 197.314 235.551 197.397 235.524 197.494C235.498 197.59 235.511 197.694 235.561 197.781C235.61 197.868 235.693 197.932 235.789 197.959Z" fill-rule="evenodd" fill="#4605AD"/>
	</g>
	<defs>
		<clipPath id="clip9_479">
			<rect width="379.988495" height="310.482269" fill="white"/>
		</clipPath>
	</defs>
</svg>
