<svg width="30.000000" height="30.000000" viewBox="0 0 30 30" fill="none" xmlns="http://www.w3.org/2000/svg" xmlns:xlink="http://www.w3.org/1999/xlink">
	<desc>
			Created with Pixso.
	</desc>
	<g clip-path="url(#clip9_782)">
		<path d="M14.8538 3.75879L15 3.75C15.7408 3.75012 16.1546 4.11804 16.2412 4.85376L16.25 5L16.25 13.75L25 13.75C25.7408 13.7501 26.1546 14.118 26.2413 14.8538L26.25 15C26.2499 15.7408 25.882 16.1545 25.1463 16.2412L25 16.25L16.25 16.25L16.25 25C16.2499 25.7407 15.882 26.1545 15.1462 26.2412L15 26.25C14.2592 26.25 13.8454 25.8821 13.7588 25.1462L13.75 25L13.75 16.25L5 16.25C4.25917 16.2499 3.84542 15.882 3.75875 15.1462L3.75 15C3.7501 14.2592 4.11802 13.8455 4.85375 13.7588L5 13.75L13.75 13.75L13.75 5C13.7501 4.25916 14.118 3.84546 14.8538 3.75879Z" fill-rule="evenodd" fill="#212121"/>
	</g>
	<defs>
		<clipPath id="clip9_782">
			<rect width="30.000000" height="30.000000" fill="white"/>
		</clipPath>
	</defs>
</svg>
