<svg width="30.000000" height="30.000000" viewBox="0 0 30 30" fill="none" xmlns="http://www.w3.org/2000/svg" xmlns:xlink="http://www.w3.org/1999/xlink">
	<desc>
			Created with Pixso.
	</desc>
	<g clip-path="url(#clip9_1496)">
		<path d="M15 2.49875C21.905 2.49875 27.5026 8.09625 27.5026 15.0013C27.5026 21.905 21.905 27.5025 15 27.5025C8.09509 27.5025 2.49756 21.905 2.49756 15.0013C2.49756 8.09625 8.09509 2.49875 15 2.49875ZM14.9951 12.8112C14.2537 12.8123 13.8403 13.181 13.755 13.9175L13.7463 14.0625L13.75 20.94L13.7588 21.0862C13.8441 21.8246 14.2585 22.1935 15.0018 22.1927C15.7451 22.192 16.1587 21.8223 16.2426 21.0837L16.25 20.9375L16.2463 14.0612L16.2375 13.915C16.1501 13.1793 15.736 12.8105 14.9951 12.8112ZM15 8.125C14.5681 8.125 14.1993 8.27773 13.8939 8.58319C13.5884 8.88866 13.4357 9.25739 13.4357 9.68938C13.4357 10.1214 13.5884 10.4901 13.8939 10.7955C14.1993 11.101 14.5681 11.2538 15 11.2538C15.432 11.2538 15.8008 11.101 16.1062 10.7955C16.4117 10.4901 16.5645 10.1214 16.5645 9.68938C16.5645 9.25739 16.4117 8.88866 16.1062 8.58319C15.8008 8.27773 15.432 8.125 15 8.125Z" fill-rule="evenodd" fill="#4605AD"/>
	</g>
	<defs>
		<clipPath id="clip9_1496">
			<rect width="30.000000" height="30.000000" fill="white"/>
		</clipPath>
	</defs>
</svg>
