<svg width="30.000000" height="30.000000" viewBox="0 0 30 30" fill="none" xmlns="http://www.w3.org/2000/svg" xmlns:xlink="http://www.w3.org/1999/xlink">
	<desc>
			Created with Pixso.
	</desc>
	<g clip-path="url(#clip35_385)">
		<path d="M12.8688 24.645C13.4625 25.23 14.0519 25.2256 14.6368 24.6319C15.2218 24.0381 15.2175 23.4487 14.6238 22.8637L7.91125 16.2513L24.9988 16.2513C25.832 16.2513 26.2488 15.8346 26.2488 15.0013C26.2488 14.1679 25.832 13.7513 24.9988 13.7513L7.91992 13.7513L14.625 7.14249C15.1998 6.55743 15.1993 5.97287 14.6234 5.38879C14.0476 4.80475 13.4631 4.79596 12.87 5.36249L4.21497 13.89C3.90479 14.196 3.74963 14.5668 3.74963 15.0025C3.74963 15.4382 3.90479 15.8091 4.21497 16.115L12.8688 24.645Z" fill-rule="evenodd" fill="#000000"/>
		<path d="M14.6368 24.6319C15.2218 24.0381 15.2175 23.4487 14.6238 22.8637L7.91125 16.2513L24.9988 16.2513C25.832 16.2513 26.2488 15.8346 26.2488 15.0013C26.2488 14.1679 25.832 13.7513 24.9988 13.7513L7.91992 13.7513L14.625 7.14249C15.1998 6.55743 15.1993 5.97287 14.6234 5.38879C14.0476 4.80475 13.4631 4.79596 12.87 5.36249L4.21497 13.89C3.90479 14.196 3.74963 14.5668 3.74963 15.0025C3.74963 15.4382 3.90479 15.8091 4.21497 16.115L12.8688 24.645C13.4625 25.23 14.0519 25.2256 14.6368 24.6319Z" stroke="#FFFFFF" stroke-opacity="0.641209"/>
	</g>
	<defs>
		<clipPath id="clip35_385">
			<rect width="30.000000" height="30.000000" fill="white"/>
		</clipPath>
	</defs>
</svg>
