<svg width="30.000000" height="30.000000" viewBox="0 0 30 30" fill="none" xmlns="http://www.w3.org/2000/svg" xmlns:xlink="http://www.w3.org/1999/xlink">
	<desc>
			Created with Pixso.
	</desc>
	<g clip-path="url(#clip9_1503)">
		<path d="M12.8687 24.645C13.4625 25.23 14.0519 25.2256 14.6368 24.6319C15.2219 24.0381 15.2175 23.4487 14.6237 22.8637L7.91125 16.2513L24.9987 16.2513C25.832 16.2513 26.2487 15.8346 26.2487 15.0013C26.2487 14.1679 25.832 13.7513 24.9987 13.7513L7.91998 13.7513L14.625 7.1425C15.1998 6.55743 15.1993 5.97287 14.6235 5.38881C14.0476 4.80473 13.4631 4.79597 12.87 5.36249L4.21497 13.89C3.90472 14.1959 3.74963 14.5668 3.74963 15.0025C3.74963 15.4382 3.90472 15.809 4.21497 16.115L12.8687 24.645Z" fill-rule="evenodd" fill="#212121"/>
	</g>
	<defs>
		<clipPath id="clip9_1503">
			<rect width="29.999996" height="30.000000" fill="white"/>
		</clipPath>
	</defs>
</svg>
