<svg width="20.003418" height="20.000732" viewBox="0 0 20.0034 20.0007" fill="none" xmlns="http://www.w3.org/2000/svg" xmlns:xlink="http://www.w3.org/1999/xlink">
	<desc>
			Created with Pixso.
	</desc>
	<path d="M13.4421 7.55542C13.9524 6.20789 14.2107 5.02844 14.2107 4.01141C14.2107 1.74603 13.1693 0 11.4381 0C10.4988 0 10.2081 0.476868 9.84436 1.64972C9.86328 1.58832 9.66357 2.24841 9.60596 2.42499C9.4939 2.76495 9.29871 3.341 9.02148 4.15405L5.80957 8.4516C5.0376 9.48016 3.98218 10.2126 2.64319 10.649L1.24915 11.1032C0.809082 11.2467 0.474854 11.4938 0.246216 11.8447C0.0175781 12.1955 -0.0517578 12.5678 0.0380859 12.9616L0.798828 16.3026C1.00159 17.1927 1.62012 17.7458 2.6543 17.9618L11.8041 19.8712C12.4784 20.0118 13.1588 20.038 13.8453 19.9496C14.5319 19.8611 15.1727 19.6649 15.7681 19.3607C16.3634 19.0566 16.8684 18.6674 17.2831 18.1932C17.6978 17.7191 17.9908 17.1956 18.1624 16.6227L19.908 10.7935C20.0243 10.405 20.0343 10.0146 19.9382 9.62219C19.8422 9.2298 19.6497 8.87531 19.3607 8.55878C19.0718 8.24225 18.7158 7.99591 18.293 7.8197C17.87 7.64355 17.4232 7.55542 16.9524 7.55542L13.4421 7.55542Z" fill-rule="evenodd" fill="#4605AD"/>
	<defs/>
</svg>
