<svg width="379.989990" height="373.505859" viewBox="0 0 379.99 373.506" fill="none" xmlns="http://www.w3.org/2000/svg" xmlns:xlink="http://www.w3.org/1999/xlink">
	<desc>
			Created with Pixso.
	</desc>
	<g clip-path="url(#clip9_715)">
		<path d="M379.187 54.6694C378.249 54.3499 377.09 55.8076 375.732 58.9827C375.138 60.3481 374.471 61.6814 373.736 62.9766C374.474 60.1208 375.293 56.1272 375.573 54.6694C375.852 53.2117 376.471 49.2576 374.994 48.8582C374.035 48.5986 372.997 50.0964 371.739 53.3513C370.481 56.6064 369.642 58.9429 368.663 60.9397C369.063 58.3237 369.702 54.23 370.301 50.6555C370.72 48.0793 370.74 45.2239 369.482 44.9243C368.224 44.6248 367.066 47.3005 366.367 49.6172C366.207 50.1562 364.37 55.6079 363.232 59.6018C363.232 57.9043 363.232 55.3882 363.232 52.333C363.232 49.697 362.812 46.8813 361.514 46.7815C360.216 46.6816 359.398 50.396 359.198 51.9136C359.198 52.5127 357.54 62.657 357.54 62.657C357.349 63.9004 356.965 65.1062 356.402 66.2314C355.963 67.0303 355.763 66.9304 355.464 66.8506C352.249 66.1118 346.537 59.3621 344.381 61.7185C343.981 62.1777 342.723 63.5356 349.553 71.7031C350.277 72.5715 350.723 73.6362 350.837 74.7605C350.951 75.885 350.727 77.0176 350.192 78.0134L347.316 83.3452C346.517 82.6265 345.719 81.9075 344.94 81.1487C344.905 81.1064 344.86 81.0728 344.81 81.0496C344.76 81.0264 344.706 81.0144 344.65 81.0144C344.595 81.0144 344.541 81.0264 344.492 81.0496C344.441 81.0728 344.397 81.1064 344.361 81.1487C343.422 82.6064 342.524 84.0042 341.665 85.3821L338.37 47.3005C338.134 43.7554 336.504 40.4478 333.836 38.1016C331.167 35.7551 327.678 34.5608 324.132 34.7798L278.901 38.7737C279.278 36.24 279.224 33.6611 278.742 31.1455C280.447 31.0449 282.114 30.604 283.646 29.8484C285.178 29.0925 286.542 28.0376 287.659 26.7458C288.775 25.4539 289.623 23.9512 290.149 22.3267C290.675 20.7019 290.871 18.9883 290.723 17.2869C289.525 3.30811 269.676 1.11157 265.722 14.8506C262.318 13.3682 258.6 12.7546 254.9 13.0657C251.2 13.3765 247.635 14.6016 244.527 16.6313C241.418 18.6609 238.863 21.4312 237.09 24.6931C235.316 27.9551 234.383 31.6064 234.37 35.3191C234.37 35.5388 234.37 40.012 234.549 42.6079L207.99 44.9644C206.952 31.9043 195.21 21.9795 180.932 21.9795C173.506 21.9058 166.343 24.7278 160.963 29.8474C158.434 32.1946 156.454 35.0701 155.161 38.2693C153.87 41.4688 153.299 44.9136 153.489 48.3586C153.681 51.8037 154.627 55.1643 156.265 58.2017C157.901 61.239 160.187 63.8784 162.96 65.9321C166.287 68.4741 170.123 70.2712 174.205 71.2014C178.288 72.1316 182.523 72.1733 186.623 71.3237L193.173 146.967C193.16 147.023 193.16 147.081 193.173 147.137C193.185 147.193 193.21 147.245 193.246 147.29C193.281 147.334 193.326 147.37 193.378 147.396C193.43 147.42 193.486 147.433 193.543 147.433C193.6 147.433 193.656 147.42 193.708 147.396C193.759 147.37 193.805 147.334 193.84 147.29C193.876 147.245 193.901 147.193 193.913 147.137C193.926 147.081 193.925 147.023 193.912 146.967L187.282 71.104C190.772 70.3416 194.085 68.9253 197.047 66.9304L208.27 71.124C208.338 71.156 208.413 71.1665 208.486 71.1538C208.559 71.1414 208.626 71.1064 208.679 71.0537C208.732 71.0012 208.767 70.9338 208.779 70.8604C208.792 70.7871 208.781 70.7119 208.749 70.6448L204.216 59.6218C206.938 55.5208 208.281 50.6592 208.05 45.7432L234.589 43.4465C235.208 53.1716 237.245 58.8628 240.58 60.4004C243.536 61.7385 246.891 59.6616 249.367 57.585C250.053 59.2876 250.509 61.0737 250.725 62.8967C251.563 70.405 247.27 74.5786 242.397 79.2314C236.107 85.2224 226.602 94.3083 222.428 110.783C222.404 110.882 222.421 110.984 222.473 111.07C222.526 111.157 222.61 111.218 222.708 111.242C222.806 111.266 222.909 111.25 222.995 111.198C223.082 111.145 223.143 111.061 223.167 110.962C227.281 94.6877 236.686 85.7217 242.917 79.7708L244.414 78.353C244.754 79.2314 245.133 80.1702 245.553 81.1287C246.163 82.5642 247.133 83.8171 248.371 84.7659C249.609 85.7144 251.071 86.3262 252.616 86.5413C254.16 86.7566 255.734 86.5679 257.185 85.9937C258.634 85.4194 259.911 84.4795 260.889 83.2654C266.824 75.5962 273.648 68.6582 281.218 62.5972C297.413 62.697 301.467 56.0671 327.447 111.262L322.994 121.247C322.977 121.333 322.989 121.42 323.029 121.498C323.067 121.575 323.132 121.636 323.212 121.671C323.292 121.707 323.381 121.713 323.465 121.691C323.549 121.668 323.622 121.617 323.673 121.546C329.412 107.748 336.453 94.5291 344.7 82.0671C351.411 88.6655 359.64 93.5139 368.663 96.1855C363.132 105.391 359.997 114.417 353.666 127.557C346.118 143.193 337.132 146.667 330.941 146.847C321.356 147.187 313.209 139.738 308.456 131.331C307.957 130.432 303.284 122.564 294.797 108.207C296.794 103.953 298.791 100.379 300.089 98.2224C300.129 98.1382 300.137 98.0427 300.11 97.9536C300.084 97.8645 300.026 97.7881 299.947 97.7388C299.868 97.6897 299.774 97.6709 299.682 97.6863C299.591 97.7019 299.509 97.7505 299.45 97.823C295.656 103.813 287.468 121.406 282.556 133.488C271.752 141.236 252.162 145.05 244.494 138.52C233.91 104.572 238.184 96.8645 242.318 89.376L242.717 88.657C242.749 88.5715 242.748 88.4778 242.716 88.3926C242.684 88.3074 242.623 88.2366 242.543 88.1929C242.463 88.1494 242.37 88.136 242.282 88.1553C242.192 88.1743 242.113 88.2249 242.058 88.2976L241.659 89.0166C237.445 96.6248 233.092 104.512 243.775 138.76C241.559 147.067 241.059 152.479 239.961 157.491L220.451 159.188C220.368 159.208 220.293 159.255 220.24 159.322C220.188 159.389 220.159 159.473 220.159 159.558C220.159 159.644 220.188 159.726 220.24 159.793C220.293 159.861 220.368 159.908 220.451 159.927L334.037 150.102C336.603 149.87 339.041 148.876 341.04 147.251C343.039 145.625 344.508 143.441 345.259 140.976C355.544 130.992 360.017 111.741 369.522 96.1057C369.552 96.0559 369.57 96 369.575 95.9419C369.58 95.8843 369.571 95.8259 369.55 95.772C369.529 95.718 369.495 95.6697 369.452 95.6306C369.41 95.5913 369.358 95.5627 369.302 95.5464C368.504 95.3335 367.705 95.0938 366.906 94.8276C375.752 75.1179 374.255 77.3345 378.109 65.0535C378.828 62.9365 381.224 55.3484 379.187 54.6694ZM203.457 59.3621C203.457 59.6616 203.178 58.9626 207.731 70.0457C197.746 66.2715 197.247 66.0518 196.987 66.0518C194.038 68.0991 190.723 69.5632 187.222 70.3652L186.364 60.5403C186.005 57.2026 186.982 53.8589 189.081 51.2395C191.18 48.6201 194.231 46.9382 197.566 46.5618L207.291 45.7231C207.484 50.5601 206.142 55.334 203.457 59.3621ZM260.37 82.7261C259.469 83.8394 258.295 84.7 256.962 85.2241C255.629 85.7483 254.183 85.918 252.766 85.7168C251.348 85.5156 250.006 84.9507 248.871 84.0764C247.736 83.2024 246.848 82.0491 246.291 80.7292C245.832 79.6509 245.433 78.7324 245.053 77.6541C245.612 77.1147 246.132 76.5957 246.591 76.0764C248.567 74.186 250.034 71.8284 250.857 69.2212C251.681 66.614 251.835 63.8413 251.304 61.1594C252.427 58.7517 253.103 56.1602 253.301 53.511C253.302 53.4343 253.279 53.3591 253.236 53.2957C253.193 53.2322 253.132 53.1831 253.061 53.155C252.989 53.127 252.911 53.1211 252.836 53.1382C252.762 53.1555 252.694 53.1951 252.642 53.2515C239.442 68.0686 235.208 56.3867 235.189 36.5371C239.53 35.3611 243.993 34.6909 248.488 34.5403C249.067 37.1562 249.227 39.6523 250.485 39.7722C251.064 39.7722 251.643 39.333 252.482 38.1946C254.699 34.9795 259.112 40.0718 253.62 44.0657C253.554 44.136 253.517 44.2288 253.517 44.3252C253.517 44.4216 253.554 44.5144 253.62 44.5847C260.649 55.6279 266.72 62.0779 280.279 62.5571C272.91 68.5144 266.232 75.2798 260.37 82.7261ZM327.906 110.283C300.668 52.4927 297.213 62.657 278.801 61.6985C273.534 61.5432 268.445 59.7493 264.244 56.5664C267.96 55.2673 271.265 53.0063 273.822 50.0142C276.379 47.022 278.098 43.4053 278.801 39.5325L324.212 35.5388C325.879 35.4304 327.553 35.6531 329.133 36.1931C330.715 36.7336 332.173 37.5811 333.427 38.687C334.679 39.7932 335.7 41.136 336.432 42.6379C337.165 44.1404 337.592 45.7722 337.691 47.4404L341.086 86.5203C336.235 94.1792 331.835 102.114 327.906 110.283ZM282.955 134.247C291.772 137.738 299.233 143.969 304.242 152.019L291.642 153.098C288.63 146.766 284.219 141.201 278.742 136.823C280.206 136.037 281.614 135.229 282.955 134.247ZM244.434 139.399C247.926 141.695 252.066 142.802 256.236 142.554C263.814 142.393 271.257 140.537 278.023 137.122C283.439 141.42 287.822 146.879 290.843 153.098L240.78 157.431C241.699 153.157 242.517 146.807 244.434 139.399ZM334.136 149.383L305.161 151.879C300.097 143.592 292.49 137.162 283.474 133.548C286.57 126.059 290.823 116.534 294.517 108.985C303.663 124.482 307.557 130.952 307.857 131.591C316.264 146.508 331.52 153.137 344.261 142.074C343.403 144.098 342.004 145.848 340.218 147.13C338.433 148.412 336.329 149.218 334.136 149.383ZM372.458 53.6909C373.755 50.1562 374.634 49.697 374.814 49.697C374.994 49.697 375.533 51.0549 374.814 54.6494C374.163 58.3445 373.296 61.9985 372.218 65.5925C372.038 65.7722 371.479 66.9705 370.221 68.6279C369.272 67.6641 368.244 66.7822 367.146 65.9919C369.138 61.9771 370.911 57.8975 372.458 53.6909ZM367.086 49.9165C368.184 46.2822 369.083 45.7031 369.302 45.7629C369.522 45.823 370.141 47.1011 369.562 50.6355C368.643 56.1072 367.565 62.7969 367.565 63.5156C367.465 63.7754 367.465 63.7153 366.587 65.5127C365.402 64.7288 364.145 64.0601 362.832 63.5156L367.086 49.9165ZM378.668 60.5603C377.57 64.9934 376.671 67.25 374.295 75.4175C373.336 78.8123 367.286 92.3713 366.307 94.6279C359.573 92.2322 353.349 88.595 347.955 83.9043L350.911 78.4329C351.517 77.3049 351.771 76.022 351.644 74.7485C351.515 73.4749 351.01 72.2686 350.192 71.2837C345.459 65.6125 344.401 62.9167 345 62.2776C346.477 60.6802 352.249 66.9504 355.404 67.6494C355.883 67.6494 356.322 67.7693 356.881 66.9905C357.615 65.6982 358.109 64.2844 358.339 62.8169C358.339 62.8169 359.917 52.6724 359.997 52.0532C360.516 48.3191 361.315 47.5803 361.534 47.5803C361.754 47.5803 362.573 48.7583 362.553 52.3528C362.553 57.8044 362.553 61.4988 362.553 62.0181C362.553 62.5371 362.273 62.8767 362.153 63.2361C361.614 63.0166 361.055 62.8169 360.456 62.637C360.41 62.6226 360.362 62.6174 360.314 62.6216C360.266 62.626 360.219 62.6394 360.177 62.6616C360.134 62.6841 360.097 62.7144 360.066 62.7512C360.035 62.7881 360.012 62.8308 359.997 62.8767C359.983 62.9226 359.978 62.9709 359.982 63.0188C359.986 63.0667 360 63.1133 360.022 63.156C360.044 63.1987 360.075 63.2363 360.112 63.2673C360.148 63.2983 360.19 63.3215 360.236 63.3359C366.227 65.333 369.522 68.3682 373.216 73.1011C373.244 73.146 373.281 73.1851 373.325 73.2151C373.369 73.2451 373.419 73.2656 373.471 73.2751C373.523 73.2849 373.577 73.2832 373.629 73.271C373.68 73.2585 373.729 73.2354 373.771 73.2031C373.812 73.1709 373.847 73.1301 373.873 73.0835C373.898 73.0369 373.913 72.9854 373.918 72.9324C373.922 72.8796 373.915 72.8264 373.897 72.7761C373.88 72.7261 373.852 72.6804 373.815 72.6416C372.817 71.3638 371.818 70.1855 370.84 69.1272C373.097 66.0881 374.994 62.7979 376.491 59.3223C377.969 55.8674 378.868 55.3284 379.047 55.3284C379.227 55.3284 379.626 56.9858 378.668 60.5603Z" fill-rule="evenodd" fill="#4605AD"/>
		<path d="M175.94 92.3315C175.731 89.7903 174.523 87.4355 172.58 85.7844C170.637 84.1333 168.118 83.3208 165.576 83.5251L155.391 84.3838C155.308 84.4033 155.233 84.4504 155.181 84.5176C155.128 84.5845 155.099 84.6677 155.099 84.7532C155.099 84.8389 155.128 84.9219 155.181 84.989C155.233 85.0562 155.308 85.1033 155.391 85.1226C155.591 85.1226 165.376 84.324 165.536 84.2839C166.7 84.1826 167.872 84.3123 168.985 84.6655C170.099 85.0186 171.131 85.5881 172.024 86.3416C172.916 87.095 173.651 88.0171 174.186 89.0554C174.721 90.0938 175.046 91.2273 175.141 92.3914L177.937 125.62C177.957 125.704 178.003 125.778 178.07 125.832C178.137 125.885 178.221 125.914 178.306 125.914C178.392 125.914 178.475 125.885 178.542 125.832C178.609 125.778 178.656 125.704 178.675 125.62L175.94 92.3315Z" fill-rule="evenodd" fill="#4605AD"/>
		<path d="M175.76 162.184C174.801 163.122 171.966 163.242 170.608 163.342C170.508 163.342 170.411 163.382 170.34 163.454C170.268 163.525 170.228 163.621 170.228 163.721C170.228 163.822 170.268 163.919 170.34 163.99C170.411 164.061 170.508 164.101 170.608 164.101C172.265 163.961 175.081 163.881 176.259 162.723C176.305 162.652 176.326 162.568 176.318 162.485C176.311 162.401 176.276 162.322 176.219 162.26C176.161 162.198 176.085 162.158 176.003 162.144C175.92 162.13 175.834 162.144 175.76 162.184Z" fill-rule="evenodd" fill="#4605AD"/>
		<path d="M132.407 86.3206C118.049 87.5188 73.3777 91.2532 73.178 91.293C71.915 91.3987 70.6853 91.7522 69.5591 92.3335C68.4331 92.9146 67.4324 93.7119 66.6146 94.6799C65.7967 95.6482 65.1777 96.7678 64.7928 97.9753C64.4079 99.1826 64.2647 100.455 64.3714 101.717L69.5236 162.942C69.7421 165.491 70.962 167.849 72.916 169.5C74.8699 171.151 77.3983 171.96 79.9474 171.749L100.356 170.012C100.405 170.01 100.454 169.997 100.498 169.976C100.542 169.954 100.58 169.923 100.612 169.886C100.644 169.848 100.668 169.805 100.682 169.758C100.696 169.711 100.701 169.661 100.695 169.612C100.695 169.413 100.496 169.213 100.296 169.273L79.8877 170.99C77.5365 171.19 75.2025 170.448 73.3978 168.928C71.5932 167.408 70.4656 165.234 70.2625 162.883L65.1103 101.657C65.0118 100.492 65.144 99.3198 65.4995 98.2063C65.8549 97.0928 66.4263 96.0605 67.1813 95.1682C67.9362 94.2761 68.8599 93.5415 69.8992 93.0068C70.9384 92.4719 72.073 92.1475 73.2378 92.0518L132.466 87.0596C133.006 87.0195 132.866 86.2207 132.407 86.3206Z" fill-rule="evenodd" fill="#4605AD"/>
		<path d="" fill-rule="evenodd" fill="#4605AD"/>
		<path d="M299.15 264.427L292.081 181.634C291.938 179.942 291.463 178.296 290.682 176.787C289.902 175.28 288.832 173.94 287.534 172.846C286.236 171.752 284.734 170.924 283.117 170.41C281.498 169.897 279.794 169.707 278.103 169.852L213.282 175.343C213.199 175.363 213.124 175.41 213.072 175.477C213.019 175.544 212.99 175.628 212.99 175.713C212.99 175.799 213.019 175.882 213.072 175.948C213.124 176.016 213.199 176.063 213.282 176.082L278.162 170.611C279.755 170.474 281.358 170.653 282.881 171.135C284.404 171.618 285.817 172.396 287.039 173.425C288.261 174.455 289.268 175.715 290.003 177.134C290.738 178.552 291.186 180.102 291.322 181.694L298.371 264.486C298.649 267.689 297.648 270.872 295.586 273.337C293.524 275.803 290.569 277.353 287.368 277.646C287.149 277.646 170.907 287.451 165.875 287.89C165.792 287.91 165.717 287.957 165.664 288.024C165.611 288.091 165.583 288.175 165.583 288.26C165.583 288.346 165.611 288.428 165.664 288.495C165.717 288.563 165.792 288.61 165.875 288.629L287.308 278.405C289.005 278.267 290.657 277.795 292.171 277.017C293.684 276.239 295.03 275.171 296.129 273.872C297.229 272.574 298.062 271.071 298.581 269.451C299.099 267.83 299.293 266.123 299.15 264.427Z" fill-rule="evenodd" fill="#4605AD"/>
		<path d="M169.529 179.796C169.429 179.796 169.333 179.757 169.262 179.686C169.19 179.615 169.15 179.518 169.15 179.417C169.15 179.317 169.19 179.22 169.262 179.149C169.333 179.078 169.429 179.038 169.529 179.038L189.698 177.32C189.799 177.32 189.896 177.36 189.967 177.432C190.038 177.503 190.078 177.6 190.078 177.7C190.078 177.801 190.038 177.897 189.967 177.968C189.896 178.039 189.799 178.079 189.698 178.079L169.529 179.796Z" fill-rule="evenodd" fill="#4605AD"/>
		<path d="M230.016 125.54C237.824 116.993 241.659 116.234 247.629 112.161C248.308 111.701 248.208 110.164 243.376 111.741L241.379 112.34C243.536 110.224 247.47 107.168 249.706 105.012C250.305 104.433 249.986 103.015 245.453 105.291C244.454 105.791 241.059 107.508 239.462 108.446C240.859 106.681 242.353 104.995 243.935 103.394C249.067 98.1826 248.528 96.1658 241.659 100.219C235.837 104.118 230.477 108.667 225.683 113.778C222.208 115.975 223.526 106.669 223.167 104.413C222.668 101.317 222.009 97.9031 219.533 106.19C218.854 108.446 216.078 115.496 210.866 128.156C216.549 128.18 222.127 129.695 227.041 132.549C228.119 129.674 229.038 127.397 229.737 125.44L230.016 125.54Z" fill-rule="evenodd" fill="#FFD0C7"/>
		<path d="M111.858 119.09C111.858 111.262 110.44 114.038 109.182 116.574C108.264 118.431 106.906 126.838 104.509 124.002C104.31 123.683 98.8185 112.879 94.4052 108.027C89.5527 102.695 88.5542 104.293 91.5896 110.164C92.514 111.976 93.3407 113.835 94.0658 115.735C92.9675 114.517 90.4914 112.121 89.7724 111.422C86.4575 108.267 85.7785 109.425 86.1579 110.044C86.5373 110.663 91.4099 118.431 91.3899 118.611L90.0719 117.592C86.2777 114.996 85.8185 116.234 86.2777 116.813C90.2716 121.926 93.4068 123.543 97.86 132.949C98.0396 133.388 98.3192 138.76 98.3991 139.938C101.368 138.92 104.53 138.592 107.645 138.979C108.578 135.086 110.231 131.402 112.517 128.116C112.038 124.701 111.838 121.227 111.858 119.09Z" fill-rule="evenodd" fill="#FFD0C7"/>
		<path d="M152.995 92.4114C156.23 104.852 156.629 109.565 155.651 111.861C154.672 114.157 150.579 111.861 146.585 108.866C147.024 110.863 147.483 112.74 147.963 114.257C148.085 114.927 148.419 115.541 148.915 116.008C149.41 116.475 150.042 116.771 150.718 116.854C146.63 119.464 141.794 120.657 136.96 120.248C134.651 120.107 132.463 119.168 130.769 117.592C133.125 116.314 135.042 116.793 140.594 109.485C142.591 106.949 144.588 104.752 146.145 102.655C142.152 98.1226 145.447 95.1272 147.603 98.1426C148.761 99.76 150.419 99.3008 149.42 94.4482C150.675 93.8872 151.873 93.2051 152.995 92.4114Z" fill-rule="evenodd" fill="#FFD0C7"/>
		<path d="M127.734 130.692C127.759 131.111 127.661 131.526 127.452 131.888C127.242 132.251 126.931 132.544 126.558 132.732C126.183 132.919 125.762 132.992 125.346 132.942C124.931 132.892 124.539 132.721 124.22 132.45C123.901 132.18 123.668 131.822 123.55 131.42C123.433 131.019 123.436 130.591 123.559 130.191C123.683 129.792 123.921 129.436 124.244 129.17C124.568 128.905 124.961 128.739 125.377 128.695C125.665 128.665 125.955 128.693 126.231 128.779C126.507 128.864 126.762 129.004 126.983 129.19C127.203 129.377 127.383 129.607 127.512 129.865C127.641 130.123 127.717 130.405 127.734 130.692Z" fill-rule="evenodd" fill="#4605AD"/>
		<path d="M112.577 148.345C112.602 148.763 112.504 149.179 112.295 149.541C112.086 149.904 111.774 150.197 111.401 150.385C111.026 150.572 110.605 150.644 110.19 150.594C109.774 150.544 109.382 150.374 109.063 150.103C108.744 149.833 108.511 149.474 108.393 149.073C108.277 148.671 108.28 148.244 108.402 147.844C108.526 147.443 108.764 147.089 109.087 146.823C109.411 146.558 109.804 146.392 110.221 146.348C110.507 146.321 110.797 146.351 111.071 146.438C111.346 146.524 111.601 146.664 111.82 146.85C112.04 147.036 112.22 147.265 112.35 147.521C112.48 147.778 112.557 148.058 112.577 148.345Z" fill-rule="evenodd" fill="#4605AD"/>
		<path d="M121.563 171.609C121.622 172.173 121.453 172.738 121.096 173.178C120.738 173.618 120.22 173.898 119.656 173.956C119.092 174.014 118.528 173.846 118.089 173.488C117.648 173.131 117.369 172.613 117.31 172.049C117.252 171.484 117.42 170.921 117.778 170.481C118.135 170.041 118.653 169.761 119.217 169.702C119.781 169.644 120.345 169.812 120.785 170.17C121.226 170.528 121.505 171.045 121.563 171.609Z" fill-rule="evenodd" fill="#4605AD"/>
		<path d="M101.854 144.331C101.912 144.895 101.744 145.459 101.386 145.9C101.029 146.34 100.511 146.62 99.9464 146.677C99.3827 146.736 98.8187 146.568 98.3787 146.21C97.9386 145.853 97.6587 145.334 97.6004 144.771C97.5421 144.206 97.7104 143.643 98.0679 143.203C98.4257 142.762 98.9435 142.483 99.5075 142.424C100.071 142.366 100.635 142.534 101.076 142.892C101.516 143.25 101.796 143.767 101.854 144.331Z" fill-rule="evenodd" fill="#4605AD"/>
		<path d="M145.766 139.059C145.796 139.483 145.7 139.905 145.49 140.274C145.281 140.643 144.967 140.942 144.589 141.134C144.21 141.326 143.784 141.401 143.363 141.352C142.941 141.302 142.544 141.129 142.22 140.854C141.897 140.581 141.661 140.218 141.543 139.81C141.426 139.402 141.43 138.969 141.557 138.564C141.684 138.16 141.928 137.801 142.257 137.534C142.587 137.267 142.987 137.103 143.41 137.062C143.696 137.035 143.986 137.065 144.26 137.152C144.535 137.238 144.789 137.378 145.009 137.564C145.229 137.75 145.409 137.979 145.539 138.236C145.669 138.492 145.746 138.773 145.766 139.059Z" fill-rule="evenodd" fill="#4605AD"/>
		<path d="M133.425 156.333C133.45 156.751 133.352 157.167 133.143 157.529C132.934 157.891 132.622 158.185 132.249 158.373C131.874 158.559 131.453 158.632 131.038 158.582C130.622 158.532 130.23 158.362 129.911 158.091C129.592 157.821 129.359 157.462 129.241 157.061C129.125 156.659 129.128 156.232 129.25 155.832C129.374 155.432 129.612 155.077 129.935 154.811C130.259 154.545 130.652 154.38 131.069 154.336C131.356 154.306 131.647 154.334 131.922 154.42C132.198 154.505 132.453 154.644 132.674 154.831C132.894 155.018 133.074 155.247 133.203 155.505C133.332 155.764 133.408 156.045 133.425 156.333Z" fill-rule="evenodd" fill="#4605AD"/>
		<path d="M155.611 164.361C155.641 164.784 155.545 165.206 155.335 165.576C155.126 165.944 154.812 166.244 154.434 166.435C154.055 166.627 153.629 166.702 153.208 166.653C152.786 166.603 152.389 166.43 152.065 166.156C151.742 165.882 151.506 165.519 151.388 165.111C151.271 164.703 151.275 164.271 151.402 163.865C151.529 163.461 151.772 163.103 152.102 162.835C152.432 162.568 152.832 162.405 153.254 162.364C153.541 162.337 153.831 162.366 154.105 162.453C154.38 162.539 154.634 162.679 154.854 162.866C155.074 163.052 155.253 163.28 155.384 163.537C155.514 163.793 155.591 164.074 155.611 164.361Z" fill-rule="evenodd" fill="#4605AD"/>
		<path d="M164.797 127.597C164.847 128.022 164.768 128.453 164.572 128.833C164.376 129.213 164.072 129.528 163.696 129.735C163.322 129.941 162.895 130.032 162.468 129.995C162.042 129.957 161.636 129.794 161.302 129.526C160.969 129.257 160.723 128.896 160.595 128.488C160.468 128.079 160.465 127.642 160.587 127.231C160.71 126.821 160.951 126.457 161.281 126.184C161.611 125.91 162.015 125.743 162.44 125.7C163.003 125.644 163.567 125.812 164.007 126.166C164.448 126.521 164.732 127.035 164.797 127.597Z" fill-rule="evenodd" fill="#4605AD"/>
		<path d="M184.646 163.462C184.676 163.885 184.58 164.308 184.371 164.677C184.161 165.045 183.847 165.345 183.469 165.537C183.091 165.728 182.664 165.803 182.243 165.754C181.822 165.704 181.424 165.532 181.101 165.257C180.777 164.983 180.542 164.62 180.424 164.213C180.306 163.804 180.31 163.372 180.438 162.967C180.564 162.562 180.808 162.204 181.138 161.936C181.467 161.67 181.867 161.506 182.29 161.465C182.576 161.438 182.866 161.468 183.141 161.555C183.415 161.641 183.67 161.781 183.889 161.967C184.109 162.153 184.289 162.382 184.42 162.638C184.549 162.895 184.626 163.175 184.646 163.462Z" fill-rule="evenodd" fill="#4605AD"/>
		<path d="M184.247 139.319C184.272 139.737 184.174 140.153 183.965 140.515C183.756 140.877 183.444 141.171 183.071 141.359C182.696 141.545 182.275 141.618 181.859 141.568C181.444 141.518 181.052 141.348 180.733 141.077C180.414 140.806 180.181 140.448 180.063 140.047C179.946 139.645 179.949 139.218 180.072 138.818C180.196 138.417 180.434 138.063 180.757 137.797C181.081 137.531 181.474 137.366 181.89 137.322C182.177 137.295 182.467 137.325 182.741 137.412C183.016 137.498 183.27 137.637 183.49 137.824C183.71 138.01 183.889 138.239 184.02 138.495C184.15 138.752 184.227 139.032 184.247 139.319Z" fill-rule="evenodd" fill="#4605AD"/>
		<path d="M207.891 167.955C207.924 168.242 207.897 168.534 207.814 168.812C207.73 169.088 207.59 169.344 207.403 169.566C207.216 169.787 206.985 169.967 206.725 170.095C206.466 170.223 206.183 170.297 205.894 170.311C205.329 170.37 204.765 170.201 204.326 169.844C203.886 169.486 203.606 168.968 203.547 168.404C203.489 167.84 203.657 167.277 204.015 166.836C204.373 166.396 204.89 166.116 205.454 166.058C205.741 166.013 206.032 166.028 206.313 166.1C206.592 166.172 206.855 166.301 207.084 166.479C207.311 166.657 207.501 166.879 207.64 167.133C207.779 167.388 207.865 167.667 207.891 167.955Z" fill-rule="evenodd" fill="#4605AD"/>
		<path d="M210.526 145.39C210.554 145.676 210.523 145.966 210.438 146.24C210.352 146.515 210.211 146.77 210.025 146.989C209.839 147.209 209.611 147.389 209.354 147.519C209.098 147.649 208.817 147.726 208.53 147.746C208.112 147.772 207.696 147.673 207.333 147.464C206.971 147.255 206.678 146.944 206.491 146.57C206.304 146.195 206.23 145.774 206.28 145.359C206.33 144.943 206.501 144.551 206.771 144.232C207.042 143.913 207.4 143.68 207.803 143.562C208.204 143.446 208.631 143.449 209.032 143.572C209.431 143.695 209.787 143.933 210.052 144.256C210.318 144.58 210.483 144.974 210.526 145.39Z" fill-rule="evenodd" fill="#4605AD"/>
		<path d="M227.141 135.924C227.2 136.488 227.031 137.052 226.674 137.493C226.316 137.933 225.798 138.213 225.234 138.271C224.671 138.329 224.106 138.161 223.666 137.803C223.226 137.446 222.946 136.927 222.887 136.363C222.855 136.084 222.878 135.8 222.955 135.53C223.033 135.259 223.164 135.007 223.341 134.787C223.517 134.567 223.736 134.385 223.985 134.252C224.232 134.118 224.504 134.035 224.785 134.007C225.352 133.951 225.917 134.122 226.358 134.48C226.799 134.84 227.081 135.359 227.141 135.924Z" fill-rule="evenodd" fill="#4605AD"/>
		<path d="M144.368 210.849C140.705 208.691 137.523 205.802 135.022 202.362C134.102 197.816 134.102 193.13 135.022 188.583C135.062 188.509 135.123 188.448 135.198 188.408C135.273 188.369 135.358 188.354 135.442 188.364C140.518 189.043 145.662 189.043 150.738 188.364C150.786 188.358 150.834 188.363 150.879 188.375C150.925 188.388 150.968 188.41 151.005 188.44C151.042 188.47 151.073 188.506 151.096 188.548C151.119 188.59 151.133 188.636 151.138 188.683C151.677 193.735 152.136 196.411 152.516 201.124C152.516 201.803 149.96 202.881 145.007 210.849C144.984 210.915 144.94 210.972 144.883 211.013C144.826 211.053 144.758 211.073 144.688 211.073C144.618 211.073 144.55 211.053 144.493 211.013C144.435 210.972 144.392 210.915 144.368 210.849ZM135.661 201.983C138.03 205.196 141.009 207.91 144.428 209.97C146.438 206.654 148.845 203.597 151.597 200.864C151.238 196.291 150.798 193.655 150.299 188.883C145.375 189.533 140.386 189.533 135.462 188.883C134.734 193.226 134.802 197.664 135.661 201.983Z" fill-rule="evenodd" fill="#4605AD"/>
		<path d="M364.949 82.3269C364.848 82.3269 364.752 82.2869 364.681 82.2156C364.61 82.1445 364.57 82.0481 364.57 81.9475C364.739 79.0142 364.294 76.0779 363.263 73.3267C362.23 70.5757 360.636 68.0706 358.579 65.9719C358.51 65.9031 358.472 65.8098 358.472 65.7124C358.472 65.615 358.51 65.5215 358.579 65.4526C358.648 65.3838 358.742 65.3452 358.838 65.3452C358.936 65.3452 359.029 65.3838 359.098 65.4526C361.237 67.6038 362.9 70.1799 363.981 73.0144C365.061 75.8489 365.533 78.8787 365.368 81.9075C365.371 81.9634 365.362 82.019 365.342 82.0713C365.322 82.1235 365.292 82.1707 365.253 82.2102C365.213 82.2498 365.166 82.2808 365.113 82.3005C365.061 82.3208 365.005 82.3296 364.949 82.3269Z" fill-rule="evenodd" fill="#4605AD"/>
		<path d="M311.491 183.471C311.641 184.902 312.212 186.256 313.132 187.361C314.051 188.466 315.278 189.275 316.657 189.683C318.036 190.092 319.505 190.082 320.878 189.654C322.252 189.228 323.467 188.403 324.371 187.285C324.98 186.549 325.437 185.698 325.71 184.781C325.985 183.865 326.073 182.904 325.969 181.953L324.871 171.589C324.772 170.639 324.485 169.717 324.03 168.877C323.574 168.037 322.957 167.295 322.214 166.693C321.472 166.092 320.617 165.642 319.702 165.37C318.785 165.098 317.824 165.01 316.873 165.109C315.922 165.209 315.001 165.496 314.161 165.951C313.32 166.407 312.579 167.023 311.976 167.766C310.761 169.266 310.192 171.188 310.393 173.107L311.491 183.471ZM316.943 165.858C317.798 165.764 318.661 165.84 319.486 166.082C320.311 166.323 321.079 166.727 321.748 167.267C322.416 167.807 322.972 168.474 323.38 169.23C323.789 169.986 324.045 170.814 324.132 171.669L325.21 182.033C325.334 182.903 325.281 183.788 325.055 184.636C324.829 185.485 324.434 186.279 323.894 186.97C323.354 187.663 322.68 188.24 321.912 188.665C321.144 189.09 320.299 189.357 319.425 189.449C318.552 189.54 317.669 189.455 316.83 189.197C315.99 188.939 315.212 188.515 314.541 187.949C313.869 187.384 313.317 186.689 312.921 185.906C312.524 185.122 312.289 184.268 312.23 183.391L311.132 173.027C310.959 171.308 311.472 169.588 312.561 168.245C313.649 166.902 315.225 166.045 316.943 165.858Z" fill-rule="evenodd" fill="#4605AD"/>
		<path d="M331.121 181.874L330.582 176.761C330.56 176.667 330.507 176.582 330.431 176.52C330.355 176.459 330.26 176.424 330.163 176.422C330.113 176.427 330.065 176.442 330.021 176.466C329.976 176.49 329.937 176.522 329.906 176.561C329.874 176.6 329.851 176.645 329.836 176.693C329.822 176.741 329.818 176.791 329.823 176.841L330.362 181.973C330.576 183.522 330.476 185.098 330.069 186.607C329.66 188.116 328.953 189.528 327.99 190.758C327.025 191.989 325.824 193.012 324.456 193.769C323.088 194.527 321.583 195 320.028 195.164C318.473 195.328 316.902 195.177 315.407 194.721C313.912 194.264 312.524 193.513 311.325 192.509C310.126 191.506 309.142 190.272 308.429 188.881C307.717 187.49 307.292 185.969 307.178 184.41L306.639 179.278C306.639 179.178 306.599 179.081 306.528 179.01C306.457 178.938 306.36 178.898 306.259 178.898C306.159 178.898 306.063 178.938 305.992 179.01C305.92 179.081 305.88 179.178 305.88 179.278L306.419 184.41C306.762 187.619 308.34 190.569 310.818 192.637C313.295 194.705 316.481 195.729 319.699 195.492L320.617 204.299L315.884 204.778C315.785 204.778 315.688 204.818 315.617 204.89C315.545 204.961 315.505 205.058 315.505 205.158C315.505 205.259 315.545 205.355 315.617 205.426C315.688 205.497 315.785 205.537 315.884 205.537L326.129 204.459C326.185 204.472 326.243 204.473 326.298 204.46C326.354 204.448 326.406 204.423 326.451 204.387C326.496 204.352 326.532 204.306 326.557 204.255C326.582 204.203 326.595 204.147 326.595 204.089C326.595 204.032 326.582 203.977 326.557 203.925C326.532 203.873 326.496 203.828 326.451 203.793C326.406 203.757 326.354 203.732 326.298 203.72C326.243 203.707 326.185 203.707 326.129 203.72L321.416 204.219L320.477 195.413C323.656 194.965 326.537 193.306 328.521 190.783C330.504 188.26 331.437 185.068 331.121 181.874Z" fill-rule="evenodd" fill="#4605AD"/>
		<path d="M249.267 240.084L247.05 214.124C247.045 214.057 247.022 213.993 246.984 213.937C246.946 213.882 246.894 213.838 246.833 213.809C246.772 213.781 246.704 213.769 246.637 213.775C246.57 213.781 246.506 213.805 246.451 213.844L235.848 221.213C235.307 218.802 233.915 216.667 231.927 215.199C229.939 213.732 227.488 213.031 225.024 213.225C224.685 213.225 201.62 215.222 201.361 215.222C198.666 215.451 196.172 216.741 194.426 218.808C192.681 220.875 191.828 223.55 192.055 226.245L192.993 237.288C193.227 239.986 194.521 242.48 196.592 244.225C198.662 245.969 201.34 246.822 204.036 246.594L227.7 244.597C230.161 244.379 232.461 243.278 234.174 241.499C235.888 239.719 236.901 237.38 237.026 234.912L248.748 240.404C248.803 240.431 248.864 240.443 248.924 240.441C248.985 240.438 249.044 240.419 249.096 240.387C249.148 240.355 249.191 240.312 249.221 240.259C249.251 240.205 249.267 240.145 249.267 240.084ZM227.62 243.878C227.42 243.878 204.196 245.875 203.957 245.875C202.72 245.982 201.474 245.844 200.291 245.47C199.108 245.094 198.011 244.49 197.061 243.691C196.112 242.892 195.329 241.913 194.758 240.811C194.187 239.709 193.838 238.505 193.732 237.268L192.794 226.225C192.687 224.989 192.825 223.743 193.2 222.56C193.575 221.377 194.18 220.279 194.978 219.33C195.778 218.38 196.757 217.597 197.858 217.026C198.96 216.455 200.164 216.107 201.4 216.001L225.064 214.004C227.561 213.805 230.036 214.599 231.951 216.215C233.866 217.83 235.065 220.135 235.288 222.631L236.227 233.654C236.433 236.149 235.643 238.624 234.03 240.539C232.418 242.454 230.114 243.656 227.62 243.878ZM237.006 234.133C237.006 233.913 236.007 222.152 235.967 222.032L246.351 214.783L248.468 239.505L237.006 234.133Z" fill-rule="evenodd" fill="#4605AD"/>
		<path d="M24.9721 161.784C24.8713 161.784 24.775 161.744 24.7038 161.673C24.6326 161.603 24.5927 161.506 24.5927 161.405C24.5927 161.305 24.6326 161.208 24.7038 161.137C24.775 161.065 24.8713 161.025 24.9721 161.025L32.86 160.227C32.9605 160.227 33.0571 160.267 33.1282 160.338C33.1994 160.409 33.2394 160.506 33.2394 160.606C33.2394 160.707 33.1994 160.804 33.1282 160.875C33.0571 160.946 32.9605 160.985 32.86 160.985L24.9721 161.784Z" fill-rule="evenodd" fill="#4605AD"/>
		<path d="M46.8983 159.548C46.7976 159.548 46.7012 159.508 46.6301 159.437C46.5589 159.366 46.5189 159.269 46.5189 159.168C46.5189 159.069 46.5589 158.972 46.6301 158.901C46.7012 158.829 46.7976 158.789 46.8983 158.789L54.886 157.99C54.9868 157.99 55.0831 158.03 55.1543 158.102C55.2255 158.173 55.2654 158.27 55.2654 158.37C55.2654 158.47 55.2255 158.567 55.1543 158.638C55.0831 158.709 54.9868 158.749 54.886 158.749L46.8983 159.548Z" fill-rule="evenodd" fill="#4605AD"/>
		<path d="M38.7907 152.918L37.992 144.93C37.9789 144.875 37.9787 144.817 37.9911 144.761C38.0036 144.706 38.0285 144.654 38.0641 144.609C38.0996 144.564 38.1448 144.528 38.1963 144.503C38.2478 144.478 38.3042 144.465 38.3614 144.465C38.4185 144.465 38.475 144.478 38.5264 144.503C38.578 144.528 38.6232 144.564 38.6586 144.609C38.6943 144.654 38.7191 144.706 38.7316 144.761C38.7441 144.817 38.7438 144.875 38.7308 144.93L39.5495 152.918C39.5495 153.019 39.5095 153.115 39.4384 153.187C39.3672 153.257 39.2708 153.297 39.1701 153.297C39.0695 153.297 38.973 153.257 38.9018 153.187C38.8308 153.115 38.7907 153.019 38.7907 152.918Z" fill-rule="evenodd" fill="#4605AD"/>
		<path d="M41.0273 174.764L40.2285 166.777C40.248 166.694 40.2952 166.619 40.3622 166.566C40.4292 166.513 40.5124 166.484 40.5979 166.484C40.6835 166.484 40.7666 166.513 40.8337 166.566C40.9007 166.619 40.9478 166.694 40.9674 166.777L41.786 174.764C41.786 174.865 41.7462 174.962 41.675 175.033C41.6038 175.104 41.5072 175.144 41.4067 175.144C41.3061 175.144 41.2095 175.104 41.1383 175.033C41.0673 174.962 41.0273 174.865 41.0273 174.764Z" fill-rule="evenodd" fill="#4605AD"/>
		<path d="M34.4174 155.813C34.2178 155.813 34.6372 156.113 28.0273 150.701C27.628 150.382 28.1272 149.803 28.4867 150.122L34.6571 155.135C34.72 155.183 34.7659 155.251 34.7884 155.327C34.8108 155.404 34.8086 155.486 34.7822 155.561C34.7556 155.636 34.7061 155.701 34.6406 155.747C34.5752 155.792 34.4972 155.815 34.4174 155.813Z" fill-rule="evenodd" fill="#4605AD"/>
		<path d="M51.5112 169.732C51.3115 169.732 51.7109 170.012 45.121 164.64C45.0693 164.616 45.0238 164.58 44.988 164.536C44.9522 164.491 44.9268 164.439 44.9138 164.383C44.9008 164.327 44.9006 164.271 44.9132 164.215C44.9256 164.159 44.9507 164.107 44.9861 164.062C45.0215 164.017 45.0668 163.981 45.1182 163.956C45.1695 163.931 45.2259 163.918 45.2832 163.918C45.3402 163.918 45.3966 163.931 45.448 163.956C45.4996 163.98 45.5446 164.017 45.5803 164.061L51.7508 169.073C51.8061 169.124 51.8453 169.19 51.8632 169.263C51.8811 169.336 51.8768 169.413 51.8513 169.483C51.8257 169.553 51.7796 169.615 51.7191 169.659C51.6586 169.704 51.5862 169.729 51.5112 169.732Z" fill-rule="evenodd" fill="#4605AD"/>
		<path d="M44.3422 154.795C44.27 154.796 44.1989 154.777 44.1375 154.739C44.0761 154.701 44.0268 154.646 43.9953 154.582C43.9639 154.517 43.9515 154.444 43.96 154.372C43.9684 154.3 43.997 154.232 44.0428 154.176L49.0749 148.026C49.3745 147.626 49.9536 148.026 49.654 148.505C44.1425 155.175 44.5818 154.795 44.3422 154.795Z" fill-rule="evenodd" fill="#4605AD"/>
		<path d="M30.4036 171.889C30.3332 171.887 30.2648 171.864 30.2062 171.825C30.1477 171.785 30.1013 171.73 30.0722 171.666C30.0433 171.602 30.0326 171.531 30.0418 171.461C30.0509 171.391 30.0794 171.325 30.1241 171.27L35.1363 165.119C35.1649 165.073 35.203 165.034 35.248 165.004C35.2931 164.974 35.344 164.954 35.3975 164.945C35.4511 164.937 35.5058 164.938 35.5582 164.954C35.6105 164.968 35.6591 164.992 35.7009 165.027C35.7427 165.061 35.7765 165.104 35.8002 165.153C35.8239 165.202 35.837 165.255 35.8383 165.31C35.8397 165.364 35.8294 165.418 35.8083 165.468C35.787 165.518 35.7554 165.562 35.7155 165.599C30.2638 172.268 30.6632 171.889 30.4036 171.889Z" fill-rule="evenodd" fill="#4605AD"/>
		<path d="M113.915 65.0732C113.009 64.0515 112.536 62.7185 112.594 61.3545C112.651 59.9905 113.236 58.7019 114.224 57.7603C115.212 56.8184 116.528 56.2966 117.893 56.3049C119.258 56.3132 120.567 56.8508 121.543 57.8044C122.05 58.2993 122.453 58.8914 122.725 59.5449C122.999 60.1985 123.137 60.9004 123.133 61.6089C123.129 62.3171 122.981 63.0173 122.7 63.6675C122.42 64.3179 122.011 64.9048 121.497 65.3936C120.985 65.8821 120.379 66.2625 119.716 66.5117C119.053 66.7607 118.346 66.8738 117.638 66.844C116.93 66.8142 116.236 66.6418 115.596 66.3376C114.957 66.0334 114.385 65.6035 113.915 65.0732ZM114.614 58.1838C114.177 58.5908 113.825 59.0806 113.578 59.6248C113.332 60.1689 113.196 60.7566 113.178 61.3535C113.16 61.9507 113.262 62.5454 113.476 63.103C113.689 63.6609 114.012 64.1707 114.424 64.6028C114.837 65.0349 115.331 65.3809 115.878 65.6206C116.425 65.8606 117.014 65.9893 117.611 65.9995C118.208 66.01 118.801 65.9016 119.357 65.6809C119.912 65.4602 120.418 65.1316 120.844 64.7139C121.282 64.3069 121.634 63.8171 121.881 63.2729C122.127 62.729 122.263 62.1414 122.281 61.5442C122.298 60.9473 122.197 60.3525 121.984 59.7947C121.77 59.2371 121.447 58.7273 121.035 58.2952C120.623 57.863 120.128 57.5168 119.581 57.2771C119.034 57.0374 118.445 56.9084 117.848 56.8982C117.251 56.8879 116.657 56.9961 116.103 57.2168C115.547 57.4375 115.041 57.7664 114.614 58.1838Z" fill-rule="evenodd" fill="#4605AD"/>
		<path d="M334.895 9.45874L324.911 10.2776L324.072 0.292969C324.053 0.209473 324.006 0.135254 323.938 0.0820312C323.871 0.0290527 323.788 0 323.702 0C323.618 0 323.534 0.0290527 323.467 0.0820312C323.4 0.135254 323.353 0.209473 323.333 0.292969L324.172 10.2776L314.187 11.0964C314.086 11.0964 313.99 11.1362 313.919 11.2075C313.848 11.2786 313.808 11.375 313.808 11.4758C313.808 11.5764 313.848 11.6729 313.919 11.7441C313.99 11.8152 314.086 11.8552 314.187 11.8552L324.172 11.0164L324.99 21.0012C324.99 21.1018 325.03 21.1982 325.102 21.2693C325.173 21.3406 325.27 21.3806 325.37 21.3806C325.471 21.3806 325.568 21.3406 325.638 21.2693C325.709 21.1982 325.749 21.1018 325.749 21.0012L324.911 11.0164L334.895 10.1777C334.953 10.197 335.013 10.2024 335.073 10.1936C335.133 10.1846 335.189 10.1616 335.239 10.1267C335.287 10.0913 335.328 10.0452 335.355 9.99146C335.383 9.93799 335.396 9.87866 335.396 9.81836C335.396 9.75806 335.383 9.69873 335.355 9.64502C335.328 9.59155 335.287 9.54517 335.239 9.51001C335.189 9.47485 335.133 9.4519 335.073 9.44312C335.013 9.43408 334.953 9.4397 334.895 9.45874Z" fill-rule="evenodd" fill="#4605AD"/>
		<path d="M250.265 104.093C249.726 103.314 248.049 103.614 245.373 104.952C244.874 105.211 242.897 106.21 241.199 107.128C242.258 105.89 243.316 104.692 244.334 103.654C247.21 100.758 248.328 98.8616 247.689 98.0427C247.45 97.7432 246.751 96.8645 241.599 99.8796C236.023 103.673 230.88 108.066 226.262 112.979C222.867 116.554 224.146 106.609 223.786 104.333C223.427 102.056 223.127 100.698 222.268 100.638C221.41 100.578 220.771 101.497 219.413 106.07C218.754 108.247 216.118 114.956 210.866 127.856C209.871 127.874 208.879 127.94 207.891 128.056C207.132 128.056 208.17 129.294 199.144 149.743L197.646 153.198C178.795 121.047 175.101 117.832 150.738 116.394C150.197 116.324 149.689 116.098 149.274 115.743C148.859 115.389 148.557 114.921 148.402 114.397C149.56 114.557 154.552 114.258 155.631 112.7C156.709 111.142 157.009 108.386 155.331 100.519C155.862 100.318 156.332 99.9805 156.691 99.54C157.05 99.1001 157.287 98.5735 157.378 98.0127C157.469 97.4519 157.411 96.8772 157.209 96.3462C157.008 95.8152 156.67 95.3464 156.23 94.9875C156.808 94.7112 157.29 94.271 157.619 93.7219C157.947 93.1726 158.107 92.5386 158.077 91.8994C158.047 91.26 157.829 90.6438 157.451 90.1274C157.074 89.6111 156.551 89.2178 155.95 88.9966C156.331 88.5378 156.577 87.9829 156.661 87.3931C156.746 86.8035 156.666 86.2017 156.432 85.6543C156.196 85.1069 155.814 84.6353 155.327 84.2913C154.841 83.9473 154.269 83.7444 153.674 83.7048C153.86 83.1438 153.887 82.5427 153.755 81.9668C153.622 81.3911 153.334 80.8625 152.923 80.4387C152.512 80.0149 151.991 79.7117 151.42 79.5623C150.848 79.4128 150.247 79.4229 149.68 79.5911C149.673 78.9812 149.493 78.386 149.162 77.874C148.83 77.3621 148.361 76.9541 147.808 76.6973C147.255 76.4407 146.64 76.3452 146.035 76.4229C145.43 76.5002 144.859 76.7471 144.388 77.135C144.165 76.552 143.785 76.0425 143.29 75.6628C142.795 75.283 142.204 75.0481 141.583 74.9839C140.962 74.9199 140.336 75.0291 139.774 75.2996C139.211 75.5698 138.735 75.991 138.397 76.5159C138.014 76.0432 137.506 75.6882 136.93 75.4917C136.353 75.2952 135.734 75.2649 135.142 75.4048C134.55 75.5444 134.009 75.8484 133.582 76.2815C133.154 76.7148 132.858 77.2598 132.726 77.8538C132.198 77.5662 131.6 77.4321 131 77.4673C130.4 77.5022 129.822 77.7048 129.33 78.0522C128.84 78.3997 128.456 78.8777 128.223 79.4319C127.99 79.9863 127.917 80.595 128.013 81.1887C127.423 81.105 126.822 81.1863 126.275 81.4229C125.728 81.6597 125.257 82.043 124.914 82.5305C124.571 83.0181 124.369 83.5908 124.331 84.1858C124.293 84.7805 124.421 85.3743 124.698 85.9014C124.091 86.0173 123.529 86.304 123.079 86.7275C122.629 87.1511 122.308 87.6946 122.154 88.2937C122.002 88.8931 122.022 89.5234 122.215 90.1111C122.408 90.699 122.763 91.2197 123.241 91.6125C122.692 91.8994 122.238 92.3374 121.932 92.8748C121.624 93.4121 121.478 94.0261 121.509 94.644C121.541 95.262 121.749 95.8582 122.109 96.3613C122.469 96.8647 122.966 97.2542 123.54 97.4836C123.165 97.9453 122.923 98.502 122.843 99.0918C122.763 99.6819 122.848 100.283 123.087 100.827C123.326 101.372 123.712 101.842 124.201 102.181C124.689 102.521 125.263 102.72 125.857 102.755C125.677 103.315 125.653 103.914 125.788 104.487C125.922 105.059 126.21 105.584 126.621 106.005C127.032 106.427 127.549 106.727 128.118 106.876C128.687 107.025 129.286 107.016 129.85 106.849C129.862 107.457 130.045 108.05 130.378 108.559C130.71 109.068 131.179 109.473 131.733 109.728C132.285 109.982 132.898 110.075 133.501 109.997C134.104 109.919 134.673 109.673 135.142 109.285C135.366 109.993 135.829 110.6 136.453 111C137.076 111.402 137.821 111.573 138.557 111.482C133.685 117.273 129.87 117.013 120.345 121.247C117.36 122.596 114.748 124.651 112.737 127.238C112.417 123.763 112.258 120.907 112.277 119.25C112.277 114.896 111.878 113.898 111.219 113.758C110.56 113.618 109.761 114.797 108.883 116.574C108.004 118.351 106.387 127.218 104.549 123.463C101.859 117.944 98.5643 112.74 94.7249 107.947C91.4498 104.353 90.4114 104.373 89.9121 104.732C88.4745 105.75 91.29 110.184 93.0074 114.177C91.7693 112.919 90.3315 111.542 90.1119 111.322C88.115 109.325 86.757 108.726 86.1181 109.325C85.9637 109.464 85.8647 109.653 85.8389 109.858C85.8134 110.064 85.8627 110.271 85.9783 110.443C87.0765 112.44 89.0335 115.316 90.3716 117.572C89.3131 116.833 86.8169 115.176 85.9582 116.115C85.8232 116.273 85.749 116.476 85.749 116.684C85.749 116.892 85.8232 117.094 85.9582 117.253C90.1518 122.525 93.0473 123.943 97.5005 133.228C97.6802 134.347 97.8401 137.222 97.9796 139.858C96.4622 140.238 95.3837 140.557 95.2639 140.597C95.1834 140.627 95.1149 140.682 95.068 140.754C95.0214 140.826 94.9989 140.911 95.0043 140.996C96.4221 158.21 99.3177 169.972 104.13 177.979C105.443 180.33 107.581 182.109 110.131 182.972C112.68 183.835 115.459 183.722 117.929 182.652C112.253 187.036 107.91 192.914 105.388 199.626C100.895 211.768 85.8384 226.605 84.0612 228.322C62.0949 207.674 60.6572 206.236 60.4375 206.096C59.9209 205.652 59.2993 205.347 58.6317 205.211C57.9641 205.075 57.2727 205.112 56.6233 205.317L46.6387 193.136C39.2101 182.573 -6.18015 220.235 0.709305 229.74C1.39928 230.503 2.24977 231.102 3.19936 231.495C4.14896 231.889 5.17412 232.067 6.20087 232.016C11.313 232.016 18.3222 228.582 24.7923 226.764C28.5665 225.726 32.3007 224.468 35.7953 225.606C35.6214 226.198 35.6018 226.824 35.7381 227.426C35.8745 228.027 36.1623 228.583 36.574 229.041C36.7539 229.241 36.5742 229.041 76.1334 263.249C78.9526 265.678 82.574 266.972 86.294 266.88C90.0142 266.787 93.567 265.315 96.2624 262.749C105.588 254.522 127.095 235.491 135.482 228.062C135.821 228.502 136.161 228.941 136.52 229.341C141.923 235.742 144.768 243.914 144.508 252.285L127.175 301.949C127.175 302.208 127.175 302.348 127.414 302.468C128.373 303.067 129.411 303.646 130.29 304.206C126.615 312.872 122.482 322.178 121.383 324.674C120.285 327.17 121.064 331.144 121.723 333.72C124.67 343.802 129.405 353.271 135.701 361.677C140.195 368.047 148.382 378.032 152.136 371.222C154.912 366.19 152.675 355.247 149.74 348.098C142.99 331.483 151.537 318.723 153.374 312.413C154.572 312.613 155.791 312.772 157.029 312.912C157.154 312.929 157.282 312.903 157.391 312.838C157.501 312.772 157.584 312.672 157.628 312.553C158.646 309.717 175.241 263.029 175.301 262.849C177.266 256.529 178.097 249.91 177.757 243.299C177.337 218.697 176.519 201.923 169.15 176.761C171.147 172.768 170.668 159.947 170.488 155.833C176.466 164.085 183.147 171.802 190.457 178.898C192.173 180.547 194.254 181.764 196.533 182.45C198.81 183.135 201.218 183.27 203.558 182.843C205.898 182.416 208.103 181.439 209.991 179.993C211.88 178.547 213.398 176.673 214.42 174.525C219.832 163.102 227.021 145.629 229.477 134.007C229.492 133.932 229.484 133.855 229.456 133.784C229.427 133.714 229.379 133.653 229.318 133.608L227.76 132.629C229.018 129.195 229.937 126.758 230.476 125.68C238.124 117.333 241.978 116.534 247.909 112.48C248.096 112.365 248.235 112.188 248.304 111.98C248.374 111.772 248.368 111.547 248.288 111.342C247.669 110.084 244.295 111.082 243.017 111.502C245.013 109.665 248.308 107.029 250.126 105.291C250.293 105.145 250.401 104.941 250.427 104.719C250.453 104.499 250.395 104.275 250.265 104.093ZM137.678 113.519C138.897 112.301 145.387 104.153 146.445 102.795C146.497 102.726 146.525 102.642 146.525 102.555C146.525 102.469 146.497 102.386 146.445 102.316C142.811 98.3223 145.446 95.6665 147.324 98.3223C148.602 100.119 150.858 99.8201 149.86 94.6279C150.88 94.1829 151.862 93.6553 152.795 93.0505C155.93 105.311 156.25 109.704 155.351 111.721C154.453 113.738 148.821 110.144 146.824 108.686C146.765 108.635 146.692 108.604 146.613 108.598C146.535 108.593 146.457 108.613 146.391 108.656C146.325 108.699 146.276 108.763 146.249 108.837C146.223 108.911 146.222 108.99 146.245 109.065C146.884 112.101 147.423 116.334 150.039 117.053C138.717 122.485 132.906 118.83 131.468 117.672C133.797 116.721 135.91 115.308 137.678 113.519ZM93.2071 124.382C91.33 121.886 86.4575 116.874 86.3976 116.394C86.4973 116.394 87.3762 116.254 89.7524 117.872C90.6474 118.538 91.3954 119.381 91.949 120.348C93.1671 122.844 94.9244 126.039 96.0627 128.935C95.2007 127.363 94.2473 125.843 93.2071 124.382ZM92.6081 120.029C91.5373 117.92 90.3367 115.879 89.0135 113.918C88.0957 112.563 87.2556 111.156 86.4973 109.704C86.4973 109.704 87.476 109.704 89.5527 111.701C89.8524 112.001 92.5481 114.577 93.7662 115.915C95.5407 120.247 96.671 124.815 97.1211 129.474C95.7929 126.245 94.2861 123.092 92.6081 120.029ZM91.929 110.044C89.9321 106.409 90.1718 105.311 90.3115 105.231C90.4513 105.151 91.0504 104.872 94.0657 108.307C98.8261 114.265 102.743 120.85 105.708 127.876C105.72 127.932 105.743 127.984 105.777 128.029C105.811 128.074 105.855 128.111 105.905 128.137C105.956 128.163 106.011 128.177 106.068 128.179C106.125 128.181 106.181 128.17 106.233 128.147C106.285 128.124 106.331 128.09 106.368 128.047C106.404 128.004 106.43 127.953 106.445 127.898C106.46 127.844 106.462 127.787 106.452 127.732C106.442 127.676 106.419 127.623 106.387 127.577C106.027 126.698 105.628 125.82 105.228 124.941C107.565 125.281 108.603 118.491 109.462 116.734C109.741 116.175 110.62 114.397 110.94 114.317C111.259 114.238 111.459 114.876 111.419 119.09C111.419 121.087 111.599 124.182 111.958 128.056C109.738 131.265 108.14 134.863 107.245 138.66C104.328 138.467 101.398 138.764 98.5788 139.539C98.0596 128.316 97.4804 120.887 91.929 110.044ZM113.895 187.165C115.536 187.178 117.154 187.561 118.628 188.284C115.473 190.48 112.537 197.27 112.098 198.268L105.268 201.503C107.095 196.151 110.023 191.289 113.895 187.165ZM36.4144 225.107C32.6003 223.729 28.8261 224.967 24.6325 226.146C17.7631 228.142 10.3744 231.777 5.34219 231.298C17.6032 229.86 47.2777 204.658 47.1179 195.033C48.2762 196.471 57.6018 207.734 60.2178 211.009C58.0012 217.619 48.5757 227.124 41.8261 228.981C40.3775 227.24 38.5271 225.876 36.4344 225.007L36.4144 225.107ZM38.8506 230.079C47.2978 230.978 62.4144 214.463 61.3961 208.113L69.6434 215.881C65.4697 227.643 58.5004 234.992 48.3361 238.327L38.8506 230.079ZM95.8031 262.31C93.8809 264.112 91.5073 265.361 88.9337 265.924C86.7743 266.36 84.5434 266.289 82.4161 265.718C80.2888 265.146 78.3229 264.089 76.6725 262.629L49.015 238.666C53.6245 237.132 57.8149 234.548 61.2562 231.118L78.0304 245.795C80.7668 248.198 84.2838 249.523 87.9252 249.523C91.5666 249.523 95.0836 248.198 97.82 245.795L129.431 217.838L129.831 232.136L95.8031 262.31ZM145.267 251.926C145.405 243.534 142.512 235.373 137.119 228.941C131.73 222.42 128.363 214.466 127.434 206.056C127.447 206.001 127.448 205.944 127.435 205.888C127.423 205.832 127.398 205.78 127.362 205.735C127.326 205.69 127.281 205.654 127.23 205.629C127.179 205.604 127.123 205.591 127.065 205.591C127.008 205.591 126.951 205.604 126.9 205.629C126.848 205.654 126.803 205.69 126.768 205.735C126.732 205.78 126.707 205.832 126.695 205.888C126.682 205.944 126.682 206.001 126.695 206.056C127.002 209.803 127.883 213.482 129.311 216.959L97.3608 245.336C94.7594 247.619 91.4164 248.878 87.9551 248.878C84.494 248.878 81.1509 247.619 78.5496 245.336L61.7755 230.678C65.5767 226.531 68.4676 221.633 70.2625 216.301L89.7125 234.672C90.0519 235.012 90.5711 234.453 90.2117 234.113L84.5204 228.682C86.2977 226.964 99.2378 214.164 104.789 202.602C112.897 198.768 112.777 198.927 112.777 198.728C112.777 198.528 116.291 190.161 119.606 188.523C119.665 188.49 119.713 188.442 119.747 188.385C119.78 188.327 119.798 188.261 119.798 188.194C119.798 188.127 119.78 188.062 119.747 188.004C119.713 187.946 119.665 187.898 119.606 187.864C118.073 187.037 116.389 186.52 114.654 186.347C117.257 183.758 120.167 181.498 123.32 179.617C123.6 179.437 123.58 179.357 123.58 179.058C134.104 182.213 149.66 181.055 160.443 179.058C165.136 197.469 167.073 217.559 168.671 243.938C169.029 249.588 168.303 255.255 166.534 260.632C165.056 265.186 160.543 279.364 154.692 298.055C146.746 296.495 139.245 293.194 132.726 288.39C145.986 250.528 145.247 252.645 145.287 251.826L145.267 251.926ZM149.081 348.477C152.176 356.046 153.714 365.271 151.917 370.044C152.735 358.522 130.11 319.961 122.801 323.396C124.459 319.662 127.854 311.934 130.929 304.685C137.682 308.466 145.029 311.073 152.655 312.393C150.878 318.324 142.311 331.703 149.101 348.377L149.081 348.477ZM157.069 312.253C146.721 311.086 136.779 307.553 128.013 301.929L132.486 289.129C140.918 295.43 151.047 299.054 161.562 299.533L157.069 312.253ZM177.038 243.419C177.362 249.913 176.552 256.414 174.642 262.629C174.222 263.847 166.874 284.596 161.761 298.874C159.634 298.815 157.513 298.615 155.411 298.275C158.367 288.949 166.035 264.606 167.193 261.012C169.008 255.52 169.754 249.731 169.39 243.958C167.772 217.539 165.835 197.43 161.142 178.958C163.599 178.479 166.055 177.92 168.451 177.281C175.78 202.142 176.599 218.857 177.078 243.319L177.038 243.419ZM228.579 134.187C226.083 145.749 218.993 162.982 213.642 174.285C212.675 176.336 211.232 178.126 209.434 179.506C207.636 180.887 205.534 181.818 203.304 182.222C201.073 182.626 198.777 182.492 196.61 181.831C194.441 181.17 192.462 179.999 190.837 178.419C181.031 168.819 172.324 158.156 164.877 146.628C164.826 146.558 164.753 146.507 164.669 146.484C164.585 146.461 164.496 146.468 164.416 146.503C164.336 146.538 164.272 146.6 164.232 146.677C164.193 146.754 164.181 146.842 164.198 146.927L169.949 164.301C169.949 169.033 169.589 174.185 168.571 176.402C152.396 180.755 134.004 181.514 123.6 178.279C123.6 165.858 117.45 140.757 117.39 140.497C117.389 140.441 117.374 140.385 117.348 140.334C117.322 140.284 117.285 140.24 117.24 140.206C117.195 140.172 117.142 140.148 117.087 140.137C117.031 140.125 116.973 140.127 116.918 140.14C116.863 140.154 116.812 140.18 116.769 140.216C116.725 140.252 116.69 140.297 116.666 140.349C116.643 140.401 116.631 140.457 116.632 140.514C116.632 140.571 116.646 140.626 116.671 140.677C116.671 140.917 122.661 164.9 122.841 177.46C118.168 184.19 108.863 184.51 104.709 177.46C99.9764 169.592 97.1211 158.03 95.7233 141.096C97.1411 140.657 103.711 138.88 107.125 139.419C105.334 148.521 105.219 157.873 106.786 167.016C106.795 167.064 106.814 167.109 106.841 167.149C106.867 167.189 106.901 167.224 106.941 167.25C106.981 167.277 107.026 167.296 107.072 167.306C107.119 167.315 107.168 167.316 107.215 167.306C107.263 167.297 107.308 167.279 107.348 167.252C107.388 167.226 107.422 167.191 107.449 167.151C107.476 167.112 107.495 167.067 107.505 167.019C107.514 166.972 107.515 166.925 107.505 166.876C107.505 166.517 100.835 130.752 120.645 121.946C125.258 119.949 127.634 119.21 130.629 117.952C132.914 119.885 135.849 120.87 138.837 120.708C143.233 120.543 147.525 119.331 151.357 117.173C175.96 118.691 178.815 122.405 200.062 158.869C200.113 158.957 200.196 159.021 200.293 159.047C200.391 159.073 200.495 159.06 200.582 159.009C200.67 158.959 200.734 158.876 200.759 158.778C200.785 158.681 200.772 158.577 200.721 158.49C199.803 156.952 198.944 155.454 198.086 154.016C199.244 150.981 204.815 139.479 208.07 128.755C215.339 127.998 222.636 129.891 228.619 134.087L228.579 134.187ZM227.001 132.31C222.348 129.532 217.044 128.03 211.625 127.956C216.897 115.056 219.433 108.586 220.092 106.39C221.45 101.856 222.089 101.497 222.089 101.477C222.089 101.457 222.808 103.833 222.927 104.552C223.267 106.729 222.109 114.337 224.745 114.537C224.026 115.336 223.307 116.175 222.608 117.013C222.56 117.091 222.542 117.184 222.556 117.275C222.571 117.365 222.618 117.448 222.689 117.505C222.76 117.564 222.849 117.595 222.94 117.592C223.032 117.59 223.12 117.554 223.187 117.492C228.607 111.032 234.89 105.347 241.858 100.598C246.331 97.9629 246.97 98.6018 246.97 98.6018C246.97 98.6018 246.831 100.039 243.695 103.234C234.39 112.7 231.334 120.648 227.041 132.21L227.001 132.31ZM243.456 112.201C247.01 111.102 247.45 111.741 247.45 111.741C247.45 111.741 247.45 111.861 247.31 111.941C241.419 115.935 238.983 116.195 232.672 122.285C235.477 118.961 238.451 115.782 241.579 112.76L243.456 112.201ZM245.453 108.307C240.435 112.541 235.811 117.22 231.634 122.285C233.674 117.373 236.441 112.796 239.841 108.706C241.479 107.748 244.993 105.97 245.672 105.631C249.007 103.953 249.666 104.512 249.666 104.512C248.397 105.838 247.035 107.073 245.593 108.207L245.453 108.307Z" fill-rule="evenodd" fill="#4605AD"/>
	</g>
	<defs>
		<clipPath id="clip9_715">
			<rect width="379.989990" height="373.505859" fill="white"/>
		</clipPath>
	</defs>
</svg>
