<svg width="20.003418" height="20.000732" viewBox="0 0 20.0034 20.0007" fill="none" xmlns="http://www.w3.org/2000/svg" xmlns:xlink="http://www.w3.org/1999/xlink">
	<desc>
			Created with Pixso.
	</desc>
	<path d="M13.4421 7.55545C13.9523 6.20792 14.2108 5.02847 14.2108 4.01144C14.2108 1.74603 13.1693 0 11.4381 0C10.4987 0 10.2081 0.476868 9.84436 1.64972C9.86322 1.58835 9.66357 2.24841 9.6059 2.42499C9.4939 2.76495 9.29871 3.34097 9.02142 4.15402L5.80963 8.4516C5.0376 9.48016 3.98212 10.2126 2.64325 10.649L1.24915 11.1032C0.809143 11.2467 0.474792 11.4939 0.246216 11.8447C0.0175781 12.1955 -0.0518188 12.5678 0.0380859 12.9616L0.798889 16.3026C1.00159 17.1928 1.62006 17.7458 2.65436 17.9618L11.8041 19.8712C12.4785 20.0118 13.1589 20.038 13.8453 19.9496C14.5319 19.8612 15.1727 19.6649 15.7681 19.3607C16.3635 19.0566 16.8684 18.6674 17.2831 18.1932C17.6977 17.7191 17.9908 17.1956 18.1624 16.6227L19.908 10.7935C20.0242 10.4051 20.0343 10.0146 19.9382 9.62219C19.8421 9.2298 19.6496 8.87531 19.3607 8.55881C19.0718 8.24228 18.7159 7.99591 18.293 7.81973C17.8701 7.64355 17.4232 7.55545 16.9523 7.55545L13.4421 7.55545Z" fill-rule="evenodd" fill="#212121"/>
	<defs/>
</svg>
