<svg width="24.000000" height="30.000000" viewBox="0 0 24 30" fill="none" xmlns="http://www.w3.org/2000/svg" xmlns:xlink="http://www.w3.org/1999/xlink">
	<desc>
			Created with Pixso.
	</desc>
	<path d="M12 0C13.6569 0 15.071 0.585815 16.2426 1.75739C17.4142 2.92896 18 4.34314 18 6L18 9L21.75 9C22.3713 9 22.9017 9.21967 23.341 9.659C23.7803 10.0983 24 10.6287 24 11.25L24 27.75C24 28.3713 23.7803 28.9017 23.341 29.341C22.9017 29.7803 22.3713 30 21.75 30L2.25 30C1.62866 30 1.09833 29.7803 0.658997 29.341C0.219666 28.9017 0 28.3713 0 27.75L0 11.25C0 10.6287 0.219666 10.0983 0.658997 9.659C1.09833 9.21967 1.62866 9 2.25 9L6 9L6 6C6 4.34314 6.58582 2.92896 7.75739 1.75739C8.92896 0.585815 10.3431 0 12 0ZM12 17.25C11.3787 17.25 10.8483 17.4697 10.409 17.909C9.96967 18.3483 9.75 18.8787 9.75 19.5C9.75 20.1213 9.96967 20.6517 10.409 21.091C10.8483 21.5303 11.3787 21.75 12 21.75C12.6213 21.75 13.1517 21.5303 13.591 21.091C14.0303 20.6517 14.25 20.1213 14.25 19.5C14.25 18.8787 14.0303 18.3483 13.591 17.909C13.1517 17.4697 12.6213 17.25 12 17.25ZM12 3C11.1716 3 10.4645 3.29291 9.87866 3.87866C9.29291 4.46448 9 5.17157 9 6L9 9L15 9L15 6C15 5.17157 14.7071 4.46448 14.1213 3.87866C13.5355 3.29291 12.8284 3 12 3Z" fill-rule="evenodd" fill="#212121"/>
	<defs/>
</svg>
