<svg width="150.000000" height="150.000000" viewBox="0 0 150 150" fill="none" xmlns="http://www.w3.org/2000/svg" xmlns:xlink="http://www.w3.org/1999/xlink">
	<desc>
			Created with Pixso.
	</desc>
	<g clip-path="url(#clip2_128)">
		<path d="M83.75 138.092C91.8157 130.206 96.875 118.86 96.875 106.25C96.875 82.4325 78.8269 63.125 56.5625 63.125C34.2983 63.125 16.25 82.4325 16.25 106.25C16.25 118.884 21.3287 130.25 29.4216 138.138C41.098 138.109 69.4868 138.101 83.75 138.092Z" fill-rule="evenodd" fill="#FFBF0B"/>
		<path d="M73.75 98.125C85.8313 98.125 95.625 92.8081 95.625 86.25C95.625 79.6919 85.8313 74.375 73.75 74.375C61.6687 74.375 51.875 79.6919 51.875 86.25C51.875 92.8081 61.6687 98.125 73.75 98.125Z" fill-rule="evenodd" fill="#EFB104"/>
		<path d="M83.3174 22.7943C83.3174 22.7943 79.1611 15.6945 69.4199 13.9768C69.4199 13.9768 64.2605 22.0995 65.5281 32.3653C71.0161 25.985 83.3174 22.7943 83.3174 22.7943Z" fill-rule="evenodd" fill="#FFBF0B"/>
		<path d="M69.7238 14.9025C69.7238 14.9025 65.1024 22.1187 66.2574 31.2516C67.7937 29.4821 69.7787 27.9207 72.2112 26.5678C72.7081 23.996 72.1837 17.9078 69.7238 14.9025Z" fill-rule="evenodd" fill="#FF4E90"/>
		<ellipse cx="90.379639" cy="56.595764" rx="37.499992" ry="34.062492" transform="rotate(10 90.3796 56.5958)" fill="#FFBF0B"/>
		<path d="M110.101 27.9277C110.101 27.9277 116.435 22.6776 126.176 24.3953C126.176 24.3953 128.246 33.7925 123.544 43.0057C120.569 35.1332 110.101 27.9277 110.101 27.9277Z" fill-rule="evenodd" fill="#FFBF0B"/>
		<path d="M125.574 25.1612C125.574 25.1612 127.448 33.5228 123.239 41.7098C122.401 39.5214 121.069 37.3755 119.246 35.2721C119.659 32.6853 122.234 27.1439 125.574 25.1612Z" fill-rule="evenodd" fill="#FF4E90"/>
		<path d="M84.7406 74.9857C84.826 75.144 84.9446 75.3329 85.0963 75.5526C85.3871 75.9717 85.7131 76.3661 86.0743 76.7357C86.5864 77.2598 87.1377 77.6992 87.7281 78.0538C88.4835 78.5075 89.2792 78.8079 90.115 78.955C90.9492 79.1025 91.798 79.0938 92.6613 78.9288C93.3367 78.7996 94.0042 78.5784 94.6638 78.265C95.1296 78.0438 95.5704 77.7875 95.9863 77.4963C96.2042 77.3438 96.38 77.2081 96.5138 77.0894C97.0381 76.6257 97.0857 75.8494 96.6226 75.325C96.1588 74.8007 95.3818 74.7532 94.8575 75.2169C94.7833 75.2761 94.6427 75.385 94.5519 75.4488C94.2506 75.6596 93.9304 75.8456 93.5913 76.0069C93.1241 76.2286 92.6577 76.384 92.1919 76.4731C91.6294 76.5806 91.0817 76.5873 90.5488 76.4932C90.0176 76.3994 89.5065 76.2053 89.0156 75.9106C88.609 75.6661 88.2244 75.3586 87.8619 74.9882C87.5985 74.719 87.3617 74.4323 87.1512 74.1282C87.0879 74.0365 87.0315 73.9498 86.9819 73.8682C86.9614 73.8348 86.9486 73.8129 86.9431 73.8026C86.6119 73.1857 85.8669 72.9619 85.25 73.2932C84.6338 73.6244 84.4094 74.3688 84.7406 74.9857Z" fill-rule="evenodd" fill="#1A1B54"/>
		<path d="M74.8925 73.2493C74.9779 73.4077 75.0964 73.5964 75.2482 73.8156C75.5389 74.2347 75.865 74.6293 76.2262 74.9993C76.7383 75.5231 77.2896 75.9623 77.88 76.3168C78.6354 76.7706 79.431 77.0712 80.2668 77.2187C81.1011 77.3658 81.9498 77.3568 82.8131 77.1918C83.4885 77.0631 84.156 76.842 84.8156 76.5287C85.2815 76.3074 85.7223 76.0512 86.1381 75.7599C86.356 75.6071 86.5321 75.4714 86.6663 75.3531C87.1899 74.8893 87.238 74.1125 86.7744 73.5881C86.3105 73.0643 85.5337 73.0162 85.01 73.48C84.9358 73.5391 84.7946 73.6487 84.7037 73.7125C84.4025 73.9233 84.0823 74.1091 83.7432 74.27C83.2765 74.4921 82.8099 74.6475 82.3438 74.7362C81.7812 74.8437 81.2335 74.8506 80.7006 74.7568C80.1693 74.6631 79.6583 74.4687 79.1675 74.1737C78.7609 73.9296 78.3762 73.6223 78.0138 73.2518C77.7504 72.9822 77.5135 72.6956 77.3031 72.3918C77.2397 72.3002 77.1833 72.2135 77.1338 72.1318C77.1133 72.0981 77.1003 72.076 77.095 72.0656C76.7638 71.4493 76.0187 71.225 75.4025 71.5562C74.7856 71.8875 74.5613 72.6324 74.8925 73.2493Z" fill-rule="evenodd" fill="#1A1B54"/>
		<ellipse cx="76.250000" cy="48.437500" rx="11.249996" ry="10.937500" fill="#FFFCFD"/>
		<ellipse cx="105.625000" cy="54.687500" rx="11.250000" ry="10.937500" fill="#FFFCFD"/>
		<path d="M118.49 69.3994L120.083 63.9144L60 51.25L60 56.8463L118.49 69.3994Z" fill-rule="evenodd" fill="#FFBF0B"/>
		<circle cx="76.250000" cy="48.750000" r="4.999996" fill="#1A1B54"/>
		<circle cx="105.625000" cy="55.000000" r="5.000000" fill="#1A1B54"/>
		<rect x="16.250000" y="13.125000" width="48.750000" height="125.000000" fill="#1A1B54"/>
		<path d="M16.25 39.0625C15.7251 39.0625 15.3125 38.65 15.3125 38.125C15.3125 37.6 15.7251 37.1875 16.25 37.1875L65 37.1875C65.525 37.1875 65.9375 37.6 65.9375 38.125C65.9375 38.65 65.525 39.0625 65 39.0625L16.25 39.0625Z" fill-rule="evenodd" fill="#5B5C95"/>
		<path d="M16.25 88.75C15.7251 88.75 15.3125 88.3375 15.3125 87.8125C15.3125 87.2875 15.7251 86.875 16.25 86.875L65 86.875C65.525 86.875 65.9375 87.2875 65.9375 87.8125C65.9375 88.3375 65.525 88.75 65 88.75L16.25 88.75Z" fill-rule="evenodd" fill="#5B5C95"/>
		<path d="M16.25 64.0625C15.7251 64.0625 15.3125 63.65 15.3125 63.125C15.3125 62.6 15.7251 62.1875 16.25 62.1875L65 62.1875C65.525 62.1875 65.9375 62.6 65.9375 63.125C65.9375 63.65 65.525 64.0625 65 64.0625L16.25 64.0625Z" fill-rule="evenodd" fill="#5B5C95"/>
		<path d="M16.25 113.75C15.7251 113.75 15.3125 113.338 15.3125 112.812C15.3125 112.287 15.7251 111.875 16.25 111.875L65 111.875C65.525 111.875 65.9375 112.287 65.9375 112.812C65.9375 113.338 65.525 113.75 65 113.75L16.25 113.75Z" fill-rule="evenodd" fill="#5B5C95"/>
		<path d="M31.2791 13.2664C31.2791 12.7413 31.6917 12.3289 32.2166 12.3289C32.7415 12.3289 33.1541 12.7413 33.1541 13.2664L33.1541 38.125C33.1541 38.65 32.7415 39.0625 32.2166 39.0625C31.6917 39.0625 31.2791 38.65 31.2791 38.125L31.2791 13.2664Z" fill-rule="evenodd" fill="#5B5C96"/>
		<path d="M31.2791 63.125C31.2791 62.6 31.6917 62.1875 32.2166 62.1875C32.7415 62.1875 33.1541 62.6 33.1541 63.125L33.1541 87.9838C33.1541 88.5087 32.7415 88.9213 32.2166 88.9213C31.6917 88.9213 31.2791 88.5087 31.2791 87.9838L31.2791 63.125Z" fill-rule="evenodd" fill="#5B5C96"/>
		<path d="M31.2791 113.125C31.2791 112.6 31.6917 112.188 32.2166 112.188C32.7415 112.188 33.1541 112.6 33.1541 113.125L33.1541 137.984C33.1541 138.509 32.7415 138.921 32.2166 138.921C31.6917 138.921 31.2791 138.509 31.2791 137.984L31.2791 113.125Z" fill-rule="evenodd" fill="#5B5C96"/>
		<path d="M49.6875 38.125C49.6875 37.6 50.1001 37.1875 50.625 37.1875C51.1499 37.1875 51.5625 37.6 51.5625 38.125L51.5625 62.9838C51.5625 63.5087 51.1499 63.9213 50.625 63.9213C50.1001 63.9213 49.6875 63.5087 49.6875 62.9838L49.6875 38.125Z" fill-rule="evenodd" fill="#5B5C96"/>
		<path d="M49.6875 87.9838C49.6875 87.4587 50.1001 87.0463 50.625 87.0463C51.1499 87.0463 51.5625 87.4587 51.5625 87.9838L51.5625 112.843C51.5625 113.367 51.1499 113.78 50.625 113.78C50.1001 113.78 49.6875 113.367 49.6875 112.843L49.6875 87.9838Z" fill-rule="evenodd" fill="#5B5C96"/>
		<path d="M60.3256 104.006C69.8562 105.549 76.25 100.413 76.25 100.413L78.75 115.981C73.65 117.604 68.5106 116.479 63.0181 115.277C62.1301 115.082 61.2332 114.886 60.3256 114.699C50.7953 113.125 50.7953 102.462 60.3256 104.006Z" fill-rule="evenodd" fill="#FFBF0B"/>
		<path d="M123.49 51.303L125.083 45.8182L65 33.1537L65 38.75L123.49 51.303Z" fill-rule="evenodd" fill="#FFBF0B"/>
		<g opacity="0.199591">
			<g opacity="0.199591">
				<path d="M65.045 17.8848L65.045 138.092C71.3556 138.082 77.5475 138.075 83.7406 138.074C94.0225 128.428 98.0912 113.039 96.7825 101.477C92.2 60.9955 80.2019 29.4338 65.045 17.8848ZM16.2952 115.353L16.2952 76.1519C16.2925 77.1793 16.2897 78.2225 16.2866 79.2793C16.2545 90.9093 16.2183 104.211 16.2952 115.353Z" fill-rule="evenodd" fill="#7B5D07"/>
			</g>
		</g>
	</g>
	<defs>
		<clipPath id="clip2_128">
			<rect width="150.000000" height="150.000000" fill="white"/>
		</clipPath>
	</defs>
</svg>
