<svg width="299.576416" height="75.968750" viewBox="0 0 299.576 75.9688" fill="none" xmlns="http://www.w3.org/2000/svg" xmlns:xlink="http://www.w3.org/1999/xlink">
	<desc>
			Created with Pixso.
	</desc>
	<path d="M18.5626 65.6562C17.922 65.8438 17.2814 66.0469 16.5782 66.2969C16.4885 65.9268 16.6241 65.6936 16.7541 65.4701C16.8052 65.3822 16.8554 65.2958 16.8907 65.2031C22.4064 56 27.9064 46.7188 33.0939 37.3125C35.9064 32.3125 38.6564 27.25 41.0939 22.0156C42.5626 18.9375 43.8439 15.7344 44.6095 12.3438C45.3751 8.89062 44.797 5.625 42.297 2.875C41.0314 1.53125 39.547 0.703125 37.7032 0.3125C35.7814 0 33.797 0.0625 31.8126 0.4375C28.672 1.01562 25.7345 2.10938 22.8439 3.32812C16.3126 6.14062 10.5626 9.98438 5.76575 15.2188C3.71887 17.4062 2.047 19.7656 1.03137 22.5781C0.453247 24.25 0.00012207 25.9062 0.125122 27.7031C0.453247 30.9688 2.2345 33.4062 4.797 35.25C7.2345 37.0469 10.047 37.875 12.922 38.6562C16.2501 39.5469 19.7189 39.7344 23.172 39.6719L24.4532 39.6719C24.7657 39.7344 24.8282 39.9219 24.7032 40.1875C24.6407 40.375 24.5157 40.5625 24.3907 40.7656C23.1095 43.0625 21.7657 45.4375 20.422 47.7969C17.1564 53.3125 14.2032 59 11.3907 64.7656C10.9376 65.6562 10.5626 66.625 10.297 67.6406C10.172 68.2188 10.2345 68.7344 10.5626 69.1719C11.2032 70.2031 12.1564 70.7812 13.1876 71.2188C14.0157 71.6094 14.7814 71.6719 15.6095 71.4219C16.4532 71.1562 17.2814 70.9062 18.047 70.6562C21.2501 69.4375 24.4532 68.2812 27.6407 67.3281C33.2814 65.5938 38.9689 64.3125 44.797 63.5469C47.8751 63.0938 51.0157 62.7812 54.0782 62.5781C56.3126 62.3906 58.5001 62.3906 60.672 62.7812C61.9532 62.9688 63.172 63.3594 63.9376 64.5C64.0001 64.5625 64.0626 64.6406 64.1251 64.7031C64.2501 64.8281 64.4532 64.8906 64.6407 64.7656C64.7657 64.7031 64.8282 64.5 64.8282 64.3125C64.8282 64.0625 64.7032 63.7969 64.5782 63.5469C64.1876 62.9062 63.7501 62.3906 63.1095 61.9375C62.0157 61.1719 60.797 60.5938 59.5157 60.3438C57.5939 60.0312 55.6876 59.8281 53.7657 59.7656C48.5782 59.7031 43.4532 60.2812 38.3282 60.9844C31.6095 61.875 24.9532 63.3594 18.5626 65.6562ZM25.4064 37.375L22.5314 37.375C18.4376 37.375 14.4064 36.8594 10.4376 35.7031C8.89075 35.25 7.422 34.6875 5.95325 33.9062C4.15637 32.9531 3.26575 31.4219 3.20325 29.375C3.07825 26.75 3.90637 24.4375 5.12512 22.2031C7.3595 18.1719 10.6251 14.9688 14.3439 12.2812C19.8439 8.1875 25.922 5.4375 32.6407 4.03125C34.5626 3.64062 36.4845 3.39062 38.4689 3.70312C38.9689 3.76562 39.4845 3.82812 40.0626 4.03125C40.9532 4.34375 41.1564 4.53125 41.2189 5.5C41.2814 7.03125 41.0939 8.5625 40.6407 10.0469C40.0001 11.9688 39.297 13.75 38.4064 15.5469C35.9689 20.7969 33.0939 25.8438 30.1407 30.8438C29.0626 32.7031 27.9064 34.625 26.8126 36.5312C26.5001 37.1094 26.1095 37.4375 25.4064 37.375ZM155.078 34.3594C155.328 34.0469 155.516 33.6562 155.969 33.4062C155.969 33.4891 155.981 33.5475 155.989 33.5869C156 33.6368 156.004 33.6562 155.969 33.6562C155.578 34.5469 155.203 35.3906 154.813 36.2812C152.25 42.2969 149.828 48.375 147.906 54.6562C147.328 56.4375 146.688 58.1719 146.172 60.0312C145.344 63.0938 144.578 66.1719 144.188 69.375C144.063 70.6562 144.188 71.9219 144.578 73.2031C144.953 74.4219 145.734 75.1875 147.016 75.4531C148.359 75.7031 149.563 75.5156 150.719 74.75C151.609 74.1094 152.391 73.3438 153.094 72.5C156.609 68.4688 159.609 64.0625 162.5 59.6406C165.891 54.2656 169.094 48.8281 172.609 43.5156C173.063 42.875 173.5 42.2344 173.766 41.4688C174.016 41.0156 174.078 40.5625 174.016 40.0625C173.953 39.7969 173.766 39.6719 173.438 39.7969C172.984 40.125 172.609 40.5 172.281 40.9531C170.813 42.875 169.281 44.7969 167.938 46.8438C164.219 52.4062 160.578 58.0469 156.734 63.5469C154.563 66.5469 152.313 69.5625 149.703 72.25C149.639 72.3107 149.575 72.3908 149.509 72.4737C149.304 72.732 149.077 73.0174 148.734 72.8281C148.417 72.6695 148.503 72.2312 148.574 71.8634C148.587 71.7965 148.6 71.732 148.609 71.6719C148.734 69.875 149.063 68.0938 149.5 66.2969C150.906 60.2188 152.891 54.3906 155.141 48.6406C156.859 44.1562 158.781 39.7344 160.703 35.3281C162.375 31.5469 164.156 27.8281 165.891 24.0625C166.141 23.3594 166.531 23.0312 167.297 22.9062C169.469 22.5781 171.578 22.1406 173.766 21.8125C178.172 21.0469 182.594 20.4688 187 19.9688C189.953 19.6406 192.828 19.3906 195.844 19.5156C196.922 19.5781 198.016 19.7031 198.969 20.2188C200.516 20.9219 200.953 21.9375 200.516 23.5469C200.391 24.1875 200.188 24.7656 200 25.3438C199.993 25.3729 199.985 25.4029 199.976 25.4334C199.913 25.6651 199.842 25.9299 200.063 26.1094C200.422 26.2243 200.609 26.0221 200.832 25.7822C200.851 25.7613 200.871 25.7401 200.891 25.7188C201.031 25.5938 201.094 25.4688 201.156 25.3438C201.859 23.9219 202.047 22.5156 201.344 21.0469C200.516 19.3281 199.109 18.2344 197.25 17.7188C195.969 17.4062 194.688 17.2031 193.406 17.1406C190.531 17.0781 187.719 17.3438 184.891 17.6562C179.516 18.2344 174.141 19 168.828 20.0312C168.765 20.0312 168.697 20.0433 168.625 20.0559C168.413 20.0931 168.171 20.1357 167.938 19.8906C168.391 19 168.766 18.0469 169.219 17.1406C169.734 15.9219 170.375 14.7188 170.75 13.4375C171.203 12.0312 170.688 11.0625 169.281 10.5469C168.516 10.2969 168.125 10.4219 167.813 11.125C166.406 13.9531 164.797 16.7031 163.266 19.4531C162.297 21.2344 162.688 20.9844 160.516 21.4375C160.391 21.4375 160.313 21.4375 160.188 21.5C157.438 21.75 154.688 22.1406 151.938 22.3906C148.031 22.7188 144.063 22.8438 140.156 22.7812C137.656 22.7188 135.234 22.3281 133.125 20.9219C133.104 20.9086 133.081 20.8945 133.059 20.8801C132.869 20.7584 132.645 20.6153 132.422 20.7969C132.18 20.968 132.327 21.2562 132.45 21.4952C132.462 21.5182 132.473 21.5406 132.484 21.5625C132.609 21.8125 132.797 22.0156 132.984 22.2656C133.625 22.9062 134.328 23.3594 135.172 23.6719C136.703 24.375 138.375 24.7656 140.094 24.8281C142.844 25.0156 145.594 25.0156 148.359 24.8906C152.125 24.7656 155.906 24.375 159.688 23.9219C159.734 23.9219 159.785 23.9102 159.839 23.8977C160.001 23.8604 160.191 23.8164 160.391 24.0625C159.484 25.0781 158.594 26.1719 157.703 27.1875C153.859 31.4844 150.141 35.8281 146.563 40.3125C144.188 43.25 141.828 46.1406 139.141 48.8281C138.563 49.4062 137.984 49.9062 137.281 50.3594C137.138 50.0731 137.214 49.8141 137.285 49.5686C137.307 49.4925 137.329 49.4177 137.344 49.3438C138.109 45.9375 139.453 42.75 140.859 39.5469C141.563 37.9375 142.203 36.3438 142.969 34.75C143.297 34.0469 143.109 33.4062 142.531 32.8906C142.203 32.6406 141.828 32.375 141.375 32.1875C140.797 32 140.281 32.0625 139.906 32.5C139.641 32.8281 139.391 33.2031 139.141 33.5312C138.938 33.7188 138.75 33.7812 138.563 33.5938C138.375 33.4688 138.234 33.2656 138.109 33.1406C135.938 31.4219 133.375 31.2969 131.016 32.7656C129.469 33.7188 128.313 35.0625 127.359 36.5312C125.953 38.6562 124.984 41.0156 124.031 43.3906C123.328 45.2344 123.016 47.1562 123.141 49.1406C123.266 50.75 123.969 52.0312 125.5 52.6719C127.109 53.375 128.516 53.2344 129.797 52.0312C130.563 51.3906 131.266 50.625 131.906 49.8438C132.156 49.5312 132.281 49.2031 132.797 49.0781C132.922 49.8438 132.797 50.5469 132.984 51.1875C133.188 51.8281 133.438 52.3438 134.078 52.6719C135.547 53.375 137.031 53.4375 138.438 52.5312C139.453 51.8906 140.281 51.0625 141.125 50.2344C146.047 45.2344 150.656 39.8594 155.078 34.3594ZM85.8946 36.5312C85.4415 36.9219 84.9884 37.3125 84.4727 37.625C84.4102 37.625 84.4102 37.5625 84.3477 37.5C84.5509 37.1094 84.6759 36.7969 84.8634 36.4062C87.2384 31.8594 89.0821 27.0625 91.3321 22.3906C91.9102 21.1094 92.4102 19.8281 92.9884 18.5469L92.9979 18.5184C93.1202 18.1521 93.2473 17.7718 92.9884 17.4062C92.0352 15.7969 89.9884 15.8594 89.0821 17.4688C88.8946 17.8438 88.7071 18.2344 88.4415 18.625C87.5509 20.4688 86.7852 22.3281 85.754 24.0625C84.4102 26.5469 83.3321 29.1719 82.1134 31.7344C80.7289 34.7046 79.3444 37.6541 77.9684 40.5956C77.6994 40.8092 77.4392 41.0503 77.179 41.2656C76.1009 42.1719 74.8821 43 73.5384 43.5781C73.0853 43.7656 72.6478 44.0312 71.929 44.0312C72.1946 43.4531 72.3196 43 72.5071 42.5469C73.0853 40.9531 73.7259 39.3594 73.8509 37.625C73.9915 34.9375 73.0853 33.5938 70.9759 32.5625C69.1165 31.6719 67.1946 31.9219 65.3509 32.375C64.7728 32.5 64.2571 32.8906 63.929 33.3438C63.6165 33.7812 63.2884 34.1094 62.8509 34.4219C62.0228 35.0625 61.3196 35.8281 60.7415 36.6719C60.0384 37.6875 59.4603 38.7188 58.9446 39.7969C58.7707 40.1447 58.6097 40.4961 58.4619 40.8509C58.2995 40.9906 58.1393 41.133 57.979 41.2656C56.9009 42.1719 55.6822 43 54.3384 43.5781C53.8853 43.7656 53.4478 44.0312 52.729 44.0312C52.9947 43.4531 53.1197 43 53.3072 42.5469C53.8853 40.9531 54.5259 39.3594 54.6509 37.625C54.7915 34.9375 53.8853 33.5938 51.7759 32.5625C49.9165 31.6719 47.9947 31.9219 46.1509 32.375C45.5728 32.5 45.0572 32.8906 44.729 33.3438C44.4165 33.7812 44.0884 34.1094 43.6509 34.4219C42.8228 35.0625 42.1197 35.8281 41.5415 36.6719C40.8384 37.6875 40.2603 38.7188 39.7447 39.7969C38.4634 42.3594 37.8853 45.1094 38.0728 48.0625C38.1509 49.7812 38.9165 51.125 40.4478 51.9688C41.6665 52.5312 42.9478 52.7344 44.2915 52.5312C46.5259 52.2812 48.1353 50.9375 49.5415 49.2031C50.2447 48.375 50.8853 47.4219 51.3853 46.3906C51.6509 46.0156 51.9634 45.6875 52.5415 45.625C54.4232 45.4062 56.0904 44.7125 57.5753 43.6995C57.2807 45.1023 57.1771 46.556 57.2728 48.0625C57.3509 49.7812 58.1165 51.125 59.6478 51.9688C60.8665 52.5312 62.1478 52.7344 63.4915 52.5312C65.7259 52.2812 67.3353 50.9375 68.7415 49.2031C69.4446 48.375 70.0853 47.4219 70.5853 46.3906C70.8509 46.0156 71.1634 45.6875 71.7415 45.625C73.4687 45.4242 75.0152 44.8232 76.4058 43.9424C75.6375 45.592 74.8728 47.2407 74.1134 48.8906C73.7852 49.4688 73.5977 50.1094 73.4102 50.6875C73.1446 51.3906 73.3477 51.8281 73.9259 52.2188C75.004 52.9844 76.8634 52.5938 77.5665 51.4531C78.7227 49.5312 79.5509 47.5469 80.4415 45.5C81.0821 44.0938 82.1134 43.125 83.2696 42.1719C83.7696 41.7188 84.0352 41.8438 84.0977 42.5469C84.2227 43.8281 84.5509 45.1719 84.8009 46.4531C85.0509 48.25 85.8165 49.8438 86.9102 51.3281C88.1915 53.1094 91.129 53.1719 92.4727 52.0312C93.504 51.25 94.3321 50.2969 95.0977 49.2656C97.0821 46.5781 98.754 43.6406 100.863 41.0156C100.926 40.8906 101.051 40.7656 101.113 40.5625C101.254 40.3125 101.254 40.0625 100.988 39.8594C100.801 39.6719 100.551 39.7344 100.348 39.8594C99.9727 40.0625 99.7071 40.375 99.4571 40.7031C97.8634 42.4844 96.3165 44.2812 94.7227 46.1406C93.629 47.4844 92.5509 48.8281 91.2696 50.0469C90.6915 50.5469 90.4884 50.4844 90.1759 49.8438C90.1134 49.7188 90.0509 49.5938 90.0509 49.4688C89.4102 47.4844 88.8321 45.4375 88.379 43.3906C88.1915 42.6875 88.4415 42.1719 89.0821 41.7188C90.629 40.7031 92.0352 39.6719 93.629 38.7188C95.0977 37.875 96.254 36.7969 97.0821 35.3281C97.6602 34.4219 97.5977 33.7188 96.8321 33.0156C95.879 32.1875 94.8477 31.7344 93.5665 32.1875C92.7384 32.375 91.9727 32.6406 91.2696 33.0156C89.3477 34.0469 87.6134 35.1875 85.8946 36.5312ZM271.936 63.0938C273.217 64.125 274.748 64.6406 276.42 64.5625C277.436 64.6406 278.467 64.375 279.42 64.125C281.983 63.3594 283.389 61.625 283.842 59.0625C284.295 56.5625 284.03 54.0781 283.326 51.6406C283.202 51.1986 283.14 50.9759 283.21 50.8084C283.28 50.6384 283.487 50.5251 283.905 50.2969C288.826 47.2188 293.764 44.0938 298.623 40.8906C298.873 40.7656 299.076 40.6406 299.326 40.4375C299.451 40.3125 299.576 40.125 299.514 39.9219C299.451 39.6719 299.201 39.6094 298.951 39.6094C298.436 39.6094 297.983 39.7969 297.467 40.0625C294.842 41.4062 292.217 42.8125 289.67 44.4062C287.483 45.75 285.311 47.0938 283.139 48.4375C282.561 48.7656 282.436 48.7656 282.311 48.125C282.108 47.2969 281.92 46.5156 281.858 45.6875C281.67 43.8281 281.592 41.9844 282.311 40.1875C282.873 38.7188 283.78 37.4375 284.92 36.2812C286.014 35.125 287.295 34.1719 288.889 33.6562C289.92 33.3438 290.233 33.5938 290.17 34.625C289.858 37.4375 288.764 39.7969 286.014 40.9531C285.764 41.0781 285.436 41.1406 285.373 41.4688C285.321 41.7812 285.54 41.931 285.76 42.0807C285.803 42.1107 285.847 42.1406 285.889 42.1719C286.076 42.2344 286.264 42.2969 286.467 42.3594C287.748 42.75 288.889 42.3594 289.858 41.6562C291.842 40.25 292.92 38.2031 293.498 35.8906C293.826 34.875 293.498 33.9062 292.733 33.1406C291.717 32.1875 290.373 31.6094 289.03 31.2188C287.623 30.7812 286.201 30.9062 284.795 31.4844C283.576 32 282.498 32.6406 281.405 33.4062C279.483 34.9375 277.826 36.7344 277.061 39.2188C276.217 41.8438 276.358 44.5312 276.858 47.2188C277.061 48.4375 277.373 49.6562 277.701 50.8125C277.889 51.7031 277.889 51.7656 277.123 52.2812C275.78 53.2344 274.498 54.2031 273.217 55.2969C271.998 56.4375 270.983 57.7188 270.592 59.3906C270.201 60.9219 270.655 62.1406 271.936 63.0938ZM250.748 49.4062C250.435 49.7188 250.17 50.1094 249.67 50.3594C249.553 49.8781 249.674 49.5375 249.79 49.2116C249.813 49.146 249.836 49.081 249.857 49.0156C250.435 47.1562 251.076 45.3125 251.904 43.5781C252.935 41.5312 254.013 39.5469 255.045 37.5625C255.545 36.5312 255.998 35.4531 256.263 34.2969C256.576 33.2031 256.263 32.5 255.295 31.9219C254.904 31.7344 254.529 31.6094 254.138 31.4844C253.56 31.3594 253.248 31.5469 252.935 32C252.091 33.2656 251.263 34.4844 250.498 35.7656C249.341 37.5 248.326 39.2969 247.482 41.1406C246.716 42.875 245.888 44.4062 244.482 45.625C244.216 45.8125 244.091 46.1406 243.904 46.3281C242.951 47.4219 242.045 48.5625 240.966 49.5312C240.701 49.7188 240.451 50.0469 239.998 50.0469C240.388 47.8594 241.091 45.875 241.92 43.8906C243.138 40.8906 244.545 37.875 245.701 34.8125C246.341 33.0781 245.951 32.1875 244.216 31.5469C243.966 31.4844 243.716 31.4219 243.513 31.3594C242.498 31.0938 242.232 31.2188 241.795 32.125C241.404 32.7031 241.154 33.3438 240.826 33.9062C239.62 36.1274 238.513 38.3658 237.598 40.6881C237.369 40.8772 237.146 41.0809 236.923 41.2656C235.845 42.1719 234.626 43 233.282 43.5781C232.829 43.7656 232.391 44.0312 231.673 44.0312C231.938 43.4531 232.063 43 232.251 42.5469C232.829 40.9531 233.47 39.3594 233.595 37.625C233.735 34.9375 232.829 33.5938 230.72 32.5625C228.86 31.6719 226.938 31.9219 225.095 32.375C224.516 32.5 224.001 32.8906 223.673 33.3438C223.36 33.7812 223.032 34.1094 222.595 34.4219C221.766 35.0625 221.063 35.8281 220.485 36.6719C219.782 37.6875 219.204 38.7188 218.688 39.7969C218.671 39.832 218.653 39.8671 218.636 39.9023C218.246 39.9874 217.855 40.1857 217.465 40.375C215.746 41.3438 214.137 42.5469 212.48 43.7656C212.152 44.0312 211.84 44.3438 211.387 44.3438C211.233 44.1899 211.289 44.036 211.349 43.8734C211.362 43.8379 211.375 43.802 211.387 43.7656C211.777 42.6875 212.09 41.6562 212.48 40.6406C213.121 38.7812 213.762 36.9844 214.402 35.125C214.855 33.5938 214.402 32.5625 212.996 31.9219C212.23 31.5469 211.902 31.6094 211.324 32.1875C211.074 32.5 210.887 32.8906 210.684 33.2656C209.668 35.1875 208.824 37.3125 207.871 39.2969C207.684 39.7344 207.418 40.1875 207.043 40.5625C204.668 43.25 202.371 45.9375 199.996 48.5625C199.684 48.8906 199.418 49.2656 198.98 49.5312C198.791 48.8181 198.9 48.2676 199.017 47.6777C199.026 47.6343 199.034 47.5908 199.043 47.5469C199.746 44.5938 200.824 41.7812 201.918 38.9688C202.559 37.2344 203.262 35.5781 203.652 33.7812C203.777 33.4062 203.902 32.8906 203.59 32.5C203.012 31.7344 202.246 31.4219 201.277 31.2969C200.554 31.2231 200.236 31.79 199.926 32.3401C199.908 32.3727 199.889 32.4052 199.871 32.4375C198.137 35.3281 196.934 38.3906 195.84 41.5312C195.387 42.9375 194.949 44.3438 194.809 45.8125C194.621 47.4219 194.621 48.9531 194.949 50.4844C195.137 51.5156 195.777 52.1562 196.793 52.2812C197.949 52.4688 199.043 52.2188 199.996 51.5781C200.965 50.875 201.793 50.0469 202.559 49.1406C203.262 48.375 203.902 47.5469 204.605 46.7812C204.668 46.7812 204.73 46.8438 204.793 46.9062C204.418 47.9219 204.027 49.0156 203.652 50.0469C203.527 50.4844 203.262 50.8125 202.949 51.0625C201.605 52.2188 200.324 53.4375 198.98 54.5781C196.48 56.7031 194.105 58.9375 191.996 61.4375C189.574 64.125 187.965 67.25 187.387 70.9062C187.199 72.0625 187.262 73.1406 187.715 74.2344C188.027 75 188.543 75.5156 189.371 75.7656C190.215 75.9688 191.105 75.9688 191.934 75.7656C194.371 75.3281 196.293 73.9844 197.824 72.125C199.996 69.5625 201.73 66.6875 203.262 63.7344C205.496 59.3281 207.355 54.7188 209.152 50.1094C209.402 49.3438 209.855 48.7031 210.496 48.125C212.832 46.0669 215.218 44.0212 217.741 42.1091C217.133 43.9961 216.884 45.9787 217.016 48.0625C217.095 49.7812 217.86 51.125 219.391 51.9688C220.61 52.5312 221.891 52.7344 223.235 52.5312C225.47 52.2812 227.079 50.9375 228.485 49.2031C229.188 48.375 229.829 47.4219 230.329 46.3906C230.595 46.0156 230.907 45.6875 231.485 45.625C233.38 45.4047 235.057 44.7029 236.55 43.6784C236.385 44.2173 236.232 44.7617 236.091 45.3125C235.779 46.4531 235.513 47.6094 235.388 48.8281C235.201 50.4219 236.154 51.8281 237.701 52.2812C239.17 52.6719 240.638 52.4688 241.92 51.6406C242.81 51.0625 243.513 50.3594 244.295 49.6562C244.313 49.6292 244.331 49.5991 244.35 49.5677C244.461 49.3821 244.601 49.1497 244.935 49.2031C244.998 49.7812 245.06 50.2969 245.185 50.875C245.435 51.9688 246.138 52.7344 247.295 52.9219C248.576 53.1719 249.732 52.9219 250.748 52.2188C251.591 51.6406 252.357 50.9375 253.06 50.1719C253.968 49.1023 254.886 47.9535 255.774 46.8122C255.327 47.8372 254.889 48.8683 254.46 49.9062C254.335 50.3594 254.21 50.75 254.085 51.1875C253.944 51.5781 254.085 51.9688 254.46 52.1562C255.741 52.8594 257.913 52.7344 258.694 51.25C260.038 48.8906 261.319 46.4531 262.397 43.9688C263.616 41.1406 265.272 38.8438 267.522 36.8594C268.601 35.8281 269.882 35 271.226 34.3594C272.319 33.8438 272.569 33.9844 272.444 35.25C272.257 36.9844 271.491 38.5781 270.272 39.8594C270.211 39.9207 270.151 39.9831 270.092 40.0451C269.712 40.4414 269.349 40.8197 268.741 40.7656C268.351 40.7656 268.038 40.9531 267.96 41.3438C267.897 41.7188 268.101 42.0469 268.413 42.1719C270.085 43.0625 271.804 43.3906 273.413 41.8438C274.694 40.7031 275.522 39.2188 275.835 37.5625C276.288 35.125 275.007 33.0781 272.647 32.375C271.366 32 270.21 32.25 269.116 32.9531C268.351 33.4688 267.585 33.9844 266.694 34.625C266.819 32.7656 266.491 32.375 264.897 31.9219C264.772 31.9219 264.647 31.9219 264.569 31.8594C263.866 31.7344 263.366 31.9219 262.913 32.4375C262.585 32.9531 262.21 33.4688 261.944 34.0469C260.834 36.1342 259.768 38.2343 258.742 40.3543C258.72 40.3795 258.701 40.4066 258.685 40.4375C258.17 41.0156 257.607 41.5938 257.091 42.1719C254.982 44.5938 252.857 47.0312 250.748 49.4062ZM128.063 49.6562C127.813 49.8438 127.688 50.1719 127.234 50.2344C127.047 49.6562 127.109 49.1406 127.234 48.6406C127.75 46.1406 128.578 43.8281 129.531 41.5312C130.234 39.7969 131.203 38.2656 132.359 36.8594C133.313 35.7031 134.406 34.75 135.875 34.3594C136.641 34.1094 136.766 34.1719 137.031 34.9375C137.344 35.8906 137.406 36.8594 136.766 37.75C136.578 37.9375 136.453 38.2031 136.313 38.4531C135.172 41.5312 132.984 43.8281 130.938 46.3281C130.047 47.4219 129.156 48.6406 128.063 49.6562ZM49.929 42.7923C49.904 42.8615 49.879 42.9307 49.854 43C49.3384 42.75 49.1509 42.3594 48.9634 42.1094C47.8697 40.4375 47.4165 38.6562 47.354 36.7344C47.354 36.0938 47.6197 35.7031 48.1353 35.3281C48.7603 34.9375 49.4009 34.625 50.1822 34.4219C50.7447 34.2344 50.9478 34.3594 51.1978 34.9375C51.3228 35.3281 51.3853 35.7031 51.3853 36.0312C51.5217 38.3801 50.7322 40.5672 49.929 42.7923ZM69.129 42.7923C69.104 42.8615 69.079 42.9307 69.054 43C68.5384 42.75 68.3509 42.3594 68.1634 42.1094C67.0696 40.4375 66.6165 38.6562 66.554 36.7344C66.554 36.0938 66.8196 35.7031 67.3353 35.3281C67.9603 34.9375 68.6009 34.625 69.3821 34.4219C69.9446 34.2344 70.1478 34.3594 70.3978 34.9375C70.5228 35.3281 70.5853 35.7031 70.5853 36.0312C70.7216 38.3801 69.9321 40.5672 69.129 42.7923ZM228.873 42.7923L228.798 43C228.282 42.75 228.095 42.3594 227.907 42.1094C226.813 40.4375 226.36 38.6562 226.298 36.7344C226.298 36.0938 226.563 35.7031 227.079 35.3281C227.704 34.9375 228.345 34.625 229.126 34.4219C229.688 34.2344 229.891 34.3594 230.141 34.9375C230.266 35.3281 230.329 35.7031 230.329 36.0312C230.465 38.3801 229.676 40.5672 228.873 42.7923ZM43.2603 44.2812C43.4634 43.125 43.7134 42.0469 44.229 40.8906C44.6665 41.0781 44.729 41.3438 44.8697 41.5938C45.5728 42.9375 46.5884 44.0312 47.9322 44.7969C48.2837 45.0156 48.4595 45.125 48.4927 45.2676C48.5259 45.4102 48.4165 45.5859 48.1978 45.9375C47.229 47.4219 46.2134 48.8281 44.729 49.9062C43.6509 50.75 43.2603 50.5469 43.0728 49.1406C42.7447 47.4844 42.9478 45.875 43.2603 44.2812ZM62.4603 44.2812C62.6634 43.125 62.9134 42.0469 63.429 40.8906C63.8665 41.0781 63.929 41.3438 64.0696 41.5938C64.7728 42.9375 65.7884 44.0312 67.1321 44.7969C67.4837 45.0156 67.6595 45.125 67.6927 45.2676C67.7259 45.4102 67.6165 45.5859 67.3978 45.9375C66.429 47.4219 65.4134 48.8281 63.929 49.9062C62.8509 50.75 62.4603 50.5469 62.2728 49.1406C61.9446 47.4844 62.1478 45.875 62.4603 44.2812ZM222.204 44.2812C222.407 43.125 222.657 42.0469 223.173 40.8906C223.61 41.0781 223.673 41.3438 223.813 41.5938C224.516 42.9375 225.532 44.0312 226.876 44.7969C227.227 45.0156 227.403 45.125 227.436 45.2676C227.47 45.4102 227.36 45.5859 227.141 45.9375C226.173 47.4219 225.157 48.8281 223.673 49.9062C222.595 50.75 222.204 50.5469 222.016 49.1406C221.688 47.4844 221.891 45.875 222.204 44.2812ZM278.53 54.6562C278.717 55.6094 278.905 56.6406 278.842 57.5312C278.905 59.0625 278.655 60.4062 277.951 61.625C277.311 62.7188 276.795 62.8438 275.717 62.2656C274.561 61.6875 273.67 60.8594 273.733 59.3281C273.795 58.875 273.983 58.4219 274.17 57.9844C275.076 56.4375 276.483 55.3594 277.889 54.3281C278.264 54.0781 278.467 54.3281 278.53 54.6562ZM201.113 55.8973C201.17 55.833 201.245 55.7493 201.465 55.8594C201.09 56.8906 200.699 57.8438 200.324 58.8125C198.98 61.8125 197.762 64.8906 196.09 67.7031C195.074 69.5 194.184 71.2969 192.824 72.8281C192.743 72.9097 192.66 73.0039 192.576 73.1001C192.274 73.4457 191.95 73.8166 191.559 73.7188C190.98 73.5938 191.043 72.8281 190.855 72.25C190.59 71.0938 190.777 69.9375 191.105 68.7969C191.934 66.1094 193.465 63.8594 195.262 61.6875C197.059 59.5781 199.043 57.7188 201.09 55.9219C201.097 55.9144 201.105 55.906 201.113 55.8973Z" fill="#F7F2FF"/>
	<defs/>
</svg>
