<svg width="30.000000" height="30.000000" viewBox="0 0 30 30" fill="none" xmlns="http://www.w3.org/2000/svg" xmlns:xlink="http://www.w3.org/1999/xlink">
	<desc>
			Created with Pixso.
	</desc>
	<g clip-path="url(#clip4_267)">
		<path d="M22.5984 17.3691C23.3749 17.3687 24.0378 17.6431 24.5871 18.1919C25.1363 18.741 25.4109 19.4038 25.4109 20.1802L25.4109 21.3279C25.4108 22.0625 25.197 22.7288 24.7697 23.3264C22.8372 26.0303 19.6809 27.3691 15.4059 27.3691C11.1284 27.3691 7.97467 26.0291 6.04718 23.3228C5.62219 22.7258 5.40967 22.0613 5.40967 21.3291L5.40967 20.179C5.4093 19.4026 5.68365 18.7395 6.2326 18.1904C6.78162 17.6411 7.4444 17.3665 8.22095 17.3665L22.5984 17.3691ZM15.4059 2.37402C16.2347 2.37402 17.032 2.53271 17.7977 2.84985C18.5634 3.16699 19.2393 3.61865 19.8253 4.20459C20.4114 4.79077 20.863 5.46655 21.1802 6.23218C21.4973 6.99805 21.6559 7.79517 21.6559 8.62402C21.6559 9.45288 21.4973 10.25 21.1802 11.0159C20.863 11.7815 20.4114 12.4573 19.8253 13.0435C19.2393 13.6294 18.5634 14.0811 17.7977 14.3982C17.032 14.7153 16.2347 14.874 15.4059 14.874C14.5771 14.874 13.7798 14.7153 13.0142 14.3982C12.2484 14.0811 11.5726 13.6294 10.9865 13.0435C10.4005 12.4573 9.94885 11.7815 9.63165 11.0159C9.31451 10.25 9.15594 9.45288 9.15594 8.62402C9.15594 7.79517 9.31451 6.99805 9.63165 6.23218C9.94885 5.46655 10.4005 4.79077 10.9865 4.20459C11.5726 3.61865 12.2484 3.16699 13.0142 2.84985C13.7798 2.53271 14.5771 2.37402 15.4059 2.37402Z" fill-rule="evenodd" fill="#212121"/>
	</g>
	<defs>
		<clipPath id="clip4_267">
			<rect width="30.000000" height="30.000000" fill="white"/>
		</clipPath>
	</defs>
</svg>
