<svg width="24.000000" height="35.000000" viewBox="0 0 24 35" fill="none" xmlns="http://www.w3.org/2000/svg" xmlns:xlink="http://www.w3.org/1999/xlink">
	<desc>
			Created with Pixso.
	</desc>
	<path d="M19.5 0C20.7426 0 21.8033 0.384399 22.682 1.15326C23.5607 1.92212 24 2.85022 24 3.9375L24 31.0625C24 32.1498 23.5607 33.0779 22.682 33.8467C21.8033 34.6156 20.7426 35 19.5 35L4.5 35C3.25739 35 2.19672 34.6156 1.31799 33.8467C0.439331 33.0779 0 32.1498 0 31.0625L0 3.9375C0 2.85022 0.439331 1.92212 1.31799 1.15326C2.19672 0.384399 3.25739 0 4.5 0L19.5 0ZM14.5 28L9.5 28C8.5 28 8 28.4375 8 29.3125C8 30.1875 8.5 30.625 9.5 30.625L14.5 30.625C15.5 30.625 16 30.1875 16 29.3125C16 28.4375 15.5 28 14.5 28Z" fill-rule="evenodd" fill="#000000"/>
	<defs/>
</svg>
