<svg width="40.000000" height="40.000000" viewBox="0 0 40 40" fill="none" xmlns="http://www.w3.org/2000/svg" xmlns:xlink="http://www.w3.org/1999/xlink">
	<desc>
			Created with Pixso.
	</desc>
	<path d="M20 0C31.046 0 40 8.95398 40 20C40 31.046 31.046 40 20 40C8.95398 40 0 31.046 0 20C0 8.95398 8.95398 0 20 0ZM20 10C19.1279 10 18.6326 10.432 18.514 11.296L18.5 11.5L18.5 18.5L11.5 18.5C10.5663 18.5002 10.0676 18.9662 10.0039 19.8977C9.94031 20.8293 10.371 21.3588 11.296 21.486L11.5 21.5L18.5 21.5L18.5 28.5C18.5002 29.4337 18.9662 29.9324 19.8977 29.9961C20.8293 30.0597 21.3588 29.629 21.486 28.704L21.5 28.5L21.5 21.5L28.5 21.5C29.4337 21.4998 29.9324 21.0338 29.9961 20.1023C30.0597 19.1707 29.629 18.6412 28.704 18.514L28.5 18.5L21.5 18.5L21.5 11.5C21.5 10.5 21 10 20 10Z" fill-rule="evenodd" fill="#212121"/>
	<defs/>
</svg>
