<svg width="40.108398" height="40.105347" viewBox="0 0 40.1084 40.1053" fill="none" xmlns="http://www.w3.org/2000/svg" xmlns:xlink="http://www.w3.org/1999/xlink">
	<desc>
			Created with Pixso.
	</desc>
	<path d="M16.217 0C19.3003 -0.00012207 22.1516 0.812866 24.771 2.4389C27.3906 4.06494 29.3843 6.25952 30.7522 9.02258C32.1199 11.7857 32.6562 14.7017 32.3608 17.7706C32.0654 20.8395 30.9829 23.5997 29.1133 26.0513L39.3694 36.3113C40.3235 37.2686 40.3538 38.2541 39.4597 39.2678C38.5659 40.2815 37.5845 40.375 36.5151 39.5483L26.0515 29.1131C25.0276 29.8938 23.9263 30.5433 22.7478 31.0617C21.5691 31.5801 20.3462 31.9529 19.0789 32.1801C17.8113 32.4072 16.5352 32.4823 15.2498 32.4055C13.9646 32.3286 12.7063 32.1019 11.4749 31.7253C10.2437 31.3488 9.07373 30.8329 7.96533 30.1778C6.85693 29.5226 5.84106 28.7465 4.91748 27.8493C3.9939 26.9522 3.18872 25.9592 2.50171 24.8702C1.81445 23.7812 1.26514 22.6269 0.853027 21.4071C0.440918 20.1872 0.177979 18.936 0.0639648 17.6534C-0.0500488 16.371 -0.0119629 15.093 0.178467 13.8196C0.368896 12.5461 0.706055 11.3129 1.19019 10.1198C1.67432 8.9267 2.29175 7.80713 3.04248 6.76111C3.79321 5.71509 4.65625 4.77185 5.63159 3.9314C6.60693 3.09094 7.66748 2.37677 8.81299 1.78894C9.9585 1.20111 11.157 0.755981 12.4084 0.453552C13.6599 0.151184 14.9294 0 16.217 0ZM16.217 4.32458C14.6399 4.32458 13.1228 4.62634 11.6658 5.22986C10.2087 5.83337 8.92261 6.69269 7.80737 7.80786C6.69214 8.92297 5.83276 10.209 5.22925 11.6661C4.62573 13.1231 4.32397 14.6401 4.32397 16.2172C4.32397 17.7943 4.62573 19.3113 5.22925 20.7683C5.83276 22.2253 6.69214 23.5114 7.80737 24.6265C8.92261 25.7416 10.2087 26.601 11.6658 27.2045C13.1228 27.808 14.6399 28.1098 16.217 28.1098C17.7942 28.1098 19.3113 27.808 20.7683 27.2045C22.2253 26.601 23.5115 25.7416 24.6267 24.6265C25.7419 23.5114 26.6011 22.2253 27.2048 20.7682C27.8083 19.3113 28.1101 17.7943 28.1101 16.2172C28.1101 14.6401 27.8083 13.1231 27.2048 11.6661C26.6011 10.209 25.7419 8.92297 24.6267 7.80786C23.5115 6.69269 22.2253 5.83337 20.7683 5.22986C19.3113 4.62634 17.7942 4.32458 16.217 4.32458Z" fill-rule="evenodd" fill="#4605AD"/>
	<defs/>
</svg>
