<svg width="380.038086" height="282.152344" viewBox="0 0 380.038 282.152" fill="none" xmlns="http://www.w3.org/2000/svg" xmlns:xlink="http://www.w3.org/1999/xlink">
	<desc>
			Created with Pixso.
	</desc>
	<g clip-path="url(#clip9_14)">
		<path d="M335.459 199.492C337.523 200.785 339.664 201.953 341.869 202.988C342.215 202.988 341.719 203.66 348.643 191.158C348.691 191.071 348.702 190.968 348.674 190.872C348.647 190.777 348.582 190.696 348.495 190.648C341.753 186.914 342.197 187.104 341.981 187.166C341.765 187.228 342.181 186.566 335.311 198.98C335.263 199.067 335.252 199.17 335.28 199.266C335.307 199.362 335.372 199.443 335.459 199.492ZM342.231 188.038L347.803 191.124L341.723 202.102L336.151 199.016L342.231 188.038Z" fill-rule="evenodd" fill="#4605AD"/>
		<path d="M327.467 195.054C329.529 196.353 331.671 197.521 333.879 198.552C334.223 198.552 333.727 199.226 340.651 186.722C340.699 186.635 340.711 186.532 340.683 186.437C340.656 186.341 340.592 186.26 340.505 186.212L334.275 182.762C334.232 182.738 334.185 182.723 334.136 182.717C334.087 182.711 334.037 182.715 333.99 182.729C333.942 182.742 333.898 182.765 333.86 182.796C333.821 182.827 333.789 182.865 333.765 182.908L327.319 194.544C327.271 194.631 327.26 194.734 327.288 194.829C327.315 194.925 327.38 195.006 327.467 195.054Z" fill-rule="evenodd" fill="#4605AD"/>
		<path d="M319.475 190.63C321.538 191.927 323.679 193.095 325.887 194.126C326.231 194.126 325.761 194.814 332.659 182.298C332.707 182.211 332.719 182.108 332.692 182.012C332.664 181.916 332.6 181.835 332.513 181.786C325.729 178.03 326.213 178.244 325.997 178.302C325.781 178.36 326.187 177.732 319.329 190.118C319.305 190.161 319.29 190.209 319.284 190.258C319.278 190.307 319.282 190.357 319.296 190.404C319.309 190.452 319.332 190.496 319.363 190.535C319.394 190.574 319.432 190.606 319.475 190.63ZM326.247 179.176L331.819 182.262L325.739 193.238L320.169 190.154L326.247 179.176Z" fill-rule="evenodd" fill="#4605AD"/>
		<path d="M364.969 155.938C364.966 155.838 364.924 155.743 364.852 155.674C364.78 155.605 364.683 155.568 364.583 155.57L292.097 157.138C285.349 151.038 277.496 146.286 268.961 143.138C268.869 143.111 268.77 143.12 268.685 143.163C268.599 143.207 268.534 143.281 268.501 143.37C268.468 143.46 268.47 143.559 268.507 143.648C268.544 143.736 268.614 143.807 268.701 143.846C280.731 148.275 291.337 155.88 299.392 165.854C307.447 175.827 312.65 187.796 314.448 200.488C316.247 213.181 314.574 226.124 309.607 237.943C304.64 249.761 296.564 260.013 286.238 267.611C275.912 275.208 263.721 279.866 250.96 281.091C238.199 282.315 225.344 280.061 213.762 274.566C202.179 269.071 192.302 260.542 185.177 249.884C178.053 239.226 173.949 226.837 173.301 214.034C173.299 213.984 173.286 213.936 173.265 213.891C173.244 213.847 173.214 213.807 173.178 213.774C173.141 213.74 173.098 213.715 173.051 213.698C173.005 213.682 172.956 213.674 172.906 213.677C172.857 213.679 172.808 213.692 172.764 213.713C172.719 213.734 172.679 213.764 172.646 213.8C172.613 213.837 172.587 213.88 172.57 213.927C172.554 213.973 172.547 214.022 172.549 214.072C173.063 224.228 175.731 234.158 180.376 243.204C185.022 252.25 191.538 260.204 199.492 266.539C207.447 272.873 216.658 277.444 226.514 279.947C236.37 282.449 246.645 282.827 256.658 281.055C266.672 279.283 276.193 275.401 284.591 269.667C292.99 263.934 300.072 256.479 305.369 247.799C310.666 239.119 314.056 229.411 315.314 219.321C316.573 209.23 315.67 198.987 312.667 189.272C344.243 206.76 343.025 206.142 343.227 206.142C343.547 206.142 342.827 207.272 352.049 190.612C352.097 190.525 352.109 190.422 352.082 190.326C352.054 190.23 351.99 190.149 351.903 190.1L324.149 174.73C367.667 173.79 365.053 173.93 365.245 173.73C365.437 173.53 365.351 174.492 364.969 155.938ZM306.521 175.114L314.993 174.932L310.445 183.142C309.303 180.388 307.993 177.707 306.521 175.114ZM310.809 184.04L315.863 174.912L317.323 174.882L311.401 185.576C311.209 185.06 311.021 184.55 310.809 184.04ZM318.193 174.862C318.557 174.862 317.851 174.526 323.827 177.836L317.747 188.812L312.177 185.728L318.193 174.862ZM351.207 190.582L343.077 205.258L312.331 188.23C312.119 187.586 311.898 186.945 311.667 186.306L317.713 189.654C317.801 189.702 317.904 189.713 318 189.685C318.096 189.658 318.177 189.593 318.225 189.506L324.667 177.872C324.691 177.829 324.707 177.781 324.712 177.732C324.718 177.683 324.714 177.633 324.7 177.586C324.687 177.538 324.664 177.494 324.633 177.455C324.602 177.416 324.564 177.384 324.521 177.36L319.943 174.824L322.651 174.766L351.207 190.582ZM306.093 174.372C302.524 168.257 298.076 162.698 292.893 157.874L364.221 156.332L364.583 173.108L306.093 174.372Z" fill-rule="evenodd" fill="#4605AD"/>
		<path d="M361.909 157.746C354.637 157.842 354.719 157.814 354.527 158.014C354.335 158.214 354.425 157.592 354.711 171.58C354.713 171.678 354.754 171.772 354.824 171.841C354.894 171.909 354.989 171.948 355.087 171.948L362.213 171.796C362.313 171.793 362.408 171.751 362.477 171.679C362.546 171.606 362.583 171.51 362.581 171.41L362.293 158.114C362.288 158.015 362.245 157.922 362.174 157.854C362.103 157.785 362.008 157.747 361.909 157.746Z" fill-rule="evenodd" fill="#4605AD"/>
		<path d="M353.045 158.048C352.845 157.848 353.033 157.93 345.657 158.096C345.608 158.097 345.559 158.108 345.514 158.128C345.469 158.147 345.428 158.176 345.394 158.212C345.359 158.247 345.333 158.289 345.315 158.335C345.297 158.381 345.288 158.43 345.289 158.48L345.577 171.778C345.579 171.876 345.62 171.97 345.69 172.039C345.76 172.107 345.855 172.146 345.953 172.146L353.079 171.992C353.129 171.991 353.177 171.98 353.222 171.96C353.268 171.94 353.309 171.912 353.343 171.876C353.377 171.84 353.404 171.798 353.422 171.752C353.44 171.706 353.448 171.657 353.447 171.608C353.159 157.612 353.245 158.236 353.045 158.048Z" fill-rule="evenodd" fill="#4605AD"/>
		<path d="M343.911 158.244C343.711 158.044 343.985 158.144 336.523 158.294C336.474 158.295 336.425 158.306 336.38 158.326C336.335 158.345 336.294 158.374 336.26 158.41C336.225 158.445 336.199 158.487 336.181 158.533C336.163 158.579 336.154 158.628 336.155 158.678L336.443 171.974C336.445 172.072 336.486 172.166 336.556 172.235C336.626 172.303 336.721 172.342 336.819 172.342L343.947 172.19C344.047 172.187 344.141 172.145 344.21 172.074C344.279 172.002 344.317 171.905 344.315 171.806C344.021 157.826 344.111 158.436 343.911 158.244ZM337.187 171.584L336.917 159.038L343.283 158.9L343.555 171.446L337.187 171.584Z" fill-rule="evenodd" fill="#4605AD"/>
		<path d="M334.509 158.338C327.239 158.494 327.323 158.404 327.127 158.606C326.931 158.808 326.993 158.168 327.309 172.174C327.312 172.272 327.352 172.365 327.423 172.434C327.493 172.503 327.587 172.541 327.685 172.542L334.813 172.386C334.913 172.384 335.007 172.342 335.076 172.271C335.145 172.199 335.183 172.103 335.181 172.004L334.893 158.706C334.885 158.608 334.842 158.517 334.771 158.449C334.7 158.381 334.607 158.341 334.509 158.338ZM328.055 171.78L327.783 159.236L334.149 159.098L334.421 171.642L328.055 171.78Z" fill-rule="evenodd" fill="#4605AD"/>
		<path d="M325.643 158.638C325.443 158.438 325.643 158.522 318.257 158.688C318.158 158.69 318.063 158.732 317.994 158.804C317.925 158.876 317.887 158.972 317.889 159.072L318.177 172.37C318.179 172.468 318.22 172.562 318.29 172.631C318.36 172.699 318.455 172.738 318.553 172.738L325.679 172.584C325.779 172.582 325.874 172.54 325.943 172.468C326.013 172.396 326.051 172.3 326.049 172.2C325.759 158.22 325.845 158.832 325.643 158.638ZM318.921 171.978L318.649 159.432L325.017 159.296L325.287 171.84L318.921 171.978Z" fill-rule="evenodd" fill="#4605AD"/>
		<path d="M240.323 183.868C240.123 183.868 240.085 183.812 226.779 178.868C226.685 178.833 226.609 178.763 226.568 178.672C226.526 178.581 226.522 178.477 226.557 178.384C226.592 178.29 226.662 178.214 226.753 178.173C226.844 178.131 226.948 178.127 227.041 178.162L240.455 183.144C240.535 183.176 240.601 183.236 240.643 183.311C240.684 183.387 240.698 183.475 240.683 183.559C240.667 183.644 240.623 183.721 240.558 183.777C240.492 183.834 240.409 183.866 240.323 183.868Z" fill-rule="evenodd" fill="#4605AD"/>
		<path d="M184.741 162.45C118.205 137.786 122.685 139.338 122.467 139.45C122.249 139.562 122.517 138.996 119.535 147.026C119.296 146.555 118.928 146.162 118.473 145.894L97.8511 133.612C97.2402 133.249 96.5137 133.135 95.821 133.292L66.4391 137.152C66.4728 137.057 66.4694 136.952 66.4293 136.859C66.3892 136.767 66.3156 136.693 66.2231 136.652L64.9231 136.168L114.105 93.1162C114.751 93.7092 115.6 94.0325 116.477 94.0193C117.354 94.0061 118.192 93.6576 118.82 93.0452C119.448 92.4329 119.817 91.6033 119.852 90.7269C119.887 89.8507 119.585 88.9941 119.009 88.3335C118.432 87.6731 117.624 87.2584 116.751 87.1752C115.878 87.0919 115.006 87.3462 114.315 87.8859C113.623 88.4254 113.165 89.2094 113.034 90.0765C112.902 90.9436 113.108 91.8281 113.609 92.5481L64.1171 135.864C61.4051 134.864 60.3511 134.448 59.9031 134.3C59.5891 134.198 59.441 134.164 59.303 134.5C59.1031 134.946 58.6071 136.346 56.9031 140.918C56.8687 141.012 56.8728 141.115 56.9144 141.206C56.9559 141.296 57.0317 141.367 57.1251 141.402L57.597 141.576L5.67712 187.012C5.01331 186.438 4.15479 186.14 3.27808 186.179C2.40137 186.219 1.57312 186.592 0.963379 187.223C0.35376 187.855 0.0090332 188.695 0.00012207 189.573C-0.00866699 190.451 0.31897 191.298 0.915771 191.942C1.51257 192.585 2.33313 192.975 3.20886 193.032C4.08459 193.089 4.94897 192.809 5.62415 192.248C6.29944 191.688 6.73425 190.89 6.83936 190.019C6.94434 189.147 6.71167 188.269 6.18909 187.564L58.389 141.876C62.8311 143.524 63.4891 143.818 63.691 143.818C63.7678 143.818 63.8427 143.794 63.9059 143.751C63.9691 143.707 64.0176 143.646 64.045 143.574L83.7451 165.816C84.1744 166.391 84.808 166.779 85.5151 166.9L109.139 171.042C109.654 171.133 110.184 171.078 110.669 170.882L107.757 178.722C107.739 178.768 107.731 178.817 107.733 178.867C107.734 178.916 107.746 178.965 107.766 179.01C107.787 179.055 107.816 179.095 107.852 179.129C107.888 179.163 107.931 179.189 107.977 179.206C155.967 197.04 154.577 196.562 154.777 196.562C154.865 196.562 154.95 196.531 155.018 196.474C155.086 196.418 155.131 196.34 155.147 196.253C155.163 196.166 155.147 196.077 155.104 196C155.06 195.924 154.991 195.865 154.909 195.834L108.589 178.634C108.589 178.634 111.809 170.412 115.841 159.548C163.939 177.41 163.287 177.218 163.487 177.218C163.575 177.217 163.659 177.185 163.726 177.128C163.793 177.072 163.838 176.993 163.853 176.907C163.869 176.821 163.854 176.732 163.811 176.656C163.769 176.579 163.701 176.52 163.619 176.488L116.101 158.842C119.953 148.456 122.837 140.266 122.837 140.266L184.471 163.158C184.565 163.194 184.669 163.191 184.761 163.15C184.853 163.109 184.924 163.033 184.96 162.939C184.996 162.845 184.993 162.741 184.952 162.649C184.911 162.557 184.835 162.486 184.741 162.45ZM64.2671 140.82L61.7291 139.802C61.6504 139.771 61.5638 139.768 61.4831 139.793C61.4024 139.817 61.3322 139.868 61.2837 139.937C61.2352 140.006 61.2111 140.089 61.2153 140.173C61.2196 140.258 61.2519 140.338 61.3071 140.402L63.5071 142.884L57.7391 140.828L59.8651 135.092L65.605 137.224C63.6529 137.48 62.8831 137.598 62.563 137.662C62.4763 137.665 62.3934 137.699 62.3286 137.757C62.2637 137.814 62.2208 137.893 62.2071 137.978C62.1934 138.064 62.2098 138.152 62.2536 138.227C62.2974 138.302 62.3657 138.36 62.4471 138.39L64.847 139.238L64.2671 140.82ZM98.7731 152.71C98.7166 152.925 98.6159 153.126 98.4774 153.3C98.3388 153.474 98.1655 153.618 97.9684 153.721C97.7714 153.824 97.5549 153.885 97.3329 153.9C97.1109 153.915 96.8882 153.884 96.6791 153.808L64.967 141.092L65.5671 139.476L97.6871 150.774C98.0733 150.908 98.397 151.179 98.5971 151.536C98.7972 151.893 98.8597 152.31 98.7731 152.71Z" fill-rule="evenodd" fill="#4605AD"/>
		<path d="M295.221 207.548C295.125 207.338 295.807 207.646 282.777 202.808C284.023 199.456 284.019 199.608 283.927 199.398C283.835 199.188 285.641 199.826 256.703 189.172C256.609 189.137 256.506 189.141 256.415 189.183C256.324 189.224 256.254 189.3 256.219 189.394C256.184 189.487 256.188 189.591 256.23 189.682C256.271 189.773 256.348 189.843 256.441 189.878L283.101 199.778L276.221 218.292L243.857 206.272C243.763 206.237 243.66 206.241 243.569 206.283C243.478 206.324 243.408 206.4 243.373 206.494C243.338 206.587 243.342 206.691 243.384 206.782C243.426 206.873 243.501 206.943 243.595 206.978L275.957 218.998L268.851 238.136L177.501 204.22C177.407 204.185 177.304 204.189 177.213 204.231C177.122 204.272 177.052 204.348 177.017 204.442C176.982 204.535 176.986 204.639 177.028 204.73C177.07 204.821 177.146 204.891 177.239 204.926C270.839 239.626 268.865 239.004 269.065 239.004C269.142 239.004 269.218 238.981 269.281 238.937C269.344 238.893 269.392 238.83 269.419 238.758L270.645 235.454C281.717 239.564 282.807 240.018 283.009 240.018C283.086 240.018 283.161 239.995 283.224 239.951C283.288 239.908 283.336 239.846 283.363 239.774C296.031 205.792 295.313 207.764 295.221 207.548Z" fill-rule="evenodd" fill="#4605AD"/>
		<path d="M241.285 206.13L239.627 205.514C239.534 205.479 239.458 205.409 239.416 205.318C239.374 205.227 239.37 205.123 239.405 205.03C239.44 204.936 239.51 204.86 239.601 204.819C239.692 204.777 239.795 204.773 239.889 204.808L241.547 205.424C241.641 205.459 241.717 205.529 241.758 205.62C241.8 205.711 241.804 205.814 241.769 205.908C241.734 206.001 241.664 206.077 241.573 206.119C241.482 206.161 241.379 206.165 241.285 206.13Z" fill-rule="evenodd" fill="#4605AD"/>
		<path d="M237.073 204.566L234.173 203.488C234.086 203.449 234.016 203.379 233.979 203.29C233.942 203.202 233.94 203.104 233.973 203.014C234.006 202.924 234.072 202.851 234.158 202.808C234.243 202.765 234.342 202.757 234.433 202.784L237.335 203.86C237.429 203.895 237.505 203.965 237.546 204.056C237.588 204.147 237.592 204.25 237.557 204.344C237.522 204.438 237.452 204.513 237.361 204.555C237.27 204.597 237.167 204.601 237.073 204.566Z" fill-rule="evenodd" fill="#4605AD"/>
		<path d="M233.733 203.292C233.533 203.292 234.831 203.742 192.395 187.966C192.302 187.931 192.226 187.861 192.184 187.77C192.142 187.679 192.138 187.575 192.173 187.482C192.208 187.388 192.278 187.312 192.369 187.271C192.46 187.229 192.563 187.225 192.657 187.26L233.857 202.564C233.939 202.595 234.008 202.653 234.051 202.729C234.095 202.804 234.111 202.893 234.096 202.979C234.081 203.065 234.037 203.144 233.971 203.201C233.905 203.258 233.82 203.29 233.733 203.292Z" fill-rule="evenodd" fill="#4605AD"/>
		<path d="M268.831 143.492C268.071 141.344 259.011 122.102 256.031 116.68C251.781 108.938 248.289 108.636 244.893 105.446C241.949 105.169 239.044 104.167 236.485 102.684C236.135 102.885 235.763 103.044 235.375 103.156C236.285 104.65 233.827 106.62 231.821 106.922C233.479 106.766 232.769 109.656 230.281 110.09C229.737 110.106 225.447 110.236 223.471 110.272C221.089 116.124 217.361 111.194 217.361 102.042C217.312 99.4194 217.695 96.8066 218.493 94.3081C219.093 92.6281 219.893 91.5261 220.779 91.3081L194.199 93.4882C191.556 93.7054 189.06 94.7964 187.105 96.5889C185.151 98.3815 183.848 100.773 183.403 103.388C182.958 106.003 183.396 108.691 184.648 111.029C185.9 113.367 187.894 115.223 190.317 116.302L207.959 124.194L205.791 134.768L238.833 150.384L248.347 129.796L248.347 142.074L252.547 149.626L241.847 179.004C247.142 182.837 253.459 185.005 259.991 185.232L269.005 157.664C270.509 153.05 270.448 148.068 268.831 143.492Z" fill-rule="evenodd" fill="#FFD0C7"/>
		<path d="M379.633 106.43C373.721 106.616 370.297 99.6899 363.123 103.23C359.053 101.899 354.891 100.866 350.671 100.142C344.698 99.1469 338.667 98.5455 332.615 98.342C323.733 98.1421 323.505 99.542 323.429 100C323.353 100.458 323.123 101.866 331.605 104.502C337.406 106.24 343.315 107.595 349.293 108.558C353.53 109.204 357.807 109.555 362.093 109.608C367.281 114.54 375.247 112.468 379.939 107.062C379.99 107.006 380.023 106.936 380.034 106.861C380.045 106.787 380.033 106.71 380 106.642C379.967 106.574 379.915 106.518 379.849 106.48C379.784 106.442 379.709 106.424 379.633 106.43ZM331.833 103.776C325.617 101.844 324.105 100.536 324.175 100.112C324.245 99.688 326.093 98.9301 332.603 99.0861C339.021 99.3073 345.415 99.9756 351.739 101.086L350.607 107.996C344.255 107.026 337.99 105.616 331.833 103.776ZM351.353 108.098L352.479 101.22C355.944 101.92 359.368 102.812 362.735 103.89L361.925 108.842C358.389 108.787 354.862 108.543 351.353 108.098Z" fill-rule="evenodd" fill="#4605AD"/>
		<path d="M341.097 32.7521C339.253 26.2711 335.106 20.6869 329.434 17.0494C323.762 13.4121 316.956 11.9719 310.297 13.0001C304.895 13.7941 299.978 16.5604 296.494 20.7654C293.011 24.9703 291.208 30.3163 291.433 35.7721L282.389 42.4921C282.33 42.5356 282.285 42.5956 282.26 42.6644C282.235 42.733 282.23 42.8077 282.247 42.8792C282.263 42.9506 282.3 43.0156 282.353 43.0662C282.406 43.1168 282.473 43.1508 282.545 43.1639L293.701 45.2261C302.203 63.8081 328.155 67.006 338.453 50.9459C340.149 48.2699 341.261 45.2661 341.716 42.1311C342.172 38.996 341.961 35.8 341.097 32.7521ZM337.821 50.5381C327.727 66.2739 302.381 62.738 294.307 44.738C294.137 44.4401 294.825 44.666 283.531 42.58C292.613 35.83 292.169 36.2981 292.189 35.9399C291.921 30.6343 293.641 25.4193 297.013 21.314C300.385 17.2087 305.167 14.5082 310.423 13.7401C316.897 12.7434 323.512 14.1443 329.025 17.6796C334.539 21.2147 338.573 26.6412 340.369 32.9399C341.206 35.8876 341.412 38.9785 340.973 42.0109C340.534 45.0432 339.46 47.949 337.821 50.5381Z" fill-rule="evenodd" fill="#4605AD"/>
		<path d="M314.421 39.6539C315.705 35.778 320.923 35.006 322.145 31.2539C322.332 30.7469 322.412 30.2064 322.378 29.6669C322.345 29.1274 322.199 28.6008 321.95 28.1208C321.702 27.6409 321.356 27.218 320.935 26.8793C320.513 26.5406 320.026 26.2936 319.504 26.1539C318.982 26.0142 318.436 25.9849 317.902 26.0681C317.368 26.1512 316.857 26.3448 316.402 26.6366C315.947 26.9283 315.558 27.3118 315.26 27.7626C314.961 28.2133 314.76 28.7211 314.669 29.2539C314.659 29.3123 314.638 29.3682 314.607 29.4182C314.576 29.4684 314.535 29.512 314.487 29.5463C314.439 29.5806 314.384 29.6051 314.327 29.6185C314.269 29.6318 314.209 29.6337 314.151 29.6239C314.093 29.6143 314.037 29.5931 313.987 29.5618C313.937 29.5305 313.893 29.4897 313.859 29.4417C313.825 29.3936 313.8 29.3391 313.787 29.2815C313.773 29.2239 313.771 29.1643 313.781 29.106C313.893 28.4503 314.14 27.8251 314.506 27.2703C314.873 26.7155 315.351 26.243 315.911 25.8833C316.47 25.5236 317.098 25.2844 317.755 25.181C318.412 25.0776 319.084 25.1122 319.726 25.2828C320.369 25.4534 320.969 25.7559 321.489 26.1713C322.008 26.5867 322.435 27.1058 322.743 27.6956C323.05 28.2852 323.232 28.9325 323.275 29.5961C323.319 30.2598 323.223 30.9252 322.995 31.55C321.667 35.642 316.429 36.4679 315.275 39.95C315.256 40.006 315.225 40.0577 315.186 40.1022C315.147 40.1465 315.099 40.1826 315.045 40.2085C314.992 40.2344 314.934 40.2496 314.875 40.2532C314.816 40.2566 314.756 40.2484 314.7 40.229C314.644 40.2095 314.592 40.1792 314.548 40.1398C314.504 40.1005 314.467 40.0526 314.442 39.9993C314.416 39.9458 314.401 39.8879 314.397 39.8286C314.393 39.7694 314.402 39.71 314.421 39.6539Z" fill-rule="evenodd" fill="#4605AD"/>
		<path d="M313.821 43.308C313.627 43.2329 313.421 43.1973 313.213 43.2029C313.005 43.2085 312.801 43.2555 312.611 43.3409C312.422 43.4264 312.252 43.5486 312.11 43.7007C311.968 43.8527 311.858 44.0314 311.786 44.2262C311.714 44.4211 311.682 44.6284 311.691 44.8361C311.7 45.0436 311.75 45.2472 311.839 45.4352C311.927 45.6233 312.052 45.7917 312.206 45.9309C312.361 46.0702 312.541 46.1772 312.737 46.246C312.931 46.321 313.138 46.3567 313.345 46.3512C313.553 46.3455 313.758 46.2986 313.947 46.213C314.136 46.1277 314.307 46.0054 314.448 45.8534C314.59 45.7013 314.7 45.5226 314.772 45.3278C314.844 45.1328 314.876 44.9255 314.867 44.7179C314.858 44.5105 314.808 44.3068 314.72 44.1188C314.631 43.9308 314.506 43.7622 314.352 43.623C314.198 43.4839 314.017 43.3767 313.821 43.308Z" fill-rule="evenodd" fill="#4605AD"/>
		<path d="M242.009 36.672L230.449 35.092C230.352 35.0791 230.263 35.0284 230.203 34.951C230.142 34.8737 230.114 34.7756 230.125 34.678C230.771 28.7441 230.671 29.036 230.871 28.8781C231.071 28.72 230.433 28.704 242.671 30.376C242.768 30.3895 242.856 30.4403 242.916 30.5176C242.976 30.595 243.004 30.6926 242.993 30.79L242.393 36.3359C242.384 36.4303 242.339 36.5173 242.267 36.5797C242.196 36.6421 242.104 36.675 242.009 36.672ZM230.913 34.3979L241.677 35.8719L242.201 31.0721L231.435 29.6001L230.913 34.3979Z" fill-rule="evenodd" fill="#4605AD"/>
		<path d="M240.119 0.124023C238.52 -0.131226 236.882 0.00927734 235.349 0.532959C233.816 1.05664 232.435 1.94775 231.326 3.1283C230.217 4.30896 229.414 5.74316 228.987 7.30566C228.56 8.86816 228.523 10.5115 228.877 12.092C231.199 19.1321 231.397 19.292 231.209 26.5259C231.217 26.5859 231.239 26.6952 231.274 26.7448C231.309 26.7942 231.355 26.8345 231.409 26.8619C231.517 26.9139 242.685 28.462 242.839 28.406C242.919 28.3622 243.033 28.2672 243.065 28.182C244.265 21.674 244.825 21.0559 248.427 14.778C248.918 13.7872 249.222 12.7147 249.325 11.614C249.571 8.88074 248.75 6.15833 247.034 4.01672C245.318 1.875 242.84 0.480103 240.119 0.124023ZM247.773 14.4081C244.111 20.438 243.573 21.316 242.411 27.6321L237.563 26.9661L239.025 13.5541C241.761 13.928 242.145 13.994 242.439 13.994C243.088 14.0011 243.716 13.7675 244.202 13.3381C244.688 12.9088 244.998 12.3145 245.071 11.67C245.135 10.9515 244.92 10.2361 244.469 9.67273C244.019 9.10938 243.368 8.74158 242.653 8.646L241.585 8.50195C241.235 8.44739 240.878 8.46411 240.534 8.55103C240.191 8.63806 239.869 8.79346 239.587 9.00806C239.305 9.22278 239.069 9.49207 238.894 9.80005C238.719 10.1079 238.608 10.448 238.567 10.8L238.367 12.704L235.339 12.29C234.957 12.2506 234.594 12.1001 234.297 11.8569C233.999 11.6136 233.78 11.2886 233.665 10.9216C233.551 10.5548 233.546 10.1625 233.653 9.79309C233.759 9.42383 233.971 9.09387 234.263 8.84399C234.47 8.68396 234.707 8.5675 234.96 8.50146C235.213 8.43555 235.477 8.42139 235.735 8.45996L238.149 8.78601C238.247 8.78955 238.342 8.755 238.415 8.68945C238.487 8.62402 238.532 8.53284 238.538 8.4353C238.545 8.33765 238.513 8.24146 238.45 8.16687C238.386 8.09229 238.296 8.04541 238.199 8.03601L235.837 7.71399C235.479 7.66113 235.113 7.68152 234.763 7.77405C234.413 7.86646 234.085 8.02905 233.799 8.25195C233.391 8.59314 233.093 9.04651 232.94 9.55579C232.788 10.0651 232.788 10.6082 232.941 11.1172C233.094 11.6265 233.393 12.0795 233.801 12.4202C234.21 12.7609 234.709 12.9744 235.237 13.0341L238.287 13.452L236.825 26.866L231.977 26.202C232.404 21.6541 231.701 17.071 229.931 12.86C229.409 11.3666 229.284 9.7627 229.57 8.20654C229.855 6.65027 230.541 5.19519 231.56 3.98438C232.578 2.77356 233.894 1.84875 235.379 1.3009C236.863 0.753052 238.464 0.601196 240.025 0.859985C241.53 1.04321 242.971 1.57532 244.233 2.41394C245.496 3.25256 246.546 4.37439 247.298 5.69019C248.05 7.00598 248.485 8.47937 248.568 9.9928C248.65 11.5063 248.378 13.0182 247.773 14.4081ZM239.105 12.808L239.315 10.886C239.342 10.64 239.418 10.402 239.539 10.1864C239.661 9.97083 239.825 9.78223 240.021 9.63196C240.833 8.99792 241.673 9.27197 242.563 9.39197C242.945 9.43115 243.308 9.58154 243.605 9.82471C243.902 10.0679 244.122 10.3929 244.236 10.7598C244.351 11.1265 244.355 11.5187 244.248 11.8877C244.142 12.2568 243.929 12.5865 243.637 12.8361C243.431 12.9971 243.194 13.1145 242.941 13.1808C242.688 13.2472 242.424 13.2612 242.165 13.222L239.105 12.808Z" fill-rule="evenodd" fill="#4605AD"/>
		<path d="M191.117 48.0061L186.071 48.8961C184.911 49.0997 183.717 48.8352 182.751 48.1605C181.786 47.4857 181.127 46.4557 180.919 45.2961L180.021 40.2422C180.001 40.1464 179.945 40.0621 179.864 40.0073C179.783 39.9525 179.683 39.9315 179.587 39.9487C179.491 39.9659 179.405 40.0199 179.348 40.0994C179.291 40.1787 179.267 40.2773 179.281 40.3741L180.171 45.4202C180.374 46.5803 180.11 47.7738 179.435 48.7394C178.76 49.705 177.73 50.3639 176.571 50.5721L171.525 51.4622C171.43 51.4829 171.347 51.5394 171.293 51.62C171.239 51.7006 171.219 51.799 171.235 51.8944C171.252 51.99 171.305 52.0752 171.383 52.1327C171.462 52.1899 171.559 52.2148 171.655 52.2021L176.701 51.3121C177.276 51.2101 177.865 51.2224 178.435 51.3481C179.005 51.4739 179.544 51.7107 180.023 52.045C180.501 52.3794 180.909 52.8046 181.223 53.2964C181.537 53.7885 181.751 54.3374 181.853 54.9121L182.743 59.9581C182.752 60.0068 182.77 60.0533 182.796 60.0951C182.823 60.1368 182.857 60.173 182.898 60.2014C182.938 60.2299 182.984 60.2499 183.032 60.2607C183.081 60.2715 183.13 60.2726 183.179 60.2642C183.228 60.2555 183.274 60.2375 183.316 60.2109C183.358 60.1844 183.394 60.1499 183.422 60.1094C183.451 60.069 183.471 60.0233 183.482 59.9751C183.492 59.9268 183.494 59.8768 183.485 59.8281L182.595 54.7821C182.391 53.6216 182.656 52.4275 183.331 51.4615C184.005 50.4955 185.035 49.8362 186.195 49.6282L191.241 48.7401C191.327 48.7125 191.401 48.6548 191.448 48.5775C191.495 48.5002 191.512 48.4086 191.497 48.3193C191.482 48.2301 191.435 48.1493 191.366 48.0918C191.296 48.0342 191.208 48.0038 191.117 48.0061ZM181.889 52.9402C181.517 52.3467 181.03 51.8339 180.456 51.4323C179.883 51.0306 179.234 50.7483 178.549 50.6022C179.143 50.2305 179.655 49.7433 180.056 49.1694C180.458 48.5956 180.74 47.947 180.885 47.2621C181.256 47.8558 181.743 48.369 182.316 48.7714C182.889 49.1736 183.537 49.4568 184.221 49.6041C183.629 49.9758 183.117 50.4626 182.717 51.0356C182.316 51.6086 182.035 52.2562 181.889 52.9402Z" fill-rule="evenodd" fill="#4605AD"/>
		<path d="M269.185 143.362C268.417 141.184 259.319 121.878 256.365 116.496C252.029 108.598 248.513 108.35 245.165 105.16C244.703 104.351 244.443 103.442 244.409 102.51C244.374 101.579 244.565 100.653 244.965 99.8121C245.523 98.5365 246.238 97.3353 247.093 96.2361C251.517 91.4901 260.425 99.1061 260.493 99.1781C261.576 100.324 263.023 101.059 264.587 101.258C264.823 101.278 265.06 101.247 265.283 101.165C265.505 101.084 265.706 100.954 265.873 100.786C266.04 100.618 266.167 100.415 266.247 100.192C266.326 99.9694 266.356 99.7317 266.333 99.4961C266.069 97.8214 265.195 96.3035 263.879 95.2341C266.327 95.6342 267.355 92.6501 263.787 89.3481C266.637 90.1481 267.805 87.1241 264.215 83.6481C263.843 83.2905 263.442 82.9647 263.015 82.6741C249.987 71.748 242.063 80.274 241.561 80.8461C239.038 83.1825 237.047 86.0352 235.725 89.2101C233.86 89.6484 232.095 90.4377 230.525 91.5361C228.36 92.4965 226.065 93.1333 223.715 93.4261C223.423 92.7601 222.475 90.8621 221.157 90.9061C220.957 90.9061 221.589 90.8701 194.157 93.118C191.661 93.3356 189.29 94.3041 187.355 95.8961C185.42 97.488 184.013 99.6287 183.319 102.036C180.535 101.815 177.752 102.468 175.357 103.904C136.821 126.822 138.565 125.67 138.481 125.968C138.476 126.215 138.517 126.46 138.601 126.692C134.743 127.36 128.985 127.924 125.965 128.474C113.387 130.78 111.321 132.102 110.965 133.092C108.893 138.784 128.235 138.74 135.499 143.526C137.585 144.998 139.9 146.118 142.349 146.84C144.667 146.909 146.949 146.257 148.881 144.974C149.601 145.734 149.653 145.84 149.867 145.84C150.081 145.84 148.805 146.462 176.735 131.45L189.821 160.716L177.401 164.744C174.098 165.821 171.057 167.577 168.474 169.9C165.891 172.222 163.822 175.06 162.401 178.23C143.261 220.958 144.401 218.196 144.641 218.518C144.759 218.638 145.641 219.318 145.763 219.418C141.899 226.586 137.163 234.694 134.763 240.108C129.079 252.896 129.071 255.54 129.699 256.414C133.533 261.742 145.309 244.338 154.113 240.73C156.246 239.914 158.168 238.629 159.739 236.972C161.831 234.39 163.489 231.485 164.649 228.372C165.201 228.508 165.761 228.611 166.325 228.682C166.649 228.6 165.325 231.148 184.755 189.734C192.497 187.948 205.427 185.18 218.725 182.718C236.783 179.372 239.069 152.18 239.187 150.548L245.293 137.334L252.143 149.66C243.595 173.128 241.795 177.9 241.531 178.932C241.443 179.278 241.531 179.202 241.587 179.27C241.715 179.382 242.375 179.828 242.515 179.922C241.165 182.671 239.185 185.063 236.735 186.902C233.309 189.4 231.843 191.122 232.375 192.014C233.225 193.448 238.477 191.014 239.995 190.31C238.409 193.885 236.421 197.268 234.069 200.394C233.161 201.674 232.969 202.75 233.555 203.268C234.927 204.49 238.035 201.002 239.269 199.62C238.453 201.31 237.547 202.956 236.555 204.55C235.717 205.782 235.583 206.814 236.197 207.31C237.115 208.052 238.651 206.91 239.495 206.018C240.592 204.818 241.617 203.555 242.565 202.234C241.991 203.664 241.469 204.834 241.177 205.424C239.719 208.378 241.965 209.728 244.279 206.534C245.105 205.359 245.867 204.14 246.559 202.882C246.435 203.33 246.313 203.722 246.183 204.082C245.507 205.966 245.997 206.538 246.349 206.71C247.285 207.17 248.495 205.614 249.061 204.728C252.754 198.575 255.986 192.158 258.731 185.528C258.875 185.538 259.931 185.624 260.065 185.598C260.445 185.494 259.851 186.924 269.371 157.776C270.89 153.081 270.825 148.016 269.185 143.362ZM242.065 81.4141C242.265 81.3 246.613 76.8741 249.485 78.9661C252.229 80.9661 250.185 86.3081 250.385 85.7241C249.973 86.9241 250.785 87.238 252.037 87.1101C252.733 87.04 253.413 86.9541 253.801 87.5741C254.443 88.6001 253.477 90.5121 251.015 90.1342C250.948 90.1235 250.88 90.1304 250.817 90.1543C250.754 90.1781 250.698 90.218 250.655 90.2701C249.655 91.5441 246.605 95.5961 246.411 95.8701C244.427 98.6261 242.739 101.782 244.149 104.87C241.716 104.565 239.357 103.827 237.183 102.692C237.802 102.298 238.323 101.767 238.707 101.141C239.091 100.516 239.327 99.8107 239.397 99.0801C241.507 98.4102 245.647 95.9241 246.455 93.8322C246.531 93.6716 246.572 93.4971 246.577 93.3198C246.581 93.1425 246.548 92.9662 246.481 92.8021C245.785 91.3621 241.317 93.5861 239.337 94.1161C238.337 94.3842 237.381 94.5981 236.453 94.7581C235.969 93.9304 235.743 92.9771 235.803 92.0201C236.467 91.1899 237.403 89.8441 236.499 89.3162C237.78 86.321 239.677 83.6289 242.065 81.4141ZM235.065 92.8701C235.1 93.5767 235.295 94.2659 235.635 94.8861C234.693 95.0199 233.744 95.104 232.793 95.1381C233.763 94.2461 234.495 93.4921 235.065 92.8701ZM230.905 92.1841C234.621 89.972 235.927 89.8461 236.105 89.9661C236.105 89.9661 236.359 90.9041 231.657 95.1661C230.769 95.1661 229.821 95.1301 228.833 95.0562C228.734 95.0486 228.635 95.0811 228.56 95.1461C228.484 95.2112 228.438 95.3036 228.43 95.4031C228.423 95.5024 228.455 95.6008 228.52 95.6764C228.585 95.752 228.678 95.7986 228.777 95.8062C232.387 96.1392 236.027 95.8146 239.521 94.8481C240.699 94.5341 245.335 92.6121 245.793 93.1361C245.829 93.2808 245.812 93.4336 245.743 93.5662C244.204 95.8015 241.966 97.4625 239.381 98.2881C237.68 98.7327 235.954 99.0714 234.211 99.3021C234.115 99.322 234.031 99.3785 233.976 99.4596C233.922 99.5406 233.901 99.6398 233.918 99.7362C233.935 99.8325 233.989 99.9183 234.068 99.9753C234.148 100.032 234.246 100.056 234.343 100.042C235.343 99.866 237.173 99.6241 238.623 99.2881C238.492 99.9425 238.214 100.559 237.811 101.091C237.408 101.623 236.89 102.056 236.295 102.36C235.295 102.932 235.109 102.836 231.579 103.25C231.483 103.26 231.394 103.306 231.331 103.38C231.268 103.454 231.236 103.549 231.242 103.646C231.248 103.743 231.291 103.833 231.362 103.899C231.433 103.965 231.526 104.001 231.623 104L234.681 103.644C234.713 103.643 234.782 103.639 234.813 103.632L235.163 103.584C235.645 104.774 233.421 106.184 232.019 106.5C231.819 106.546 229.593 106.844 229.419 106.844C229.323 106.846 229.232 106.884 229.164 106.951C229.095 107.018 229.055 107.109 229.051 107.205C229.047 107.3 229.08 107.394 229.143 107.466C229.206 107.539 229.294 107.584 229.389 107.594C229.663 107.606 231.589 107.314 232.113 107.27C232.743 107.748 231.913 109.416 230.257 109.712C229.769 109.726 220.619 109.912 218.947 109.946C217.382 104.988 217.313 99.6792 218.747 94.6821C220.38 94.6473 222.008 94.4908 223.617 94.2141C226.127 93.8519 228.569 93.1697 230.905 92.1841ZM206.221 134.558L210.435 114.02L221.327 113.156C222.237 113.02 223.067 112.156 223.727 110.64C225.373 110.606 228.237 110.524 229.623 110.48C224.347 119.768 220.504 129.799 218.223 140.234L206.221 134.558ZM199.773 120.946L207.531 124.418L205.653 133.58L199.773 120.946ZM194.231 93.868L219.421 91.8021C216.159 95.576 216.183 109.214 219.667 112.532L192.789 114.66C192.696 114.669 192.61 114.713 192.547 114.783C192.485 114.852 192.45 114.942 192.45 115.036C192.45 115.129 192.485 115.22 192.547 115.289C192.61 115.358 192.696 115.402 192.789 115.412L209.189 116.286L207.673 123.662C188.001 114.862 194.325 117.688 190.459 115.964C188.113 114.919 186.181 113.122 184.968 110.858C183.756 108.593 183.331 105.99 183.762 103.457C184.193 100.925 185.454 98.6082 187.347 96.8719C189.24 95.1356 191.671 94.0789 194.231 93.868ZM218.575 181.98C217.519 182.18 184.657 188.562 184.175 189.198C184.053 189.398 184.775 187.88 166.021 227.892C158.446 226.395 151.358 223.053 145.383 218.162L163.083 178.538C164.463 175.464 166.47 172.713 168.976 170.461C171.482 168.209 174.43 166.505 177.633 165.46L209.433 155.152C209.521 155.124 209.595 155.066 209.642 154.987C209.689 154.909 209.706 154.816 209.69 154.726C209.673 154.636 209.625 154.555 209.553 154.498C209.481 154.441 209.391 154.413 209.299 154.418L188.271 155.396L177.395 131.092L179.765 129.818C179.853 129.77 179.918 129.69 179.947 129.594C179.975 129.499 179.965 129.396 179.917 129.308C179.87 129.22 179.789 129.155 179.694 129.126C179.598 129.098 179.495 129.108 179.407 129.156L149.937 144.996C144.73 139.839 141.04 133.35 139.271 126.238L175.755 104.552C177.979 103.219 180.558 102.599 183.145 102.776C182.547 105.543 182.918 108.432 184.197 110.958C185.476 113.485 187.584 115.494 190.169 116.65L198.725 120.478C205.687 135.428 205.363 134.878 205.569 135.078C205.769 135.202 204.203 134.442 238.413 150.61C238.233 152.914 235.819 178.788 218.575 181.98ZM252.869 149.446L248.723 141.98L248.723 129.8C248.723 129.715 248.693 129.632 248.639 129.566C248.586 129.5 248.511 129.454 248.428 129.435C248.345 129.417 248.258 129.427 248.181 129.465C248.105 129.502 248.043 129.565 248.007 129.642L238.653 149.892L218.931 140.57C221.223 129.985 225.136 119.817 230.531 110.426C232.531 109.996 233.531 108.074 232.907 107.026C234.293 106.524 236.043 105.298 235.993 103.852C235.985 103.709 235.957 103.518 235.909 103.384C236.103 103.31 236.293 103.225 236.477 103.13C238.998 104.532 241.775 105.411 244.643 105.714C248.121 108.982 251.505 109.198 255.713 116.862C258.691 122.29 267.741 141.516 268.485 143.616C270.067 148.118 270.125 153.015 268.651 157.554L259.727 184.848C253.466 184.567 247.418 182.492 242.303 178.872C253.541 147.986 252.999 149.68 252.869 149.446ZM248.421 204.33C247.473 205.816 246.785 206.094 246.677 206.042C246.623 206.016 246.439 205.592 246.889 204.342C247.305 203.174 247.981 200.376 248.005 200.174C248.575 199.052 249.041 198.074 249.323 197.442C249.363 197.351 249.365 197.248 249.33 197.156C249.294 197.063 249.223 196.988 249.133 196.948C249.042 196.907 248.939 196.904 248.847 196.939C248.754 196.974 248.679 197.044 248.637 197.134C247.893 198.804 243.181 208.534 241.601 207.582C241.401 207.466 241.301 206.866 241.847 205.758C242.744 203.847 243.537 201.889 244.221 199.892C245.237 198.428 246.091 197.13 246.519 196.442C246.567 196.358 246.581 196.258 246.557 196.164C246.534 196.07 246.475 195.989 246.393 195.937C246.311 195.885 246.212 195.867 246.117 195.887C246.022 195.907 245.938 195.962 245.883 196.042C243.802 199.362 241.479 202.523 238.931 205.5C237.801 206.68 236.899 206.928 236.649 206.726C236.479 206.588 236.465 205.99 237.157 204.972C238.672 202.487 240.029 199.909 241.221 197.254C241.973 196.292 242.527 195.512 242.801 195.12C242.829 195.079 242.849 195.033 242.859 194.985C242.87 194.937 242.871 194.887 242.862 194.838C242.853 194.789 242.834 194.743 242.807 194.701C242.781 194.66 242.746 194.624 242.705 194.596C242.664 194.568 242.619 194.548 242.57 194.538C242.522 194.527 242.472 194.526 242.423 194.535C242.375 194.544 242.328 194.563 242.287 194.59C242.245 194.616 242.209 194.651 242.181 194.692C240.441 197.204 238.444 199.527 236.223 201.626C234.951 202.78 234.197 202.85 234.033 202.706C232.997 201.784 238.505 197.396 241.867 187.482C241.883 187.435 241.89 187.386 241.886 187.336C241.883 187.287 241.87 187.239 241.848 187.195C241.827 187.15 241.796 187.111 241.759 187.078C241.722 187.046 241.679 187.021 241.632 187.005C241.585 186.989 241.536 186.982 241.487 186.986C241.437 186.989 241.389 187.002 241.345 187.024C241.301 187.045 241.261 187.076 241.229 187.113C241.196 187.15 241.171 187.193 241.155 187.24C240.913 187.954 240.657 188.64 240.393 189.302C240.356 189.307 240.32 189.317 240.287 189.334C234.687 191.998 233.117 191.822 233.001 191.63C232.905 191.47 233.331 190.3 237.157 187.51C239.681 185.62 241.726 183.163 243.127 180.338C247.583 183.199 252.656 184.955 257.927 185.462C255.221 191.974 252.044 198.28 248.421 204.33Z" fill-rule="evenodd" fill="#4605AD"/>
		<path d="M213.821 176.84C213.835 177.197 213.986 177.535 214.244 177.783C214.501 178.031 214.845 178.169 215.202 178.169C215.56 178.169 215.903 178.031 216.161 177.783C216.418 177.535 216.57 177.197 216.583 176.84C216.57 176.483 216.418 176.145 216.161 175.897C215.903 175.649 215.56 175.51 215.202 175.51C214.845 175.51 214.501 175.649 214.244 175.897C213.986 176.145 213.835 176.483 213.821 176.84Z" fill-rule="evenodd" fill="#4605AD"/>
		<path d="M226.663 152.152C226.677 152.509 226.828 152.847 227.086 153.095C227.343 153.343 227.687 153.481 228.044 153.481C228.401 153.481 228.745 153.343 229.003 153.095C229.26 152.847 229.411 152.509 229.425 152.152C229.411 151.795 229.26 151.457 229.003 151.209C228.745 150.961 228.401 150.822 228.044 150.822C227.687 150.822 227.343 150.961 227.086 151.209C226.828 151.457 226.677 151.795 226.663 152.152Z" fill-rule="evenodd" fill="#4605AD"/>
		<path d="M192.821 147.892C192.835 148.249 192.986 148.587 193.244 148.835C193.501 149.083 193.845 149.221 194.202 149.221C194.56 149.221 194.903 149.083 195.161 148.835C195.418 148.587 195.57 148.249 195.583 147.892C195.57 147.535 195.418 147.197 195.161 146.949C194.903 146.701 194.56 146.562 194.202 146.562C193.845 146.562 193.501 146.701 193.244 146.949C192.986 147.197 192.835 147.535 192.821 147.892Z" fill-rule="evenodd" fill="#4605AD"/>
		<path d="M195.093 124.316C195.107 124.673 195.258 125.011 195.516 125.259C195.773 125.507 196.117 125.645 196.474 125.645C196.832 125.645 197.175 125.507 197.433 125.259C197.69 125.011 197.842 124.673 197.855 124.316C197.842 123.959 197.69 123.621 197.433 123.373C197.175 123.125 196.832 122.986 196.474 122.986C196.117 122.986 195.773 123.125 195.516 123.373C195.258 123.621 195.107 123.959 195.093 124.316Z" fill-rule="evenodd" fill="#4605AD"/>
		<path d="M174.147 112.062C174.161 112.419 174.312 112.757 174.57 113.005C174.827 113.253 175.171 113.391 175.528 113.391C175.885 113.391 176.229 113.253 176.487 113.005C176.744 112.757 176.896 112.419 176.909 112.062C176.896 111.705 176.744 111.367 176.487 111.119C176.229 110.871 175.885 110.732 175.528 110.732C175.171 110.732 174.827 110.871 174.57 111.119C174.312 111.367 174.161 111.705 174.147 112.062Z" fill-rule="evenodd" fill="#4605AD"/>
		<path d="M143.893 126.994C143.893 127.36 144.039 127.711 144.297 127.97C144.556 128.228 144.907 128.374 145.273 128.374C145.639 128.374 145.99 128.228 146.249 127.97C146.508 127.711 146.653 127.36 146.653 126.994C146.653 126.628 146.508 126.277 146.249 126.018C145.99 125.759 145.639 125.614 145.273 125.614C144.907 125.614 144.556 125.759 144.297 126.018C144.039 126.277 143.893 126.628 143.893 126.994Z" fill-rule="evenodd" fill="#4605AD"/>
		<path d="M164.713 129.8C164.727 130.157 164.878 130.495 165.136 130.743C165.393 130.991 165.737 131.129 166.094 131.129C166.452 131.129 166.795 130.991 167.053 130.743C167.31 130.495 167.462 130.157 167.475 129.8C167.462 129.443 167.31 129.105 167.053 128.857C166.795 128.609 166.452 128.47 166.094 128.47C165.737 128.47 165.393 128.609 165.136 128.857C164.878 129.105 164.727 129.443 164.713 129.8Z" fill-rule="evenodd" fill="#4605AD"/>
		<path d="M175.989 189.788C176.003 190.145 176.154 190.483 176.412 190.731C176.669 190.979 177.013 191.117 177.37 191.117C177.728 191.117 178.071 190.979 178.329 190.731C178.586 190.483 178.738 190.145 178.751 189.788C178.738 189.431 178.586 189.093 178.329 188.845C178.071 188.597 177.728 188.458 177.37 188.458C177.013 188.458 176.669 188.597 176.412 188.845C176.154 189.093 176.003 189.431 175.989 189.788Z" fill-rule="evenodd" fill="#4605AD"/>
		<path d="M191.145 165.114C191.145 165.48 191.291 165.831 191.549 166.09C191.808 166.348 192.159 166.494 192.525 166.494C192.891 166.494 193.242 166.348 193.501 166.09C193.76 165.831 193.905 165.48 193.905 165.114C193.905 164.748 193.76 164.397 193.501 164.138C193.242 163.879 192.891 163.734 192.525 163.734C192.159 163.734 191.808 163.879 191.549 164.138C191.291 164.397 191.145 164.748 191.145 165.114Z" fill-rule="evenodd" fill="#4605AD"/>
		<path d="M151.543 207.996C151.557 208.353 151.708 208.691 151.966 208.939C152.223 209.187 152.567 209.325 152.924 209.325C153.281 209.325 153.625 209.187 153.883 208.939C154.14 208.691 154.292 208.353 154.305 207.996C154.292 207.639 154.14 207.301 153.883 207.053C153.625 206.805 153.281 206.666 152.924 206.666C152.567 206.666 152.223 206.805 151.966 207.053C151.708 207.301 151.557 207.639 151.543 207.996Z" fill-rule="evenodd" fill="#4605AD"/>
		<path d="M137.095 205.304L130.933 202.504L133.733 196.34C133.774 196.249 133.778 196.145 133.742 196.052C133.707 195.959 133.636 195.883 133.545 195.842C133.454 195.801 133.351 195.797 133.257 195.833C133.164 195.868 133.088 195.939 133.047 196.03L130.247 202.192L124.085 199.392C123.995 199.353 123.893 199.351 123.801 199.387C123.71 199.422 123.636 199.492 123.595 199.581C123.554 199.671 123.55 199.773 123.583 199.865C123.617 199.957 123.685 200.033 123.773 200.076L129.935 202.876L127.135 209.038C127.096 209.128 127.095 209.23 127.13 209.322C127.165 209.413 127.235 209.487 127.325 209.528C127.414 209.569 127.516 209.573 127.608 209.54C127.701 209.506 127.776 209.438 127.819 209.35L130.619 203.186C136.633 205.918 136.737 206.02 136.937 206.02C137.021 206.017 137.102 205.987 137.167 205.933C137.232 205.88 137.277 205.806 137.295 205.723C137.313 205.641 137.304 205.555 137.267 205.479C137.231 205.403 137.17 205.342 137.095 205.304Z" fill-rule="evenodd" fill="#4605AD"/>
	</g>
	<defs>
		<clipPath id="clip9_14">
			<rect width="380.038086" height="282.152374" fill="white"/>
		</clipPath>
	</defs>
</svg>
