<svg width="45.122009" height="45.118469" viewBox="0 0 45.122 45.1185" fill="none" xmlns="http://www.w3.org/2000/svg" xmlns:xlink="http://www.w3.org/1999/xlink">
	<desc>
			Created with Pixso.
	</desc>
	<path d="M18.2443 0C21.7129 -0.00012207 24.9207 0.914429 27.8676 2.74377C30.8146 4.57306 33.0574 7.04193 34.5963 10.1505C36.1351 13.2589 36.7383 16.5394 36.4061 19.9919C36.0739 23.4445 34.8561 26.5497 32.7527 29.3077L44.2908 40.8503C45.3641 41.9272 45.398 43.0359 44.3924 44.1763C43.3868 45.3167 42.2826 45.4219 41.0797 44.4918L29.308 32.7522C28.1562 33.6305 26.9173 34.3612 25.5914 34.9445C24.2654 35.5276 22.8896 35.947 21.4637 36.2025C20.038 36.4581 18.6021 36.5426 17.1561 36.4561C15.7102 36.3696 14.2946 36.1146 12.9094 35.691C11.5242 35.2674 10.2081 34.6871 8.96118 33.95C7.71423 33.213 6.57123 32.3398 5.53229 31.3305C4.49329 30.3212 3.58734 29.204 2.81445 27.979C2.04156 26.754 1.42334 25.4553 0.959778 24.0829C0.496216 22.7106 0.200378 21.303 0.0720825 19.8602C-0.0561523 18.4173 -0.0132446 16.9796 0.200928 15.547C0.4151 14.1144 0.794495 12.727 1.33911 11.3848C1.88367 10.0425 2.57825 8.78302 3.42285 7.60626C4.26746 6.42944 5.2384 5.36835 6.33569 4.42285C7.43304 3.47729 8.62604 2.67389 9.91467 2.01257C11.2034 1.3512 12.5517 0.850464 13.9597 0.510254C15.3676 0.170105 16.7958 0 18.2443 0ZM18.2443 4.86517C16.47 4.86517 14.7633 5.20465 13.1241 5.88361C11.4849 6.56256 10.038 7.5293 8.78339 8.78381C7.52881 10.0384 6.56201 11.4852 5.88306 13.1243C5.2041 14.7635 4.86462 16.4702 4.86462 18.2443C4.86462 20.0185 5.2041 21.7252 5.88306 23.3643C6.56201 25.0035 7.52881 26.4503 8.78339 27.7048C10.038 28.9594 11.4849 29.9261 13.1241 30.605C14.7633 31.284 16.47 31.6235 18.2443 31.6235C20.0185 31.6235 21.7252 31.284 23.3644 30.605C25.0037 29.9261 26.4505 28.9594 27.7051 27.7048C28.9597 26.4503 29.9265 25.0035 30.6055 23.3643C31.2844 21.7252 31.624 20.0185 31.624 18.2443C31.624 16.4702 31.2844 14.7635 30.6055 13.1243C29.9265 11.4852 28.9597 10.0384 27.7051 8.78381C26.4505 7.5293 25.0037 6.56256 23.3644 5.88361C21.7252 5.20465 20.0185 4.86517 18.2443 4.86517Z" fill-rule="evenodd" fill="#212121"/>
	<defs/>
</svg>
