<svg width="50.000000" height="50.000000" viewBox="0 0 50 50" fill="none" xmlns="http://www.w3.org/2000/svg" xmlns:xlink="http://www.w3.org/1999/xlink">
	<desc>
			Created with Pixso.
	</desc>
	<g clip-path="url(#clip9_1501)">
		<path d="M11.4583 43.75C10.0201 43.75 8.79248 43.2415 7.77551 42.2245C6.75848 41.2075 6.25 39.9799 6.25 38.5416L6.25 11.4584C6.25 10.0201 6.75848 8.79248 7.77551 7.77551C8.79248 6.75854 10.0201 6.25 11.4583 6.25L38.5417 6.25C39.9799 6.25 41.2075 6.75854 42.2245 7.77551C43.2415 8.79248 43.75 10.0201 43.75 11.4584L43.75 38.5416C43.75 39.9799 43.2415 41.2075 42.2245 42.2245C41.2075 43.2415 39.9799 43.75 38.5417 43.75L11.4583 43.75ZM34.4375 25.5834C35.0734 24.9486 35.1241 24.2701 34.5896 23.548L26.1042 15.0396C25.4694 14.4037 24.791 14.353 24.0687 14.8875L15.5604 23.375C14.882 24.0587 14.8571 24.7655 15.4857 25.4954C16.1144 26.2251 16.8171 26.3052 17.5938 25.7355L23.4375 19.9125L23.4375 33.8541C23.4376 34.7626 23.8875 35.2786 24.7875 35.4021L25 35.4166C25.9084 35.4166 26.4244 34.9667 26.5479 34.0667L26.5625 33.8541L26.5625 19.9166L32.2292 25.5834C32.8639 26.2168 33.7167 26.1168 34.4375 25.5834Z" fill-rule="evenodd" fill="#212121"/>
	</g>
	<defs>
		<clipPath id="clip9_1501">
			<rect width="50.000000" height="50.000000" transform="matrix(1 0 0 -1 0 50)" fill="white"/>
		</clipPath>
	</defs>
</svg>
