<svg width="30.000000" height="30.000000" viewBox="0 0 30 30" fill="none" xmlns="http://www.w3.org/2000/svg" xmlns:xlink="http://www.w3.org/1999/xlink">
	<desc>
			Created with Pixso.
	</desc>
	<g clip-path="url(#clip4_269)">
		<path d="M15.015 2.8125C15.9325 2.82251 16.8463 2.92871 17.7426 3.12866C18.1782 3.22607 18.4207 3.49634 18.47 3.93994L18.6825 5.84863C18.747 6.42725 19.0311 6.8623 19.5349 7.15405C20.0386 7.4458 20.5574 7.47583 21.0912 7.24365L22.8425 6.4751C23.2481 6.29639 23.6023 6.3689 23.905 6.69238C25.1865 8.06152 26.1048 9.64136 26.66 11.4326C26.7911 11.8564 26.6782 12.2002 26.3213 12.4639L24.7688 13.6086C24.2993 13.9536 24.0645 14.4175 24.0645 15C24.0645 15.5825 24.2993 16.0464 24.7688 16.3914L26.3225 17.5349C26.6807 17.7986 26.7941 18.1426 26.6625 18.5674C26.1071 20.3584 25.1887 21.9385 23.9075 23.3076C23.6057 23.6301 23.2524 23.7031 22.8475 23.5264L21.0888 22.7549C20.5554 22.521 20.0366 22.55 19.5324 22.8416C19.0282 23.1333 18.7445 23.5686 18.6813 24.1475L18.47 26.0549C18.4215 26.4924 18.1832 26.762 17.755 26.8638C15.9192 27.3005 14.0834 27.3005 12.2475 26.8638C11.8194 26.762 11.5811 26.4924 11.5325 26.0549L11.3225 24.1499C11.2567 23.5728 10.9721 23.1392 10.4688 22.8491C9.96539 22.5588 9.44745 22.53 8.91504 22.7625L7.15753 23.5325C6.75214 23.71 6.39838 23.6372 6.09625 23.3137C4.81439 21.9431 3.89606 20.3616 3.34125 18.5688C3.20972 18.144 3.32306 17.7998 3.68127 17.5361L5.23505 16.3914C5.70514 16.0466 5.94019 15.583 5.94019 15C5.94019 14.417 5.70514 13.9534 5.23505 13.6086L3.68127 12.4663C3.32361 12.2024 3.21069 11.8582 3.34253 11.4338C3.89783 9.64282 4.81616 8.06274 6.09753 6.69385C6.40027 6.37012 6.75446 6.29761 7.16003 6.47632L8.91003 7.24512C9.44476 7.47681 9.96429 7.44653 10.4686 7.15454C10.973 6.8623 11.2576 6.42676 11.3225 5.84741L11.535 3.93994C11.584 3.49536 11.827 3.22437 12.2638 3.12744C13.16 2.92871 14.0763 2.82373 15.015 2.8125ZM15 11.25C13.9645 11.25 13.0806 11.6162 12.3484 12.3484C11.6161 13.0806 11.25 13.9644 11.25 15C11.25 16.0356 11.6161 16.9194 12.3484 17.6516C13.0806 18.3838 13.9645 18.75 15 18.75C16.0356 18.75 16.9194 18.3838 17.6517 17.6516C18.3839 16.9194 18.75 16.0356 18.75 15C18.75 13.9644 18.3839 13.0806 17.6517 12.3484C16.9194 11.6162 16.0356 11.25 15 11.25Z" fill-rule="evenodd" fill="#212121"/>
	</g>
	<defs>
		<clipPath id="clip4_269">
			<rect width="30.000000" height="30.000000" fill="white"/>
		</clipPath>
	</defs>
</svg>
