<svg width="45.000000" height="45.000000" viewBox="0 0 45 45" fill="none" xmlns="http://www.w3.org/2000/svg" xmlns:xlink="http://www.w3.org/1999/xlink">
	<desc>
			Created with Pixso.
	</desc>
	<path d="M22.5 0C34.9268 0 45 10.0732 45 22.5C45 34.9268 34.9268 45 22.5 45C10.0732 45 0 34.9268 0 22.5C0 10.0732 10.0732 0 22.5 0ZM22.5 11.25C21.5189 11.2501 20.9617 11.736 20.8282 12.708L20.8125 12.9375L20.8125 20.8125L12.9375 20.8125C11.8871 20.8128 11.326 21.337 11.2545 22.385C11.1829 23.433 11.6674 24.0286 12.708 24.1718L12.9375 24.1875L20.8125 24.1875L20.8125 32.0625C20.8128 33.113 21.337 33.674 22.385 33.7455C23.433 33.8171 24.0286 33.3326 24.1718 32.292L24.1875 32.0625L24.1875 24.1875L32.0625 24.1875C33.1129 24.1872 33.674 23.663 33.7455 22.615C33.8171 21.567 33.3326 20.9714 32.292 20.8282L32.0625 20.8125L24.1875 20.8125L24.1875 12.9375C24.1875 11.8125 23.625 11.25 22.5 11.25Z" fill-rule="evenodd" fill="#212121"/>
	<defs/>
</svg>
