<svg width="30.000000" height="30.000000" viewBox="0 0 30 30" fill="none" xmlns="http://www.w3.org/2000/svg" xmlns:xlink="http://www.w3.org/1999/xlink">
	<desc>
			Created with Pixso.
	</desc>
	<g clip-path="url(#clip108_117)">
		<path d="M20.9375 2.50122C19.8906 2.50098 18.9006 2.73755 17.967 3.21094C17.0334 3.68457 16.2576 4.34375 15.6394 5.18848C15.0212 6.0332 14.6279 6.97217 14.459 8.00513C14.29 9.03833 14.3643 10.0537 14.6812 11.0513L3.34619 22.7761C2.7605 23.354 2.46997 24.0544 2.47412 24.877C2.47852 25.6997 2.77637 26.397 3.36792 26.9688C3.95947 27.5405 4.6665 27.8145 5.48877 27.7908C6.31128 27.7668 7.00122 27.4524 7.55884 26.8474L18.7625 15.2576C19.9211 15.665 21.1013 15.7415 22.3027 15.4863C23.5042 15.2314 24.5515 14.6824 25.4448 13.8394C26.3379 12.9961 26.9465 11.9822 27.2705 10.7976C27.5945 9.61279 27.5864 8.43018 27.2463 7.25C27.1472 6.90747 26.9253 6.69165 26.5801 6.60254C26.2351 6.51343 25.9363 6.59448 25.6838 6.84619L21.7 10.825L19.125 8.25L23.075 4.29736C23.3296 4.04297 23.4106 3.7417 23.3184 3.3938C23.2258 3.0459 23.0061 2.82471 22.6587 2.72998C22.0947 2.57715 21.5217 2.50098 20.9375 2.50122Z" fill-rule="evenodd" fill="#212121"/>
	</g>
	<defs>
		<clipPath id="clip108_117">
			<rect width="30.000000" height="30.000000" fill="white"/>
		</clipPath>
	</defs>
</svg>
