<svg width="30.000000" height="30.000000" viewBox="0 0 30 30" fill="none" xmlns="http://www.w3.org/2000/svg" xmlns:xlink="http://www.w3.org/1999/xlink">
	<desc>
			Created with Pixso.
	</desc>
	<g clip-path="url(#clip9_1494)">
		<path d="M7.92883 6.1725C8.51904 6.76208 8.51904 7.35167 7.92883 7.94125C6.99097 8.87926 6.26819 9.96101 5.76074 11.1865C5.25317 12.412 4.99939 13.6879 4.99939 15.0144C4.99939 16.3408 5.25317 17.6168 5.76074 18.8423C6.26819 20.0677 6.99097 21.1495 7.92883 22.0875C8.51831 22.6771 8.51831 23.2666 7.92847 23.8559C7.33875 24.4453 6.74927 24.445 6.16003 23.855C1.27759 18.9725 1.27759 11.055 6.16003 6.1725C6.74963 5.58226 7.33923 5.58226 7.92883 6.1725ZM23.8425 6.1725C28.7251 11.0563 28.7251 18.9725 23.8425 23.855C23.2534 24.4239 22.6694 24.4188 22.0903 23.8398C21.5112 23.2607 21.5061 22.6766 22.0751 22.0875C23.0129 21.1495 23.7356 20.0677 24.2432 18.8423C24.7507 17.6168 25.0045 16.3408 25.0045 15.0144C25.0045 13.6879 24.7507 12.412 24.2432 11.1865C23.7356 9.96101 23.0129 8.87926 22.0751 7.94125C21.4855 7.35208 21.4852 6.76271 22.0745 6.17313C22.6636 5.58354 23.2529 5.58334 23.8425 6.1725ZM11.6376 9.765C12.2266 10.3542 12.2266 10.9433 11.6376 11.5325C10.6807 12.4893 10.2021 13.6443 10.2021 14.9975C10.2021 16.3507 10.6807 17.5057 11.6376 18.4625C11.8889 18.7053 12.0161 19.0013 12.0192 19.3508C12.0221 19.7002 11.9001 19.9984 11.6531 20.2455C11.406 20.4926 11.1077 20.6146 10.7583 20.6116C10.4089 20.6085 10.1128 20.4813 9.87 20.23C9.17615 19.5361 8.64148 18.7359 8.26599 17.8293C7.8905 16.9227 7.70276 15.9788 7.70276 14.9975C7.70276 14.0162 7.8905 13.0723 8.26599 12.1657C8.64148 11.2591 9.17615 10.4589 9.87 9.765C10.4592 9.17601 11.0483 9.17601 11.6376 9.765ZM20.3363 9.765C21.0302 10.4589 21.5648 11.2591 21.9403 12.1657C22.3159 13.0723 22.5037 14.0162 22.5037 14.9975C22.5037 15.9788 22.3159 16.9227 21.9403 17.8293C21.5648 18.7359 21.0302 19.5361 20.3363 20.23C19.7471 20.8196 19.1577 20.8198 18.5681 20.2306C17.9786 19.6415 17.9784 19.0521 18.5675 18.4625C19.5244 17.5057 20.0029 16.3507 20.0029 14.9975C20.0029 13.6443 19.5244 12.4893 18.5675 11.5325C17.9784 10.9429 17.9786 10.3535 18.5681 9.76437C19.1577 9.17521 19.7471 9.17542 20.3363 9.765ZM15.1025 13.2275C15.6204 13.2275 16.0623 13.4106 16.4283 13.7767C16.7944 14.1428 16.9775 14.5847 16.9775 15.1025C16.9775 15.6203 16.7944 16.0622 16.4283 16.4283C16.0623 16.7944 15.6204 16.9775 15.1025 16.9775C14.5847 16.9775 14.1428 16.7944 13.7767 16.4283C13.4106 16.0622 13.2275 15.6203 13.2275 15.1025C13.2275 14.5847 13.4106 14.1428 13.7767 13.7767C14.1428 13.4106 14.5847 13.2275 15.1025 13.2275Z" fill-rule="evenodd" fill="#212121"/>
	</g>
	<defs>
		<clipPath id="clip9_1494">
			<rect width="30.000000" height="30.000000" fill="white"/>
		</clipPath>
	</defs>
</svg>
