<svg width="24.000000" height="24.000000" viewBox="0 0 24 24" fill="none" xmlns="http://www.w3.org/2000/svg" xmlns:xlink="http://www.w3.org/1999/xlink">
	<desc>
			Created with Pixso.
	</desc>
	<path d="M9.15723 20.7515L9.15723 17.7046C9.15723 16.9246 9.79309 16.2908 10.5811 16.2856L13.467 16.2856C14.2588 16.2856 14.9005 16.9209 14.9005 17.7046L14.9005 20.781C14.9003 21.4431 15.4342 21.9844 16.103 22L18.0271 22C19.9451 22 21.5 20.4607 21.5 18.5618L21.5 9.83789C21.4897 9.09082 21.1355 8.3894 20.538 7.93311L13.9578 2.6853C12.8049 1.77148 11.1663 1.77148 10.0134 2.6853L3.46204 7.94263C2.8623 8.39697 2.50745 9.09961 2.5 9.84741L2.5 18.5618C2.5 20.4607 4.05493 22 5.9729 22L7.89697 22C8.31531 22 8.6853 21.7952 8.91016 21.4812C8.98718 21.5073 9.07031 21.5215 9.15723 21.5215C9.57727 21.5215 9.90723 21.1914 9.90723 20.7715L9.88721 20.7515L9.15723 20.7515Z" fill-rule="evenodd" fill="url(#paint_linear_82_2623_0)"/>
	<path d="M9.87622 20.9893Q9.84485 21.2756 9.7301 21.5442Q9.57825 21.8999 9.30212 22.1731Q9.02686 22.4458 8.66968 22.5952Q8.30017 22.75 7.89697 22.75L5.9729 22.75Q5.11572 22.75 4.33142 22.4216Q3.57373 22.1042 2.9895 21.5259Q2.40454 20.9468 2.08325 20.1948Q1.75 19.4148 1.75 18.5618L1.75 9.83984Q1.75732 9.10449 2.08936 8.44678Q2.41846 7.79541 3.00024 7.35156L9.54749 2.09766Q10.0751 1.67944 10.7111 1.46167Q11.3298 1.25 11.9856 1.25Q12.6414 1.25 13.26 1.46167Q13.896 1.67944 14.4253 2.09888L20.9932 7.33691Q21.578 7.78369 21.9087 8.43823Q22.2399 9.09399 22.25 9.83789L22.25 18.5618Q22.25 19.4148 21.9167 20.1948Q21.5955 20.9468 21.0105 21.5259Q20.4263 22.1042 19.6686 22.4216Q18.8843 22.75 18.0271 22.75L16.103 22.75Q16.0944 22.75 16.0857 22.7498Q15.6908 22.7407 15.3314 22.5828Q14.9838 22.4302 14.7169 22.1597Q14.4495 21.8884 14.3027 21.5388Q14.1504 21.1758 14.1505 20.781L14.1505 17.7046Q14.1505 17.4297 13.953 17.2341Q13.7523 17.0356 13.467 17.0356L10.5859 17.0356Q10.3021 17.0374 10.1031 17.2358Q9.90723 17.4312 9.90723 17.7046L9.90723 20.7715C9.90723 20.8474 9.89636 20.9204 9.87622 20.9893ZM8.40723 20.7715L8.40723 17.7046Q8.40723 17.2644 8.57861 16.8611Q8.74377 16.4729 9.04419 16.1733Q9.34387 15.8748 9.73303 15.7095Q10.1357 15.5386 10.576 15.5356L13.467 15.5356Q13.9094 15.5356 14.3147 15.7053Q14.7064 15.8694 15.0083 16.1682Q15.311 16.468 15.4775 16.8577Q15.6505 17.2625 15.6505 17.7046L15.6505 20.781Q15.6505 20.97 15.7848 21.1062Q15.9198 21.2432 16.1135 21.25L18.0271 21.25Q18.583 21.25 19.0892 21.0381Q19.578 20.8333 19.9552 20.46Q20.3314 20.0874 20.5374 19.6055Q20.75 19.1079 20.75 18.5618L20.75 9.83789Q20.7448 9.46118 20.5697 9.1145Q20.3942 8.76685 20.0828 8.52905L13.4901 3.27173Q13.1664 3.01514 12.7744 2.88086Q12.3918 2.75 11.9856 2.75Q11.5793 2.75 11.1968 2.88086Q10.8048 3.01514 10.4792 3.27295L3.9314 8.52759Q3.92334 8.53394 3.91504 8.54028Q3.60339 8.77637 3.42834 9.12305Q3.25378 9.46875 3.25 9.85474L3.25 18.5618Q3.25 19.1079 3.46265 19.6055Q3.66858 20.0874 4.0448 20.46Q4.422 20.8333 4.91077 21.0381Q5.41699 21.25 5.9729 21.25L7.89697 21.25Q8.10254 21.25 8.24683 21.1072Q8.38794 20.9675 8.38794 20.7715L8.40723 20.7715Z" stroke="url(#paint_linear_82_2623_1)" stroke-width="1.500000" stroke-linejoin="round" stroke-linecap="round"/>
	<defs>
		<linearGradient id="paint_linear_82_2623_0" x1="21.500004" y1="21.999998" x2="2.500004" y2="2.000002" gradientUnits="userSpaceOnUse">
			<stop stop-color="#888BF4"/>
			<stop offset="1.000000" stop-color="#5151C6"/>
		</linearGradient>
		<linearGradient id="paint_linear_82_2623_1" x1="21.500004" y1="21.999998" x2="2.500004" y2="2.000002" gradientUnits="userSpaceOnUse">
			<stop stop-color="#888BF4"/>
			<stop offset="1.000000" stop-color="#5151C6"/>
		</linearGradient>
	</defs>
</svg>
