<svg xmlns="http://www.w3.org/2000/svg" viewBox="0 0 32 32" width="22" height="22" style="border-color: rgba(187,187,187,1);border-width: 0px;border-style: solid" filter="none">
    
    <g>
    <path d="M24 10.667h2.667c0.736 0 1.333 0.597 1.333 1.333v0 16c0 0.736-0.597 1.333-1.333 1.333v0h-21.333c-0.736 0-1.333-0.597-1.333-1.333v0-16c0-0.736 0.597-1.333 1.333-1.333v0h2.667v-1.333c0-4.418 3.582-8 8-8s8 3.582 8 8v0 1.333zM21.333 10.667v-1.333c0-2.946-2.388-5.333-5.333-5.333s-5.333 2.388-5.333 5.333v0 1.333h10.667zM9.333 14.667v2.667h2.667v-2.667h-2.667zM9.333 18.667v2.667h2.667v-2.667h-2.667zM9.333 22.667v2.667h2.667v-2.667h-2.667z" fill="rgba(16.065,16.065,16.065,1)"></path>
    </g>
  </svg>